{
classes = (
{
code = "I J P Q R";
name = salt_uc_01;
},
{
code = "I.salt J.salt P.salt Q.salt R.salt";
name = salt_uc_02;
},
{
code = "Iacute Ibreve Icircumflex Idieresis Idotaccent Igrave Imacron Iogonek Itilde Jcircumflex Racute Rcaron Rcommaaccent";
name = salt_uc_03;
},
{
code = "Iacute.salt Ibreve.salt Icircumflex.salt Idieresis.salt Idotaccent.salt Igrave.salt Imacron.salt Iogonek.salt Itilde.salt Jcircumflex.salt Racute.salt Rcaron.salt Rcommaaccent.salt";
name = salt_uc_04;
},
{
code = "f l r t u";
name = salt_lc_01;
},
{
code = "f.salt l.salt r.salt t.salt u.salt";
name = salt_lc_02;
},
{
code = "lacute lcaron lcommaaccent lslash racute rcaron rcommaaccent tbar tcaron tcedilla tcommaaccent uacute ubreve ucircumflex udieresis ugrave uhungarumlaut umacron uogonek uring utilde";
name = salt_lc_03;
},
{
code = "lacute.salt lcaron.salt lcommaaccent.salt lslash.salt racute.salt rcaron.salt rcommaaccent.salt tbar.salt tcaron.salt tcedilla.salt tcommaaccent.salt uacute.salt ubreve.salt ucircumflex.salt udieresis.salt ugrave.salt uhungarumlaut.salt umacron.salt uogonek.salt uring.salt utilde.salt";
name = salt_lc_04;
},
{

glyphs = (
{
color = 4;
glyphname = .notdef;
layers = (
{
layerId = "670CA61E-2201-4EBA-9CF0-D57F8D98A45A";
paths = (
{
closed = 1;
nodes = (
"445.509 252 LINE",
"463.823 355 LINE",
"414.012 312 LINE",
"530.488 315 OFFCURVE",
"607.149 376 OFFCURVE",
"621.879 469 CURVE SMOOTH",
"623.304 478 LINE SMOOTH",
"637.876 570 OFFCURVE",
"582.487 637 OFFCURVE",
"475.487 637 CURVE SMOOTH",
"356.487 637 OFFCURVE",
"281.133 559 OFFCURVE",
"266.562 467 CURVE",
"382.562 467 LINE",
"388.264 503 OFFCURVE",
"416.015 533 OFFCURVE",
"456.015 533 CURVE SMOOTH",
"493.015 533 OFFCURVE",
"511.897 507 OFFCURVE",
"505.72 468 CURVE SMOOTH",
"500.177 433 OFFCURVE",
"475.425 403 OFFCURVE",
"428.425 403 CURVE SMOOTH",
"359.425 403 LINE",
"335.509 252 LINE"
);
},
{
closed = 1;
nodes = (
"424.435 100 LINE",
"440.907 204 LINE",
"324.907 204 LINE",
"308.435 100 LINE"
);
},
{
closed = 1;
nodes = (
"713.044 -54 LINE",
"846.403 788 LINE",
"147.403 788 LINE",
"14.044 -54 LINE"
);
},
{
closed = 1;
nodes = (
"206.95 722 LINE",
"765.95 722 LINE",
"653.497 12 LINE",
"94.497 12 LINE"
);
}
);
width = 869;
},
{
layerId = "A9BE7077-88A3-49D0-803C-7BC96B0B926B";
paths = (
{
closed = 1;
nodes = (
"422.926 236 LINE",
"441.031 344 LINE",
"412.913 318 LINE",
"520.23 320 OFFCURVE",
"588.208 383 OFFCURVE",
"601.354 466 CURVE SMOOTH",
"602.621 474 LINE SMOOTH",
"615.925 558 OFFCURVE",
"565.22 623 OFFCURVE",
"470.22 623 CURVE SMOOTH",
"372.22 623 OFFCURVE",
"298.45 555 OFFCURVE",
"283.72 462 CURVE",
"351.72 462 LINE",
"360.907 520 OFFCURVE",
"403.401 561 OFFCURVE",
"458.401 561 CURVE SMOOTH",
"513.401 561 OFFCURVE",
"541.224 522 OFFCURVE",
"532.512 467 CURVE SMOOTH",
"523.801 412 OFFCURVE",
"483.466 372 OFFCURVE",
"423.466 372 CURVE SMOOTH",
"382.466 372 LINE",
"360.926 236 LINE"
);
},
{
closed = 1;
nodes = (
"408.385 100 LINE",
"420.422 176 LINE",
"344.422 176 LINE",
"332.385 100 LINE"
);
},
{
closed = 1;
nodes = (
"700.895 -42 LINE",
"830.453 776 LINE",
"151.453 776 LINE",
"21.895 -42 LINE"
);
},
{
closed = 1;
nodes = (
"198.9 722 LINE",
"765.9 722 LINE",
"653.447 12 LINE",
"86.447 12 LINE"
);
}
);
width = 859;
},
{
layerId = "45FAA47D-3C03-4CCA-BDE3-DFC1510ED13C";
paths = (
{
closed = 1;
nodes = (
"364.955 224 LINE",
"381.585 329 LINE",
"373.893 312 LINE",
"475.893 312 OFFCURVE",
"537.821 381 OFFCURVE",
"549.859 457 CURVE SMOOTH",
"550.967 464 LINE SMOOTH",
"563.321 542 OFFCURVE",
"517.933 609 OFFCURVE",
"430.933 609 CURVE SMOOTH",
"340.933 609 OFFCURVE",
"273.163 541 OFFCURVE",
"258.908 451 CURVE",
"284.908 451 LINE",
"297.579 531 OFFCURVE",
"355.815 583 OFFCURVE",
"426.815 583 CURVE SMOOTH",
"495.815 583 OFFCURVE",
"533.896 533 OFFCURVE",
"522.334 460 CURVE SMOOTH",
"511.247 390 OFFCURVE",
"460.011 338 OFFCURVE",
"386.011 338 CURVE SMOOTH",
"358.011 338 LINE",
"339.955 224 LINE"
);
},
{
closed = 1;
nodes = (
"351.315 100 LINE",
"358.284 144 LINE",
"321.284 144 LINE",
"314.315 100 LINE"
);
},
{
closed = 1;
nodes = (
"635.685 -5 LINE",
"753.523 739 LINE",
"153.523 739 LINE",
"35.685 -5 LINE"
);
},
{
closed = 1;
nodes = (
"173.039 717 LINE",
"727.039 717 LINE",
"616.169 17 LINE",
"62.169 17 LINE"
);
}
);
width = 790;
},
{
layerId = "3423A7C6-8126-4A24-975D-243FD1A28608";
name = public.background;
paths = (
{
closed = 1;
nodes = (
"388 224 LINE",
"388 329 LINE",
"383 312 LINE",
"485 312 OFFCURVE",
"536 381 OFFCURVE",
"536 457 CURVE SMOOTH",
"536 464 LINE SMOOTH",
"536 542 OFFCURVE",
"480 609 OFFCURVE",
"393 609 CURVE SMOOTH",
"303 609 OFFCURVE",
"246 541 OFFCURVE",
"246 451 CURVE",
"272 451 LINE",
"272 531 OFFCURVE",
"322 583 OFFCURVE",
"393 583 CURVE SMOOTH",
"462 583 OFFCURVE",
"508 533 OFFCURVE",
"508 460 CURVE SMOOTH",
"508 390 OFFCURVE",
"465 338 OFFCURVE",
"391 338 CURVE SMOOTH",
"363 338 LINE",
"363 224 LINE"
);
},
{
closed = 1;
nodes = (
"394 100 LINE",
"394 144 LINE",
"357 144 LINE",
"357 100 LINE"
);
},
{
closed = 1;
nodes = (
"695 -5 LINE",
"695 739 LINE",
"95 739 LINE",
"95 -5 LINE"
);
},
{
closed = 1;
nodes = (
"118 717 LINE",
"672 717 LINE",
"672 17 LINE",
"118 17 LINE"
);
}
);
width = 869;
}
);
},
{
color = 7;
glyphname = A;
layers = (
{
anchors = (
{
name = ogonek;
position = "{692, 10}";
},
{
name = top;
position = "{362, 730}";
}
);
layerId = "3423A7C6-8126-4A24-975D-243FD1A28608";
name = public.background;
paths = (
{
closed = 1;
nodes = (
"74 0 LINE",
"348 715 LINE",
"322 700 LINE",
"400 700 LINE",
"374 715 LINE",
"659 0 LINE",
"692 0 LINE",
"401 730 LINE",
"323 730 LINE",
"42 0 LINE"
);
},
{
closed = 1;
nodes = (
"569 260 LINE",
"557 290 LINE",
"171 290 LINE",
"160 260 LINE"
);
}
);
width = 790;
},
{
anchors = (
{
name = ogonek;
position = "{682, 10}";
},
{
name = top;
position = "{449, 730}";
}
);
layerId = "670CA61E-2201-4EBA-9CF0-D57F8D98A45A";
paths = (
{
closed = 1;
nodes = (
"136 0 LINE",
"414 600 LINE",
"357 580 LINE",
"489 580 LINE",
"439 600 LINE",
"532 0 LINE",
"724 0 LINE",
"598 730 LINE",
"300 730 LINE",
"-50 0 LINE"
);
},
{
closed = 1;
nodes = (
"557 169 LINE",
"525 321 LINE",
"248 321 LINE",
"168 169 LINE"
);
}
);
width = 790;
},
{
anchors = (
{
name = ogonek;
position = "{664, 10}";
},
{
name = top;
position = "{432, 730}";
}
);
layerId = "A9BE7077-88A3-49D0-803C-7BC96B0B926B";
paths = (
{
closed = 1;
nodes = (
"68 0 LINE",
"411 666 LINE",
"356 642 LINE",
"474 642 LINE",
"430 666 LINE",
"569 0 LINE",
"670 0 LINE",
"515 730 LINE",
"349 730 LINE",
"-30 0 LINE"
);
},
{
closed = 1;
nodes = (
"543 218 LINE",
"524 306 LINE",
"209 306 LINE",
"162 218 LINE"
);
}
);
width = 756;
},
{
anchors = (
{
name = ogonek;
position = "{636, 10}";
},
{
name = top;
position = "{420, 730}";
}
);
layerId = "45FAA47D-3C03-4CCA-BDE3-DFC1510ED13C";
paths = (
{
closed = 1;
nodes = (
"16 0 LINE",
"403 715 LINE",
"375 700 LINE",
"453 700 LINE",
"429 715 LINE",
"601 0 LINE",
"634 0 LINE",
"459 730 LINE",
"381 730 LINE",
"-16 0 LINE"
);
},
{
closed = 1;
nodes = (
"552 260 LINE",
"545 290 LINE",
"159 290 LINE",
"143 260 LINE"
);
}
);
width = 734;
}
);
leftKerningGroup = UC_A;
rightKerningGroup = UC_A;
unicode = 0041;
},
{
color = 7;
glyphname = AE;
layers = (
{
layerId = "670CA61E-2201-4EBA-9CF0-D57F8D98A45A";
paths = (
{
closed = 1;
nodes = (
"120.19 0 LINE",
"452.22 600 LINE",
"399.053 580 LINE",
"527.053 580 LINE",
"550.81 730 LINE",
"337.81 730 LINE",
"-65.81 0 LINE"
);
},
{
closed = 1;
nodes = (
"463.54 179 LINE",
"487.773 332 LINE",
"267.773 332 LINE",
"187.54 179 LINE"
);
},
{
closed = 1;
nodes = (
"591.19 0 LINE",
"706.81 730 LINE",
"529.81 730 LINE",
"414.19 0 LINE"
);
},
{
closed = 1;
nodes = (
"878.19 0 LINE",
"902.264 152 LINE",
"594.264 152 LINE",
"570.19 0 LINE"
);
},
{
closed = 1;
nodes = (
"904.913 295 LINE",
"928.988 447 LINE",
"640.988 447 LINE",
"616.913 295 LINE"
);
},
{
closed = 1;
nodes = (
"963.736 578 LINE",
"987.81 730 LINE",
"685.81 730 LINE",
"661.736 578 LINE"
);
}
);
width = 986;
},
{
layerId = "A9BE7077-88A3-49D0-803C-7BC96B0B926B";
paths = (
{
closed = 1;
nodes = (
"52.19 0 LINE",
"419.674 666 LINE",
"364.872 642 LINE",
"542.872 642 LINE",
"556.81 730 LINE",
"358.81 730 LINE",
"-45.81 0 LINE"
);
},
{
closed = 1;
nodes = (
"480.311 247 LINE",
"494.407 336 LINE",
"209.407 336 LINE",
"159.311 247 LINE"
);
},
{
closed = 1;
nodes = (
"519.19 0 LINE",
"634.81 730 LINE",
"535.81 730 LINE",
"420.19 0 LINE"
);
},
{
closed = 1;
nodes = (
"852.19 0 LINE",
"866.128 88 LINE",
"512.128 88 LINE",
"498.19 0 LINE"
);
},
{
closed = 1;
nodes = (
"873.981 327 LINE",
"887.919 415 LINE",
"563.919 415 LINE",
"549.981 327 LINE"
);
},
{
closed = 1;
nodes = (
"943.872 642 LINE",
"957.81 730 LINE",
"613.81 730 LINE",
"599.872 642 LINE"
);
}
);
width = 972;
},
{
layerId = "45FAA47D-3C03-4CCA-BDE3-DFC1510ED13C";
paths = (
{
closed = 1;
nodes = (
"0.19 0 LINE",
"401.435 715 LINE",
"377.059 700 LINE",
"555.059 700 LINE",
"559.81 730 LINE",
"380.81 730 LINE",
"-31.81 0 LINE"
);
},
{
closed = 1;
nodes = (
"493.764 313 LINE",
"498.516 343 LINE",
"176.516 343 LINE",
"162.764 313 LINE"
);
},
{
closed = 1;
nodes = (
"463.19 0 LINE",
"578.81 730 LINE",
"546.81 730 LINE",
"431.19 0 LINE"
);
},
{
closed = 1;
nodes = (
"830.19 0 LINE",
"834.941 30 LINE",
"452.941 30 LINE",
"448.19 0 LINE"
);
},
{
closed = 1;
nodes = (
"846.941 352 LINE",
"851.693 382 LINE",
"508.693 382 LINE",
"503.941 352 LINE"
);
},
{
closed = 1;
nodes = (
"928.059 700 LINE",
"932.81 730 LINE",
"563.81 730 LINE",
"559.059 700 LINE"
);
}
);
width = 962;
},
{
layerId = "3423A7C6-8126-4A24-975D-243FD1A28608";
name = public.background;
paths = (
{
closed = 1;
nodes = (
"58 0 LINE",
"346 715 LINE",
"324 700 LINE",
"502 700 LINE",
"502 730 LINE",
"323 730 LINE",
"26 0 LINE"
);
},
{
closed = 1;
nodes = (
"502 313 LINE",
"502 343 LINE",
"180 343 LINE",
"171 313 LINE"
);
},
{
closed = 1;
nodes = (
"521 0 LINE",
"521 730 LINE",
"489 730 LINE",
"489 0 LINE"
);
},
{
closed = 1;
nodes = (
"888 0 LINE",
"888 30 LINE",
"506 30 LINE",
"506 0 LINE"
);
},
{
closed = 1;
nodes = (
"849 352 LINE",
"849 382 LINE",
"506 382 LINE",
"506 352 LINE"
);
},
{
closed = 1;
nodes = (
"875 700 LINE",
"875 730 LINE",
"506 730 LINE",
"506 700 LINE"
);
}
);
width = 986;
}
);
leftKerningGroup = UC_AE;
rightKerningGroup = UC_E;
unicode = 00C6;
},
{
color = 7;
glyphname = B;
layers = (
{
layerId = "670CA61E-2201-4EBA-9CF0-D57F8D98A45A";
paths = (
{
closed = 1;
nodes = (
"331.764 -6 LINE SMOOTH",
"490.698 -6 OFFCURVE",
"610.341 54.462 OFFCURVE",
"634.025 204 CURVE SMOOTH",
"636.242 218 LINE SMOOTH",
"656.214 344.099 OFFCURVE",
"545.95 409 OFFCURVE",
"397.494 409 CURVE SMOOTH",
"242.494 409 LINE",
"225.071 299 LINE",
"386.071 299 LINE SMOOTH",
"433.465 299 OFFCURVE",
"461.704 265.108 OFFCURVE",
"454.242 218 CURVE SMOOTH",
"446.01 166.023 OFFCURVE",
"412.6 136 OFFCURVE",
"360.255 136 CURVE SMOOTH",
"199.255 136 LINE",
"176.764 -6 LINE"
);
},
{
closed = 1;
nodes = (
"196.764 -6 LINE",
"314.285 736 LINE",
"134.285 736 LINE",
"16.764 -6 LINE"
);
},
{
closed = 1;
nodes = (
"355.506 327 LINE SMOOTH",
"509.269 327 OFFCURVE",
"630.788 372.973 OFFCURVE",
"653.283 515 CURVE SMOOTH",
"655.658 530 LINE SMOOTH",
"676.379 660.824 OFFCURVE",
"569.665 736 OFFCURVE",
"420.285 736 CURVE SMOOTH",
"294.285 736 LINE",
"271.795 594 LINE",
"405.795 594 LINE SMOOTH",
"451.582 594 OFFCURVE",
"478.538 560.809 OFFCURVE",
"471.283 515 CURVE SMOOTH",
"463.415 465.326 OFFCURVE",
"431.088 437 OFFCURVE",
"380.929 437 CURVE SMOOTH",
"246.929 437 LINE",
"229.506 327 LINE"
);
}
);
width = 698;
},
{
layerId = "A9BE7077-88A3-49D0-803C-7BC96B0B926B";
paths = (
{
closed = 1;
nodes = (
"316.239 -4 LINE SMOOTH",
"460.061 -4 OFFCURVE",
"564.174 58.724 OFFCURVE",
"585.916 196 CURVE SMOOTH",
"588.134 210 LINE SMOOTH",
"606.428 325.506 OFFCURVE",
"511.271 391 OFFCURVE",
"378.801 391 CURVE SMOOTH",
"188.801 391 LINE",
"178.665 327 LINE",
"382.665 327 LINE SMOOTH",
"454.928 327 OFFCURVE",
"498.624 276.232 OFFCURVE",
"487.342 205 CURVE SMOOTH",
"474.896 126.421 OFFCURVE",
"423.345 82 OFFCURVE",
"343.86 82 CURVE SMOOTH",
"139.86 82 LINE",
"126.239 -4 LINE"
);
},
{
closed = 1;
nodes = (
"146.239 -4 LINE",
"263.127 734 LINE",
"165.127 734 LINE",
"48.239 -4 LINE"
);
},
{
closed = 1;
nodes = (
"341.516 345 LINE SMOOTH",
"480.643 345 OFFCURVE",
"587.273 393.985 OFFCURVE",
"607.866 524 CURVE SMOOTH",
"610.084 538 LINE SMOOTH",
"629.241 658.951 OFFCURVE",
"537.112 734 OFFCURVE",
"403.127 734 CURVE SMOOTH",
"243.127 734 LINE",
"229.506 648 LINE",
"406.506 648 LINE SMOOTH",
"477.158 648 OFFCURVE",
"519.575 597.928 OFFCURVE",
"508.5 528 CURVE SMOOTH",
"496.418 451.721 OFFCURVE",
"445.954 409 OFFCURVE",
"368.652 409 CURVE SMOOTH",
"191.652 409 LINE",
"181.516 345 LINE"
);
}
);
width = 681;
},
{
layerId = "45FAA47D-3C03-4CCA-BDE3-DFC1510ED13C";
paths = (
{
closed = 1;
nodes = (
"315.715 -2 LINE SMOOTH",
"442.999 -2 OFFCURVE",
"529.126 63.735 OFFCURVE",
"548.808 188 CURVE SMOOTH",
"550.075 196 LINE SMOOTH",
"567.477 305.874 OFFCURVE",
"492.426 380 OFFCURVE",
"376.217 380 CURVE SMOOTH",
"149.217 380 LINE",
"145.416 356 LINE",
"378.416 356 LINE SMOOTH",
"474.812 356 OFFCURVE",
"532.57 287.518 OFFCURVE",
"517.441 192 CURVE SMOOTH",
"500.86 87.31 OFFCURVE",
"432.316 28 OFFCURVE",
"326.466 28 CURVE SMOOTH",
"93.466 28 LINE",
"88.715 -2 LINE"
);
},
{
closed = 1;
nodes = (
"104.715 -2 LINE",
"220.969 732 LINE",
"188.969 732 LINE",
"72.715 -2 LINE"
);
},
{
closed = 1;
nodes = (
"346.366 362 LINE SMOOTH",
"469.549 362 OFFCURVE",
"555.715 421.021 OFFCURVE",
"574.559 540 CURVE SMOOTH",
"575.826 548 LINE SMOOTH",
"593.151 657.387 OFFCURVE",
"519.801 732 OFFCURVE",
"404.969 732 CURVE SMOOTH",
"204.969 732 LINE",
"200.217 702 LINE",
"406.217 702 LINE SMOOTH",
"500.429 702 OFFCURVE",
"557.836 636.452 OFFCURVE",
"543.192 544 CURVE SMOOTH",
"527.099 442.387 OFFCURVE",
"459.329 386 OFFCURVE",
"356.168 386 CURVE SMOOTH",
"150.168 386 LINE",
"146.366 362 LINE"
);
}
);
width = 661;
},
{
layerId = "3423A7C6-8126-4A24-975D-243FD1A28608";
name = public.background;
paths = (
{
closed = 1;
nodes = (
"373 -2 LINE SMOOTH",
"508 -2 OFFCURVE",
"576 85 OFFCURVE",
"576 188 CURVE SMOOTH",
"576 196 LINE SMOOTH",
"576 310 OFFCURVE",
"492 380 OFFCURVE",
"373 380 CURVE SMOOTH",
"146 380 LINE",
"146 356 LINE",
"379 356 LINE SMOOTH",
"484 356 OFFCURVE",
"544 287 OFFCURVE",
"544 192 CURVE SMOOTH",
"544 96 OFFCURVE",
"482 28 OFFCURVE",
"379 28 CURVE SMOOTH",
"146 28 LINE",
"146 -2 LINE"
);
},
{
closed = 1;
nodes = (
"162 -2 LINE",
"162 732 LINE",
"130 732 LINE",
"130 -2 LINE"
);
},
{
closed = 1;
nodes = (
"346 362 LINE SMOOTH",
"471 362 OFFCURVE",
"546 430 OFFCURVE",
"546 540 CURVE SMOOTH",
"546 548 LINE SMOOTH",
"546 654 OFFCURVE",
"481 732 OFFCURVE",
"346 732 CURVE SMOOTH",
"146 732 LINE",
"146 702 LINE",
"352 702 LINE SMOOTH",
"463 702 OFFCURVE",
"514 636 OFFCURVE",
"514 544 CURVE SMOOTH",
"514 452 OFFCURVE",
"463 386 OFFCURVE",
"352 386 CURVE SMOOTH",
"146 386 LINE",
"146 362 LINE"
);
}
);
width = 698;
}
);
leftKerningGroup = UC_Stem;
rightKerningGroup = UC_B;
unicode = 0042;
},
{
color = 7;
glyphname = C;
layers = (
{
anchors = (
{
name = bottom;
position = "{425, 0}";
},
{
name = top;
position = "{421, 730}";
}
);
layerId = "3423A7C6-8126-4A24-975D-243FD1A28608";
name = public.background;
paths = (
{
closed = 1;
nodes = (
"602 -16 OFFCURVE",
"719 84 OFFCURVE",
"744 237 CURVE",
"712 237 LINE",
"688 94 OFFCURVE",
"578 14 OFFCURVE",
"429 14 CURVE SMOOTH",
"208 14 OFFCURVE",
"102 194 OFFCURVE",
"102 366 CURVE SMOOTH",
"102 551 OFFCURVE",
"213 718 OFFCURVE",
"421 718 CURVE SMOOTH",
"565 718 OFFCURVE",
"679 637 OFFCURVE",
"697 495 CURVE",
"729 495 LINE",
"710 647 OFFCURVE",
"591 748 OFFCURVE",
"421 748 CURVE SMOOTH",
"185 748 OFFCURVE",
"70 557 OFFCURVE",
"70 372 CURVE SMOOTH",
"70 360 LINE SMOOTH",
"70 188 OFFCURVE",
"180 -16 OFFCURVE",
"429 -16 CURVE SMOOTH"
);
}
);
width = 802;
},
{
anchors = (
{
name = bottom;
position = "{356, 0}";
},
{
name = top;
position = "{468, 730}";
}
);
layerId = "670CA61E-2201-4EBA-9CF0-D57F8D98A45A";
paths = (
{
closed = 1;
nodes = (
"563.105 -20 OFFCURVE",
"709.173 77.148 OFFCURVE",
"763 279 CURVE",
"577 279 LINE",
"547.453 189.178 OFFCURVE",
"476.549 154 OFFCURVE",
"380 154 CURVE SMOOTH",
"265.651 154 OFFCURVE",
"205.594 245.439 OFFCURVE",
"224 366 CURVE SMOOTH",
"244.745 494.418 OFFCURVE",
"316.105 578 OFFCURVE",
"442 578 CURVE SMOOTH",
"528.871 578 OFFCURVE",
"590.8 535.484 OFFCURVE",
"593 453 CURVE",
"779 453 LINE",
"790.456 638.379 OFFCURVE",
"662.463 752 OFFCURVE",
"470 752 CURVE SMOOTH",
"229.979 752 OFFCURVE",
"75.696 615.874 OFFCURVE",
"38 378 CURVE SMOOTH",
"35 356 LINE SMOOTH",
"0.729 137.196 OFFCURVE",
"131.926 -20 OFFCURVE",
"352 -20 CURVE SMOOTH"
);
}
);
width = 802;
},
{
anchors = (
{
name = bottom;
position = "{360, 0}";
},
{
name = top;
position = "{474, 730}";
}
);
layerId = "A9BE7077-88A3-49D0-803C-7BC96B0B926B";
paths = (
{
closed = 1;
nodes = (
"554.852 -18 OFFCURVE",
"687.095 71.233 OFFCURVE",
"741 255 CURVE",
"641 255 LINE",
"601.036 129.849 OFFCURVE",
"508.617 72 OFFCURVE",
"376 72 CURVE SMOOTH",
"215.545 72 OFFCURVE",
"129.327 198.492 OFFCURVE",
"156 366 CURVE SMOOTH",
"184.422 545.28 OFFCURVE",
"286.582 660 OFFCURVE",
"463 660 CURVE SMOOTH",
"583.644 660 OFFCURVE",
"665.804 592.901 OFFCURVE",
"663 477 CURVE",
"763 477 LINE",
"770.22 647.194 OFFCURVE",
"652.963 750 OFFCURVE",
"477 750 CURVE SMOOTH",
"242.029 750 OFFCURVE",
"94.261 612.215 OFFCURVE",
"57 378 CURVE SMOOTH",
"54 356 LINE SMOOTH",
"19.456 139.434 OFFCURVE",
"146.011 -18 OFFCURVE",
"362 -18 CURVE SMOOTH"
);
}
);
width = 796;
},
{
anchors = (
{
name = bottom;
position = "{366, 0}";
},
{
name = top;
position = "{477, 730}";
}
);
layerId = "45FAA47D-3C03-4CCA-BDE3-DFC1510ED13C";
paths = (
{
closed = 1;
nodes = (
"545.984 -16 OFFCURVE",
"667.627 67.223 OFFCURVE",
"722 237 CURVE",
"690 237 LINE",
"641.429 86.007 OFFCURVE",
"531.637 14 OFFCURVE",
"372 14 CURVE SMOOTH",
"176.483 14 OFFCURVE",
"68.219 164.634 OFFCURVE",
"101 366 CURVE SMOOTH",
"134.893 582.213 OFFCURVE",
"261.319 718 OFFCURVE",
"475 718 CURVE SMOOTH",
"621.514 718 OFFCURVE",
"720.951 635.611 OFFCURVE",
"716 495 CURVE",
"748 495 LINE",
"753.21 653.382 OFFCURVE",
"643.699 748 OFFCURVE",
"480 748 CURVE SMOOTH",
"247.841 748 OFFCURVE",
"106.587 605.399 OFFCURVE",
"70 372 CURVE SMOOTH",
"68 360 LINE SMOOTH",
"34.028 143.585 OFFCURVE",
"154.646 -16 OFFCURVE",
"367 -16 CURVE SMOOTH"
);
}
);
width = 792;
}
);
leftKerningGroup = UC_Round;
rightKerningGroup = UC_C;
unicode = 0043;
},
{
color = 7;
glyphname = D;
layers = (
{
anchors = (
{
name = bottom;
position = "{393, 0}";
},
{
name = center;
position = "{206, 365}";
},
{
name = top;
position = "{391, 730}";
}
);
layerId = "3423A7C6-8126-4A24-975D-243FD1A28608";
name = public.background;
paths = (
{
closed = 1;
nodes = (
"372 -3 LINE SMOOTH",
"636 -3 OFFCURVE",
"744 183 OFFCURVE",
"744 360 CURVE SMOOTH",
"744 373 LINE SMOOTH",
"744 555 OFFCURVE",
"628 732 OFFCURVE",
"372 732 CURVE SMOOTH",
"143 732 LINE",
"143 702 LINE",
"376 702 LINE SMOOTH",
"607 702 OFFCURVE",
"712 543 OFFCURVE",
"712 366 CURVE SMOOTH",
"712 195 OFFCURVE",
"613 27 OFFCURVE",
"376 27 CURVE SMOOTH",
"143 27 LINE",
"143 -3 LINE"
);
},
{
closed = 1;
nodes = (
"162 -3 LINE",
"162 732 LINE",
"130 732 LINE",
"130 -3 LINE"
);
}
);
width = 796;
},
{
anchors = (
{
name = bottom;
position = "{332, 0}";
},
{
name = center;
position = "{209, 365}";
},
{
name = top;
position = "{439, 730}";
}
);
layerId = "670CA61E-2201-4EBA-9CF0-D57F8D98A45A";
paths = (
{
closed = 1;
nodes = (
"294 -4 LINE SMOOTH",
"540.736 -4 OFFCURVE",
"711.815 116.953 OFFCURVE",
"749 356 CURVE SMOOTH",
"753 378 LINE",
"786.009 592.559 OFFCURVE",
"638.341 736 OFFCURVE",
"411 736 CURVE SMOOTH",
"299 736 LINE",
"272 562 LINE",
"392 562 LINE SMOOTH",
"509.03 562 OFFCURVE",
"580.878 481.421 OFFCURVE",
"563 367 CURVE SMOOTH",
"543.265 240.283 OFFCURVE",
"458.655 170 OFFCURVE",
"330 170 CURVE SMOOTH",
"210 170 LINE",
"182 -4 LINE"
);
},
{
closed = 1;
nodes = (
"202 -4 LINE",
"319 736 LINE",
"133 736 LINE",
"16 -4 LINE"
);
}
);
width = 781;
},
{
anchors = (
{
name = bottom;
position = "{334, 0}";
},
{
name = center;
position = "{206, 365}";
},
{
name = top;
position = "{434, 730}";
}
);
layerId = "A9BE7077-88A3-49D0-803C-7BC96B0B926B";
paths = (
{
closed = 1;
nodes = (
"298 -4 LINE SMOOTH",
"541.232 -4 OFFCURVE",
"707.866 118.44 OFFCURVE",
"745 355 CURVE SMOOTH",
"749 377 LINE",
"781.647 589.81 OFFCURVE",
"638.429 734 OFFCURVE",
"415 734 CURVE SMOOTH",
"243 734 LINE",
"229 644 LINE",
"411 644 LINE SMOOTH",
"574.562 644 OFFCURVE",
"672.676 527.957 OFFCURVE",
"647 366 CURVE SMOOTH",
"618.759 187.516 OFFCURVE",
"502.319 86 OFFCURVE",
"322 86 CURVE SMOOTH",
"140 86 LINE",
"126 -4 LINE"
);
},
{
closed = 1;
nodes = (
"146 -4 LINE",
"263 734 LINE",
"165 734 LINE",
"48 -4 LINE"
);
}
);
width = 793;
},
{
anchors = (
{
name = bottom;
position = "{336, 0}";
},
{
name = center;
position = "{207, 365}";
},
{
name = top;
position = "{450, 730}";
}
);
layerId = "45FAA47D-3C03-4CCA-BDE3-DFC1510ED13C";
paths = (
{
closed = 1;
nodes = (
"315 -3 LINE SMOOTH",
"551.755 -3 OFFCURVE",
"707.095 126.709 OFFCURVE",
"744 360 CURVE SMOOTH",
"746 373 LINE SMOOTH",
"779.554 583.582 OFFCURVE",
"646.835 732 OFFCURVE",
"431 732 CURVE SMOOTH",
"202 732 LINE",
"197 702 LINE",
"430 702 LINE SMOOTH",
"626.674 702 OFFCURVE",
"743.918 561.447 OFFCURVE",
"713 366 CURVE SMOOTH",
"679.012 150.745 OFFCURVE",
"539.989 27 OFFCURVE",
"323 27 CURVE SMOOTH",
"90 27 LINE",
"86 -3 LINE"
);
},
{
closed = 1;
nodes = (
"105 -3 LINE",
"221 732 LINE",
"189 732 LINE",
"73 -3 LINE"
);
}
);
width = 807;
}
);
leftKerningGroup = UC_Stem;
rightKerningGroup = UC_Round;
unicode = 0044;
},
{
color = 7;
glyphname = E;
layers = (
{
anchors = (
{
name = bottom;
position = "{333, 0}";
},
{
name = ogonek;
position = "{534, 10}";
},
{
name = top;
position = "{324, 730}";
}
);
layerId = "3423A7C6-8126-4A24-975D-243FD1A28608";
name = public.background;
paths = (
{
closed = 1;
nodes = (
"162 0 LINE",
"162 730 LINE",
"130 730 LINE",
"130 0 LINE"
);
},
{
closed = 1;
nodes = (
"534 0 LINE",
"534 30 LINE",
"147 30 LINE",
"147 0 LINE"
);
},
{
closed = 1;
nodes = (
"495 356 LINE",
"495 386 LINE",
"147 386 LINE",
"147 356 LINE"
);
},
{
closed = 1;
nodes = (
"521 700 LINE",
"521 730 LINE",
"147 730 LINE",
"147 700 LINE"
);
}
);
width = 592;
},
{
anchors = (
{
name = bottom;
position = "{250, 0}";
},
{
name = ogonek;
position = "{483, 10}";
},
{
name = top;
position = "{362, 730}";
}
);
layerId = "670CA61E-2201-4EBA-9CF0-D57F8D98A45A";
paths = (
{
closed = 1;
nodes = (
"196 0 LINE",
"312 730 LINE",
"132 730 LINE",
"16 0 LINE"
);
},
{
closed = 1;
nodes = (
"484 0 LINE",
"508 152 LINE",
"200 152 LINE",
"176 0 LINE"
);
},
{
closed = 1;
nodes = (
"510 295 LINE",
"534 447 LINE",
"247 447 LINE",
"223 295 LINE"
);
},
{
closed = 1;
nodes = (
"570 578 LINE",
"594 730 LINE",
"292 730 LINE",
"268 578 LINE"
);
}
);
width = 592;
},
{
anchors = (
{
name = bottom;
position = "{264, 0}";
},
{
name = ogonek;
position = "{482, 10}";
},
{
name = top;
position = "{381, 730}";
}
);
layerId = "A9BE7077-88A3-49D0-803C-7BC96B0B926B";
paths = (
{
closed = 1;
nodes = (
"146 0 LINE",
"262 730 LINE",
"164 730 LINE",
"48 0 LINE"
);
},
{
closed = 1;
nodes = (
"480 0 LINE",
"494 88 LINE",
"140 88 LINE",
"126 0 LINE"
);
},
{
closed = 1;
nodes = (
"501 327 LINE",
"515 415 LINE",
"192 415 LINE",
"178 327 LINE"
);
},
{
closed = 1;
nodes = (
"572 642 LINE",
"586 730 LINE",
"242 730 LINE",
"228 642 LINE"
);
}
);
width = 600;
},
{
anchors = (
{
name = bottom;
position = "{275, 0}";
},
{
name = ogonek;
position = "{478, 10}";
},
{
name = top;
position = "{382, 730}";
}
);
layerId = "45FAA47D-3C03-4CCA-BDE3-DFC1510ED13C";
paths = (
{
closed = 1;
nodes = (
"104 0 LINE",
"220 730 LINE",
"188 730 LINE",
"72 0 LINE"
);
},
{
closed = 1;
nodes = (
"476 0 LINE",
"481 30 LINE",
"94 30 LINE",
"89 0 LINE"
);
},
{
closed = 1;
nodes = (
"494 356 LINE",
"498 386 LINE",
"150 386 LINE",
"146 356 LINE"
);
},
{
closed = 1;
nodes = (
"574 700 LINE",
"579 730 LINE",
"205 730 LINE",
"200 700 LINE"
);
}
);
width = 608;
}
);
leftKerningGroup = UC_Stem;
rightKerningGroup = UC_E;
unicode = 0045;
},
{
color = 7;
glyphname = F;
layers = (
{
layerId = "670CA61E-2201-4EBA-9CF0-D57F8D98A45A";
paths = (
{
closed = 1;
nodes = (
"202.19 0 LINE",
"317.81 730 LINE",
"131.81 730 LINE",
"16.19 0 LINE"
);
},
{
closed = 1;
nodes = (
"498.012 283 LINE",
"522.087 435 LINE",
"251.087 435 LINE",
"227.012 283 LINE"
);
},
{
closed = 1;
nodes = (
"555.736 578 LINE",
"579.81 730 LINE",
"297.81 730 LINE",
"273.736 578 LINE"
);
}
);
width = 560;
},
{
layerId = "A9BE7077-88A3-49D0-803C-7BC96B0B926B";
paths = (
{
closed = 1;
nodes = (
"146.19 0 LINE",
"261.81 730 LINE",
"163.81 730 LINE",
"48.19 0 LINE"
);
},
{
closed = 1;
nodes = (
"490.823 326 LINE",
"504.761 414 LINE",
"191.602 413 LINE",
"177.665 325 LINE"
);
},
{
closed = 1;
nodes = (
"557.872 642 LINE",
"571.81 730 LINE",
"241.81 730 LINE",
"227.872 642 LINE"
);
}
);
width = 560;
},
{
layerId = "45FAA47D-3C03-4CCA-BDE3-DFC1510ED13C";
paths = (
{
closed = 1;
nodes = (
"104.11 0 LINE",
"219.731 730 LINE",
"187.731 730 LINE",
"72.11 0 LINE"
);
},
{
closed = 1;
nodes = (
"485.446 362 LINE",
"490.197 392 LINE",
"147.039 391 LINE",
"142.129 360 LINE"
);
},
{
closed = 1;
nodes = (
"561.138 701 LINE",
"565.89 731 LINE",
"200.731 730 LINE",
"196.138 701 LINE"
);
}
);
width = 560;
},
{
layerId = "3423A7C6-8126-4A24-975D-243FD1A28608";
name = public.background;
paths = (
{
closed = 1;
nodes = (
"162 0 LINE",
"162 730 LINE",
"130 730 LINE",
"130 0 LINE"
);
},
{
closed = 1;
nodes = (
"486 362 LINE",
"486 392 LINE",
"143 391 LINE",
"143 360 LINE"
);
},
{
closed = 1;
nodes = (
"508 701 LINE",
"508 731 LINE",
"143 730 LINE",
"143 701 LINE"
);
}
);
width = 560;
}
);
leftKerningGroup = UC_Stem;
unicode = 0046;
},
{
color = 7;
glyphname = G;
layers = (
{
anchors = (
{
name = bottom;
position = "{430, 0}";
},
{
name = top;
position = "{419, 730}";
}
);
layerId = "3423A7C6-8126-4A24-975D-243FD1A28608";
name = public.background;
paths = (
{
closed = 1;
nodes = (
"562 -16 OFFCURVE",
"657 31 OFFCURVE",
"714 102 CURVE",
"714 302 LINE",
"682 302 LINE",
"682 87 LINE",
"699 132 LINE",
"646 58 OFFCURVE",
"552 14 OFFCURVE",
"435 14 CURVE SMOOTH",
"196 14 OFFCURVE",
"102 194 OFFCURVE",
"102 366 CURVE SMOOTH",
"102 551 OFFCURVE",
"211 718 OFFCURVE",
"419 718 CURVE SMOOTH",
"563 718 OFFCURVE",
"675 637 OFFCURVE",
"693 495 CURVE",
"725 495 LINE",
"706 647 OFFCURVE",
"589 748 OFFCURVE",
"419 748 CURVE SMOOTH",
"183 748 OFFCURVE",
"70 557 OFFCURVE",
"70 372 CURVE SMOOTH",
"70 360 LINE SMOOTH",
"70 188 OFFCURVE",
"168 -16 OFFCURVE",
"435 -16 CURVE SMOOTH"
);
},
{
closed = 1;
nodes = (
"785 292 LINE",
"785 320 LINE",
"407 320 LINE",
"407 292 LINE"
);
}
);
width = 833;
},
{
anchors = (
{
name = bottom;
position = "{369, 0}";
},
{
name = top;
position = "{465, 730}";
}
);
layerId = "670CA61E-2201-4EBA-9CF0-D57F8D98A45A";
paths = (
{
closed = 1;
nodes = (
"516.363 -20 OFFCURVE",
"626.24 21.6 OFFCURVE",
"716 144 CURVE",
"740 294 LINE",
"570 294 LINE",
"545 135 LINE",
"576 245 LINE",
"534.802 173.84 OFFCURVE",
"473.946 150 OFFCURVE",
"391 150 CURVE SMOOTH",
"271.189 150 OFFCURVE",
"205.033 242.217 OFFCURVE",
"224 366 CURVE SMOOTH",
"244.912 494.612 OFFCURVE",
"316.779 578 OFFCURVE",
"443 578 CURVE SMOOTH",
"529.849 578 OFFCURVE",
"594.784 541.235 OFFCURVE",
"596 461 CURVE",
"782 461 LINE",
"793.74 643.498 OFFCURVE",
"663.074 752 OFFCURVE",
"471 752 CURVE SMOOTH",
"230.655 752 OFFCURVE",
"75.935 616.075 OFFCURVE",
"38 378 CURVE SMOOTH",
"35 356 LINE SMOOTH",
"-0.213 135.594 OFFCURVE",
"138.311 -20 OFFCURVE",
"364 -20 CURVE SMOOTH"
);
},
{
closed = 1;
nodes = (
"794 258 LINE",
"815 388 LINE",
"409 388 LINE",
"388 258 LINE"
);
}
);
width = 833;
},
{
anchors = (
{
name = bottom;
position = "{375, 0}";
},
{
name = top;
position = "{470, 730}";
}
);
layerId = "A9BE7077-88A3-49D0-803C-7BC96B0B926B";
paths = (
{
closed = 1;
nodes = (
"506.07 -18 OFFCURVE",
"602.703 17.339 OFFCURVE",
"694 118 CURVE",
"722 292 LINE",
"630 292 LINE",
"595 75 LINE",
"650 194 LINE",
"581.611 101.985 OFFCURVE",
"499.027 70 OFFCURVE",
"384 70 CURVE SMOOTH",
"218.508 70 OFFCURVE",
"128.469 198.973 OFFCURVE",
"155 371 CURVE SMOOTH",
"183.342 548.138 OFFCURVE",
"286.105 660 OFFCURVE",
"461 660 CURVE SMOOTH",
"581.192 660 OFFCURVE",
"662.721 592.203 OFFCURVE",
"658 477 CURVE",
"758 477 LINE",
"769.572 646.366 OFFCURVE",
"651.611 750 OFFCURVE",
"475 750 CURVE SMOOTH",
"241.883 750 OFFCURVE",
"94.2 614.881 OFFCURVE",
"57 383 CURVE SMOOTH",
"54 361 LINE SMOOTH",
"18.845 141.029 OFFCURVE",
"149.407 -18 OFFCURVE",
"370 -18 CURVE SMOOTH"
);
},
{
closed = 1;
nodes = (
"781 272 LINE",
"794 354 LINE",
"403 354 LINE",
"390 272 LINE"
);
}
);
width = 831;
},
{
anchors = (
{
name = bottom;
position = "{371, 0}";
},
{
name = top;
position = "{475, 730}";
}
);
layerId = "45FAA47D-3C03-4CCA-BDE3-DFC1510ED13C";
paths = (
{
closed = 1;
nodes = (
"496.781 -16 OFFCURVE",
"585.502 12.731 OFFCURVE",
"671 102 CURVE",
"703 302 LINE",
"671 302 LINE",
"637 87 LINE",
"661 132 LINE",
"582.634 42.784 OFFCURVE",
"497.001 14 OFFCURVE",
"378 14 CURVE SMOOTH",
"179.96 14 OFFCURVE",
"68.101 163.907 OFFCURVE",
"101 366 CURVE SMOOTH",
"134.821 581.753 OFFCURVE",
"260.056 718 OFFCURVE",
"473 718 CURVE SMOOTH",
"618.639 718 OFFCURVE",
"716.936 635.183 OFFCURVE",
"712 495 CURVE",
"744 495 LINE",
"749.196 652.963 OFFCURVE",
"640.832 748 OFFCURVE",
"478 748 CURVE SMOOTH",
"246.591 748 OFFCURVE",
"106.513 604.93 OFFCURVE",
"70 372 CURVE SMOOTH",
"68 360 LINE SMOOTH",
"33.907 142.815 OFFCURVE",
"158.09 -16 OFFCURVE",
"373 -16 CURVE SMOOTH"
);
},
{
closed = 1;
nodes = (
"772 292 LINE",
"776 320 LINE",
"398 320 LINE",
"394 292 LINE"
);
}
);
width = 831;
}
);
leftKerningGroup = UC_Round;
rightKerningGroup = UC_G;
unicode = 0047;
},
{
color = 7;
glyphname = H;
layers = (
{
anchors = (
{
name = bottom;
position = "{405, 0}";
},
{
name = center;
position = "{405, 606}";
},
{
name = top;
position = "{405, 730}";
}
);
layerId = "3423A7C6-8126-4A24-975D-243FD1A28608";
name = public.background;
paths = (
{
closed = 1;
nodes = (
"680 0 LINE",
"680 730 LINE",
"648 730 LINE",
"648 0 LINE"
);
},
{
closed = 1;
nodes = (
"162 0 LINE",
"162 730 LINE",
"130 730 LINE",
"130 0 LINE"
);
},
{
closed = 1;
nodes = (
"660 345 LINE",
"660 375 LINE",
"150 375 LINE",
"150 345 LINE"
);
}
);
width = 798;
},
{
anchors = (
{
name = bottom;
position = "{341, 0}";
},
{
name = center;
position = "{437, 606}";
},
{
name = top;
position = "{457, 730}";
}
);
layerId = "670CA61E-2201-4EBA-9CF0-D57F8D98A45A";
paths = (
{
closed = 1;
nodes = (
"666 0 LINE",
"782 730 LINE",
"596 730 LINE",
"480 0 LINE"
);
},
{
closed = 1;
nodes = (
"202 0 LINE",
"318 730 LINE",
"132 730 LINE",
"16 0 LINE"
);
},
{
closed = 1;
nodes = (
"558 287 LINE",
"583 449 LINE",
"241 449 LINE",
"216 287 LINE"
);
}
);
width = 798;
},
{
anchors = (
{
name = bottom;
position = "{344, 0}";
},
{
name = center;
position = "{440, 606}";
},
{
name = top;
position = "{460, 730}";
}
);
layerId = "A9BE7077-88A3-49D0-803C-7BC96B0B926B";
paths = (
{
closed = 1;
nodes = (
"640 0 LINE",
"756 730 LINE",
"658 730 LINE",
"542 0 LINE"
);
},
{
closed = 1;
nodes = (
"146 0 LINE",
"262 730 LINE",
"164 730 LINE",
"48 0 LINE"
);
},
{
closed = 1;
nodes = (
"613 319 LINE",
"627 407 LINE",
"191 407 LINE",
"177 319 LINE"
);
}
);
width = 804;
},
{
anchors = (
{
name = bottom;
position = "{347, 0}";
},
{
name = center;
position = "{443, 606}";
},
{
name = top;
position = "{463, 730}";
}
);
layerId = "45FAA47D-3C03-4CCA-BDE3-DFC1510ED13C";
paths = (
{
closed = 1;
nodes = (
"622 0 LINE",
"738 730 LINE",
"706 730 LINE",
"590 0 LINE"
);
},
{
closed = 1;
nodes = (
"104 0 LINE",
"220 730 LINE",
"188 730 LINE",
"72 0 LINE"
);
},
{
closed = 1;
nodes = (
"657 345 LINE",
"662 375 LINE",
"152 375 LINE",
"147 345 LINE"
);
}
);
width = 810;
}
);
leftKerningGroup = UC_Stem;
rightKerningGroup = UC_Stem;
unicode = 0048;
},
{
color = 6;
glyphname = Hbar;
layers = (
{
layerId = "3423A7C6-8126-4A24-975D-243FD1A28608";
name = public.background;
paths = (
{
closed = 1;
nodes = (
"752 592 LINE",
"752 620 LINE",
"58 620 LINE",
"58 592 LINE"
);
}
);
width = 798;
},
{
components = (
{
name = H;
alignment = -1;
}
);
layerId = "670CA61E-2201-4EBA-9CF0-D57F8D98A45A";
paths = (
{
closed = 1;
nodes = (
"800 533 LINE",
"819 657 LINE",
"71 657 LINE",
"52 533 LINE"
);
}
);
width = 798;
},
{
components = (
{
name = H;
alignment = -1;
}
);
layerId = "A9BE7077-88A3-49D0-803C-7BC96B0B926B";
paths = (
{
closed = 1;
nodes = (
"792 556 LINE",
"805 636 LINE",
"85 636 LINE",
"72 556 LINE"
);
}
);
width = 804;
},
{
components = (
{
name = H;
alignment = -1;
}
);
layerId = "45FAA47D-3C03-4CCA-BDE3-DFC1510ED13C";
paths = (
{
closed = 1;
nodes = (
"788 592 LINE",
"792 620 LINE",
"98 620 LINE",
"94 592 LINE"
);
}
);
width = 810;
}
);
leftKerningGroup = UC_Stem;
rightKerningGroup = UC_Stem;
unicode = 0126;
},
{
color = 7;
glyphname = I;
layers = (
{
anchors = (
{
name = bottom;
position = "{148, 0}";
},
{
name = ogonek;
position = "{164, 10}";
},
{
name = top;
position = "{148, 730}";
},
{
name = topleft;
position = "{46, 730}";
}
);
layerId = "3423A7C6-8126-4A24-975D-243FD1A28608";
name = public.background;
paths = (
{
closed = 1;
nodes = (
"164 0 LINE",
"164 730 LINE",
"132 730 LINE",
"132 0 LINE"
);
}
);
width = 284;
},
{
anchors = (
{
name = bottom;
position = "{111, 0}";
},
{
name = ogonek;
position = "{193, 10}";
},
{
name = top;
position = "{227, 730}";
},
{
name = topleft;
position = "{47, 730}";
}
);
layerId = "670CA61E-2201-4EBA-9CF0-D57F8D98A45A";
paths = (
{
closed = 1;
nodes = (
"204 0 LINE",
"320 730 LINE",
"134 730 LINE",
"18 0 LINE"
);
}
);
width = 338;
},
{
anchors = (
{
name = bottom;
position = "{99, 0}";
},
{
name = ogonek;
position = "{148, 10}";
},
{
name = top;
position = "{215, 730}";
},
{
name = topleft;
position = "{79, 730}";
}
);
layerId = "A9BE7077-88A3-49D0-803C-7BC96B0B926B";
paths = (
{
closed = 1;
nodes = (
"148 0 LINE",
"264 730 LINE",
"166 730 LINE",
"50 0 LINE"
);
}
);
width = 314;
},
{
anchors = (
{
name = bottom;
position = "{90, 0}";
},
{
name = ogonek;
position = "{108, 10}";
},
{
name = top;
position = "{206, 730}";
},
{
name = topleft;
position = "{104, 730}";
}
);
layerId = "45FAA47D-3C03-4CCA-BDE3-DFC1510ED13C";
paths = (
{
closed = 1;
nodes = (
"106 0 LINE",
"222 730 LINE",
"190 730 LINE",
"74 0 LINE"
);
}
);
width = 296;
}
);
unicode = 0049;
},
{
color = 7;
glyphname = J;
layers = (
{
anchors = (
{
name = bottom;
position = "{281, 0}";
},
{
name = top;
position = "{333, 730}";
}
);
layerId = "3423A7C6-8126-4A24-975D-243FD1A28608";
name = public.background;
paths = (
{
closed = 1;
nodes = (
"430 -16 OFFCURVE",
"516 77 OFFCURVE",
"516 221 CURVE SMOOTH",
"516 718 LINE",
"484 718 LINE",
"484 217 LINE SMOOTH",
"484 91 OFFCURVE",
"412 14 OFFCURVE",
"281 14 CURVE SMOOTH",
"150 14 OFFCURVE",
"78 91 OFFCURVE",
"78 217 CURVE SMOOTH",
"78 249 LINE",
"46 249 LINE",
"46 221 LINE SMOOTH",
"46 77 OFFCURVE",
"132 -16 OFFCURVE",
"281 -16 CURVE SMOOTH"
);
},
{
closed = 1;
nodes = (
"516 700 LINE",
"516 730 LINE",
"145 730 LINE",
"145 700 LINE"
);
}
);
width = 622;
},
{
anchors = (
{
name = bottom;
position = "{267, 0}";
},
{
name = top;
position = "{406, 730}";
}
);
layerId = "670CA61E-2201-4EBA-9CF0-D57F8D98A45A";
paths = (
{
closed = 1;
nodes = (
"421.929 -20 OFFCURVE",
"536.742 77.356 OFFCURVE",
"564 251 CURVE SMOOTH",
"617 588 LINE",
"431 588 LINE",
"377 245 LINE SMOOTH",
"367.416 187.497 OFFCURVE",
"330.834 154 OFFCURVE",
"273 154 CURVE SMOOTH",
"219.821 154 OFFCURVE",
"188.203 192.218 OFFCURVE",
"197 245 CURVE SMOOTH",
"204 291 LINE",
"20 291 LINE",
"14 251 LINE SMOOTH",
"-10.832 92.814 OFFCURVE",
"85.81 -20 OFFCURVE",
"246 -20 CURVE SMOOTH"
);
},
{
closed = 1;
nodes = (
"614 568 LINE",
"640 730 LINE",
"172 730 LINE",
"146 568 LINE"
);
}
);
width = 644;
},
{
anchors = (
{
name = bottom;
position = "{265, 0}";
},
{
name = top;
position = "{398, 730}";
}
);
layerId = "A9BE7077-88A3-49D0-803C-7BC96B0B926B";
paths = (
{
closed = 1;
nodes = (
"397.645 -18 OFFCURVE",
"501.435 81.354 OFFCURVE",
"527 248 CURVE SMOOTH",
"593 662 LINE",
"495 662 LINE",
"427 230 LINE SMOOTH",
"410.985 129.908 OFFCURVE",
"346.774 72 OFFCURVE",
"246 72 CURVE SMOOTH",
"154.351 72 OFFCURVE",
"100.344 138.398 OFFCURVE",
"115 230 CURVE SMOOTH",
"121 273 LINE",
"23 273 LINE",
"19 248 LINE SMOOTH",
"-4.506 94.773 OFFCURVE",
"80.791 -18 OFFCURVE",
"231 -18 CURVE SMOOTH"
);
},
{
closed = 1;
nodes = (
"590 642 LINE",
"604 730 LINE",
"192 730 LINE",
"178 642 LINE"
);
}
);
width = 640;
},
{
anchors = (
{
name = bottom;
position = "{223, 0}";
},
{
name = top;
position = "{391, 730}";
}
);
layerId = "45FAA47D-3C03-4CCA-BDE3-DFC1510ED13C";
paths = (
{
closed = 1;
nodes = (
"372.366 -16 OFFCURVE",
"468.999 70.731 OFFCURVE",
"493 221 CURVE SMOOTH",
"572 718 LINE",
"540 718 LINE",
"461 217 LINE SMOOTH",
"440.448 87.52 OFFCURVE",
"355.857 14 OFFCURVE",
"225 14 CURVE SMOOTH",
"106.577 14 OFFCURVE",
"36.279 99.06 OFFCURVE",
"55 217 CURVE SMOOTH",
"60 249 LINE",
"28 249 LINE",
"23 221 LINE SMOOTH",
"1.021 83.39 OFFCURVE",
"82.889 -16 OFFCURVE",
"221 -16 CURVE SMOOTH"
);
},
{
closed = 1;
nodes = (
"569 700 LINE",
"574 730 LINE",
"203 730 LINE",
"198 700 LINE"
);
}
);
width = 634;
}
);
leftKerningGroup = UC_J;
rightKerningGroup = UC_J;
unicode = 004A;
},
{
color = 7;
glyphname = K;
layers = (
{
anchors = (
{
name = bottom;
position = "{356, 0}";
},
{
name = top;
position = "{323, 730}";
}
);
layerId = "3423A7C6-8126-4A24-975D-243FD1A28608";
name = public.background;
paths = (
{
closed = 1;
nodes = (
"629 0 LINE",
"216 403 LINE",
"217 374 LINE",
"549 730 LINE",
"510 730 LINE",
"158 352 LINE",
"226 352 LINE",
"586 0 LINE"
);
},
{
closed = 1;
nodes = (
"162 0 LINE",
"162 730 LINE",
"130 730 LINE",
"130 0 LINE"
);
}
);
width = 777;
},
{
anchors = (
{
name = bottom;
position = "{347, 0}";
},
{
name = top;
position = "{447, 730}";
}
);
layerId = "670CA61E-2201-4EBA-9CF0-D57F8D98A45A";
paths = (
{
closed = 1;
nodes = (
"726 0 LINE",
"483 453 LINE",
"472 382 LINE",
"791 730 LINE",
"577 730 LINE",
"220 341 LINE",
"319 341 LINE",
"502 0 LINE"
);
},
{
closed = 1;
nodes = (
"202 0 LINE",
"318 730 LINE",
"132 730 LINE",
"16 0 LINE"
);
}
);
width = 777;
},
{
anchors = (
{
name = bottom;
position = "{321, 0}";
},
{
name = top;
position = "{409, 730}";
}
);
layerId = "A9BE7077-88A3-49D0-803C-7BC96B0B926B";
paths = (
{
closed = 1;
nodes = (
"630 0 LINE",
"309 447 LINE",
"307 378 LINE",
"671 730 LINE",
"559 730 LINE",
"158 341 LINE",
"265 341 LINE",
"508 0 LINE"
);
},
{
closed = 1;
nodes = (
"146 0 LINE",
"262 730 LINE",
"164 730 LINE",
"48 0 LINE"
);
}
);
width = 678;
},
{
anchors = (
{
name = bottom;
position = "{298, 0}";
},
{
name = top;
position = "{381, 730}";
}
);
layerId = "45FAA47D-3C03-4CCA-BDE3-DFC1510ED13C";
paths = (
{
closed = 1;
nodes = (
"571 0 LINE",
"222 403 LINE",
"218 374 LINE",
"607 730 LINE",
"568 730 LINE",
"156 352 LINE",
"224 352 LINE",
"528 0 LINE"
);
},
{
closed = 1;
nodes = (
"104 0 LINE",
"220 730 LINE",
"188 730 LINE",
"72 0 LINE"
);
}
);
width = 617;
}
);
leftKerningGroup = UC_Stem;
rightKerningGroup = UC_K;
unicode = 004B;
},
{
color = 7;
glyphname = L;
layers = (
{
anchors = (
{
name = bottom;
position = "{324, -1}";
},
{
name = center;
position = "{147, 365}";
},
{
name = top;
position = "{146, 730}";
},
{
name = topright;
position = "{244, 541}";
}
);
layerId = "3423A7C6-8126-4A24-975D-243FD1A28608";
name = public.background;
paths = (
{
closed = 1;
nodes = (
"162 0 LINE",
"162 730 LINE",
"130 730 LINE",
"130 0 LINE"
);
},
{
closed = 1;
nodes = (
"504 0 LINE",
"504 30 LINE",
"143 30 LINE",
"143 0 LINE"
);
}
);
width = 562;
},
{
anchors = (
{
name = bottom;
position = "{247, 0}";
},
{
name = center;
position = "{167, 365}";
},
{
name = top;
position = "{225, 730}";
},
{
name = topright;
position = "{306, 541}";
}
);
layerId = "670CA61E-2201-4EBA-9CF0-D57F8D98A45A";
paths = (
{
closed = 1;
nodes = (
"202 0 LINE",
"318 730 LINE",
"132 730 LINE",
"16 0 LINE"
);
},
{
closed = 1;
nodes = (
"478 0 LINE",
"504 162 LINE",
"208 162 LINE",
"182 0 LINE"
);
}
);
width = 562;
},
{
anchors = (
{
name = bottom;
position = "{254, 0}";
},
{
name = center;
position = "{155, 365}";
},
{
name = top;
position = "{213, 730}";
},
{
name = topright;
position = "{298, 541}";
}
);
layerId = "A9BE7077-88A3-49D0-803C-7BC96B0B926B";
paths = (
{
closed = 1;
nodes = (
"146 0 LINE",
"262 730 LINE",
"164 730 LINE",
"48 0 LINE"
);
},
{
closed = 1;
nodes = (
"460 0 LINE",
"474 88 LINE",
"140 88 LINE",
"126 0 LINE"
);
}
);
width = 544;
},
{
anchors = (
{
name = bottom;
position = "{266, -1}";
},
{
name = center;
position = "{147, 365}";
},
{
name = top;
position = "{204, 730}";
},
{
name = topright;
position = "{272, 541}";
}
);
layerId = "45FAA47D-3C03-4CCA-BDE3-DFC1510ED13C";
paths = (
{
closed = 1;
nodes = (
"104 0 LINE",
"220 730 LINE",
"188 730 LINE",
"72 0 LINE"
);
},
{
closed = 1;
nodes = (
"446 0 LINE",
"451 30 LINE",
"90 30 LINE",
"85 0 LINE"
);
}
);
width = 530;
}
);
leftKerningGroup = UC_Stem;
rightKerningGroup = UC_L;
unicode = 004C;
},
{
color = 7;
glyphname = Lslash;
layers = (
{
layerId = "3423A7C6-8126-4A24-975D-243FD1A28608";
name = public.background;
paths = (
{
closed = 1;
nodes = (
"355 434 LINE",
"355 464 LINE",
"156 348 LINE",
"156 318 LINE"
);
},
{
closed = 1;
nodes = (
"137 307 LINE",
"137 337 LINE",
"40 280 LINE",
"40 250 LINE"
);
}
);
width = 562;
},
{
components = (
{
name = L;
alignment = -1;
}
);
guideLines = (
{
angle = 209.89;
position = "{87, 257}";
}
);
layerId = "670CA61E-2201-4EBA-9CF0-D57F8D98A45A";
paths = (
{
closed = 1;
nodes = (
"404 410 LINE",
"427 556 LINE",
"176 423 LINE",
"153 277 LINE"
);
},
{
closed = 1;
nodes = (
"121 264 LINE",
"144 410 LINE",
"14 341 LINE",
"-9 195 LINE"
);
}
);
width = 562;
},
{
components = (
{
name = L;
alignment = -1;
}
);
guideLines = (
{
angle = 209.89;
position = "{87, 257}";
}
);
layerId = "A9BE7077-88A3-49D0-803C-7BC96B0B926B";
paths = (
{
closed = 1;
nodes = (
"388 420 LINE",
"401 504 LINE",
"170 381 LINE",
"156 297 LINE"
);
},
{
closed = 1;
nodes = (
"124 284 LINE",
"137 368 LINE",
"21 306 LINE",
"7 222 LINE"
);
}
);
width = 544;
},
{
components = (
{
name = L;
alignment = -1;
}
);
layerId = "45FAA47D-3C03-4CCA-BDE3-DFC1510ED13C";
paths = (
{
closed = 1;
nodes = (
"366 434 LINE",
"371 464 LINE",
"153 348 LINE",
"149 318 LINE"
);
},
{
closed = 1;
nodes = (
"128 307 LINE",
"133 337 LINE",
"27 280 LINE",
"22 250 LINE"
);
}
);
width = 530;
}
);
leftKerningGroup = UC_Eth;
rightKerningGroup = UC_L;
unicode = 0141;
},
{
color = 7;
glyphname = M;
layers = (
{
guideLines = (
{
position = "{0, 536}";
}
);
layerId = "670CA61E-2201-4EBA-9CF0-D57F8D98A45A";
paths = (
{
closed = 1;
nodes = (
"186.19 0 LINE",
"284.863 623 LINE",
"253.546 621 LINE",
"367.472 147 LINE",
"536.472 147 LINE",
"799.546 621 LINE",
"770.863 623 LINE",
"672.19 0 LINE",
"856.19 0 LINE",
"971.81 730 LINE",
"708.81 730 LINE",
"498.832 345 LINE",
"478.832 345 LINE",
"389.81 730 LINE",
"131.81 730 LINE",
"16.19 0 LINE"
);
}
);
width = 988;
},
{
guideLines = (
{
position = "{0, 587}";
}
);
layerId = "A9BE7077-88A3-49D0-803C-7BC96B0B926B";
paths = (
{
closed = 1;
nodes = (
"138.19 0 LINE",
"236.863 623 LINE",
"228.546 621 LINE",
"362.106 151 LINE",
"482.106 151 LINE",
"763.546 621 LINE",
"756.863 623 LINE",
"658.19 0 LINE",
"756.19 0 LINE",
"871.81 730 LINE",
"740.81 730 LINE",
"448.677 243 LINE",
"432.677 243 LINE",
"293.81 730 LINE",
"163.81 730 LINE",
"48.19 0 LINE"
);
}
);
width = 920;
},
{
layerId = "45FAA47D-3C03-4CCA-BDE3-DFC1510ED13C";
paths = (
{
closed = 1;
nodes = (
"102.19 0 LINE",
"211.475 690 LINE",
"204.475 690 LINE",
"373.531 160 LINE",
"431.531 160 LINE",
"768.475 690 LINE",
"763.475 690 LINE",
"654.19 0 LINE",
"686.19 0 LINE",
"801.81 730 LINE",
"761.81 730 LINE",
"418.124 189 LINE",
"396.124 189 LINE",
"223.81 730 LINE",
"187.81 730 LINE",
"72.19 0 LINE"
);
}
);
width = 874;
},
{
layerId = "3423A7C6-8126-4A24-975D-243FD1A28608";
name = public.background;
paths = (
{
closed = 1;
nodes = (
"160 0 LINE",
"160 690 LINE",
"153 690 LINE",
"406 160 LINE",
"464 160 LINE",
"717 690 LINE",
"712 690 LINE",
"712 0 LINE",
"744 0 LINE",
"744 730 LINE",
"704 730 LINE",
"446 189 LINE",
"424 189 LINE",
"166 730 LINE",
"130 730 LINE",
"130 0 LINE"
);
}
);
width = 988;
}
);
leftKerningGroup = UC_Stem;
rightKerningGroup = UC_Stem;
unicode = 004D;
},
{
color = 7;
glyphname = N;
layers = (
{
anchors = (
{
name = bottom;
position = "{389, 0}";
},
{
name = top;
position = "{428, 730}";
}
);
layerId = "3423A7C6-8126-4A24-975D-243FD1A28608";
name = public.background;
paths = (
{
closed = 1;
nodes = (
"162 0 LINE",
"162 712 LINE",
"142 700 LINE",
"174 700 LINE",
"631 0 LINE",
"692 0 LINE",
"692 730 LINE",
"660 730 LINE",
"660 18 LINE",
"680 30 LINE",
"648 30 LINE",
"191 730 LINE",
"130 730 LINE",
"130 0 LINE"
);
}
);
width = 810;
},
{
anchors = (
{
name = bottom;
position = "{380, 0}";
},
{
name = top;
position = "{511, 730}";
}
);
layerId = "670CA61E-2201-4EBA-9CF0-D57F8D98A45A";
paths = (
{
closed = 1;
nodes = (
"188 0 LINE",
"283 600 LINE",
"260 582 LINE",
"295 582 LINE",
"446 0 LINE",
"753 0 LINE",
"869 730 LINE",
"695 730 LINE",
"600 130 LINE",
"623 148 LINE",
"588 148 LINE",
"437 730 LINE",
"132 730 LINE",
"16 0 LINE"
);
}
);
width = 885;
},
{
anchors = (
{
name = bottom;
position = "{354, 0}";
},
{
name = top;
position = "{501, 730}";
}
);
layerId = "A9BE7077-88A3-49D0-803C-7BC96B0B926B";
paths = (
{
closed = 1;
nodes = (
"140 0 LINE",
"245 660 LINE",
"222 642 LINE",
"254 642 LINE",
"523 0 LINE",
"685 0 LINE",
"801 730 LINE",
"707 730 LINE",
"602 70 LINE",
"625 88 LINE",
"593 88 LINE",
"324 730 LINE",
"164 730 LINE",
"48 0 LINE"
);
}
);
width = 849;
},
{
anchors = (
{
name = bottom;
position = "{331, 0}";
},
{
name = top;
position = "{486, 730}";
}
);
layerId = "45FAA47D-3C03-4CCA-BDE3-DFC1510ED13C";
paths = (
{
closed = 1;
nodes = (
"104 0 LINE",
"217 712 LINE",
"195 700 LINE",
"227 700 LINE",
"573 0 LINE",
"634 0 LINE",
"750 730 LINE",
"718 730 LINE",
"605 18 LINE",
"627 30 LINE",
"595 30 LINE",
"249 730 LINE",
"188 730 LINE",
"72 0 LINE"
);
}
);
width = 822;
}
);
leftKerningGroup = UC_Stem;
rightKerningGroup = UC_Stem;
unicode = 004E;
},
{
color = 7;
glyphname = Eng;
layers = (
{
layerId = "670CA61E-2201-4EBA-9CF0-D57F8D98A45A";
paths = (
{
closed = 1;
nodes = (
"455.385 -245 LINE SMOOTH",
"647.385 -245 OFFCURVE",
"728.957 -153 OFFCURVE",
"753.982 5 CURVE SMOOTH",
"868.81 730 LINE",
"694.81 730 LINE",
"602.947 150 LINE",
"625.798 168 LINE",
"582.798 168 LINE",
"436.81 730 LINE",
"131.81 730 LINE",
"16.19 0 LINE",
"188.19 0 LINE",
"283.22 600 LINE",
"260.369 582 LINE",
"295.369 582 LINE",
"441.357 20 LINE",
"613.357 20 LINE",
"590.792 48 LINE",
"583.19 0 LINE SMOOTH",
"572.578 -67 OFFCURVE",
"537.885 -84 OFFCURVE",
"490.885 -84 CURVE SMOOTH",
"376.885 -84 LINE",
"351.385 -245 LINE"
);
}
);
width = 885;
},
{
layerId = "A9BE7077-88A3-49D0-803C-7BC96B0B926B";
paths = (
{
closed = 1;
nodes = (
"433.712 -224 LINE SMOOTH",
"576.712 -224 OFFCURVE",
"661.274 -151 OFFCURVE",
"684.239 -6 CURVE SMOOTH",
"800.81 730 LINE",
"706.81 730 LINE",
"602.277 70 LINE",
"625.128 88 LINE",
"593.128 88 LINE",
"323.81 730 LINE",
"163.81 730 LINE",
"48.19 0 LINE",
"140.19 0 LINE",
"244.723 660 LINE",
"221.872 642 LINE",
"253.872 642 LINE",
"519.615 9 LINE",
"629.615 9 LINE",
"596.575 34 LINE",
"587.864 -21 LINE SMOOTH",
"575.985 -96 OFFCURVE",
"535.333 -138 OFFCURVE",
"461.333 -138 CURVE SMOOTH",
"350.333 -138 LINE",
"336.712 -224 LINE"
);
}
);
width = 849;
},
{
layerId = "45FAA47D-3C03-4CCA-BDE3-DFC1510ED13C";
paths = (
{
closed = 1;
nodes = (
"434.246 -208 LINE SMOOTH",
"543.246 -208 OFFCURVE",
"609.957 -153 OFFCURVE",
"631.339 -18 CURVE SMOOTH",
"749.81 730 LINE",
"717.81 730 LINE",
"605.041 18 LINE",
"626.941 30 LINE",
"594.941 30 LINE",
"248.81 730 LINE",
"187.81 730 LINE",
"72.19 0 LINE",
"104.19 0 LINE",
"216.959 712 LINE",
"195.059 700 LINE",
"227.059 700 LINE",
"573.19 0 LINE",
"614.19 0 LINE",
"603.298 7 LINE",
"598.072 -26 LINE SMOOTH",
"582.075 -127 OFFCURVE",
"532.997 -178 OFFCURVE",
"438.997 -178 CURVE SMOOTH",
"326.997 -178 LINE",
"322.246 -208 LINE"
);
}
);
width = 822;
},
{
layerId = "3423A7C6-8126-4A24-975D-243FD1A28608";
name = public.background;
paths = (
{
closed = 1;
nodes = (
"525 -208 LINE SMOOTH",
"634 -208 OFFCURVE",
"692 -153 OFFCURVE",
"692 -18 CURVE SMOOTH",
"692 730 LINE",
"660 730 LINE",
"660 18 LINE",
"680 30 LINE",
"648 30 LINE",
"191 730 LINE",
"130 730 LINE",
"130 0 LINE",
"162 0 LINE",
"162 712 LINE",
"142 700 LINE",
"174 700 LINE",
"631 0 LINE",
"672 0 LINE",
"660 7 LINE",
"660 -26 LINE SMOOTH",
"660 -127 OFFCURVE",
"619 -178 OFFCURVE",
"525 -178 CURVE SMOOTH",
"413 -178 LINE",
"413 -208 LINE"
);
}
);
width = 885;
}
);
leftKerningGroup = UC_Stem;
unicode = 014A;
},
{
color = 7;
glyphname = O;
layers = (
{
anchors = (
{
name = bottom;
position = "{437, 0}";
},
{
name = center;
position = "{437, 365}";
},
{
name = ogonek;
position = "{567, 10}";
},
{
name = top;
position = "{437, 730}";
}
);
layerId = "3423A7C6-8126-4A24-975D-243FD1A28608";
name = public.background;
paths = (
{
closed = 1;
nodes = (
"674 -16 OFFCURVE",
"802 177 OFFCURVE",
"802 360 CURVE SMOOTH",
"802 373 LINE SMOOTH",
"802 561 OFFCURVE",
"666 748 OFFCURVE",
"437 748 CURVE SMOOTH",
"208 748 OFFCURVE",
"70 561 OFFCURVE",
"70 373 CURVE SMOOTH",
"70 361 LINE SMOOTH",
"70 177 OFFCURVE",
"200 -16 OFFCURVE",
"437 -16 CURVE SMOOTH"
);
},
{
closed = 1;
nodes = (
"221 14 OFFCURVE",
"102 189 OFFCURVE",
"102 366 CURVE SMOOTH",
"102 549 OFFCURVE",
"228 718 OFFCURVE",
"437 718 CURVE SMOOTH",
"646 718 OFFCURVE",
"770 549 OFFCURVE",
"770 366 CURVE SMOOTH",
"770 189 OFFCURVE",
"652 14 OFFCURVE",
"437 14 CURVE SMOOTH"
);
}
);
width = 864;
},
{
anchors = (
{
name = bottom;
position = "{372, 0}";
},
{
name = center;
position = "{428, 352}";
},
{
name = ogonek;
position = "{504, 10}";
},
{
name = top;
position = "{488, 730}";
}
);
layerId = "670CA61E-2201-4EBA-9CF0-D57F8D98A45A";
paths = (
{
closed = 1;
nodes = (
"618.143 -20 OFFCURVE",
"784.76 111.853 OFFCURVE",
"823 356 CURVE SMOOTH",
"826 378 LINE SMOOTH",
"860.907 598.276 OFFCURVE",
"719.385 752 OFFCURVE",
"492 752 CURVE SMOOTH",
"243.371 752 OFFCURVE",
"76.567 621.37 OFFCURVE",
"38 378 CURVE SMOOTH",
"35 356 LINE SMOOTH",
"0.347 134.752 OFFCURVE",
"141.391 -20 OFFCURVE",
"369 -20 CURVE SMOOTH"
);
},
{
closed = 1;
nodes = (
"275.315 154 OFFCURVE",
"204.593 243.431 OFFCURVE",
"224 366 CURVE SMOOTH",
"246.066 499.448 OFFCURVE",
"330.088 578 OFFCURVE",
"464 578 CURVE SMOOTH",
"585.616 578 OFFCURVE",
"656.227 488.324 OFFCURVE",
"636 366 CURVE SMOOTH",
"614.876 232.586 OFFCURVE",
"530.802 154 OFFCURVE",
"397 154 CURVE SMOOTH"
);
}
);
width = 864;
},
{
anchors = (
{
name = bottom;
position = "{374, 0}";
},
{
name = center;
position = "{431, 365}";
},
{
name = ogonek;
position = "{505, 10}";
},
{
name = top;
position = "{489, 730}";
}
);
layerId = "A9BE7077-88A3-49D0-803C-7BC96B0B926B";
paths = (
{
closed = 1;
nodes = (
"612.734 -18 OFFCURVE",
"769.661 117.03 OFFCURVE",
"807 356 CURVE SMOOTH",
"810 378 LINE SMOOTH",
"844.912 594.952 OFFCURVE",
"712.067 750 OFFCURVE",
"492 750 CURVE SMOOTH",
"250.993 750 OFFCURVE",
"94.304 616.034 OFFCURVE",
"56 378 CURVE SMOOTH",
"53 356 LINE SMOOTH",
"18.934 137.975 OFFCURVE",
"150.955 -18 OFFCURVE",
"371 -18 CURVE SMOOTH"
);
},
{
closed = 1;
nodes = (
"220.196 72 OFFCURVE",
"127.624 197.363 OFFCURVE",
"155 366 CURVE SMOOTH",
"183.266 549.166 OFFCURVE",
"295.438 660 OFFCURVE",
"478 660 CURVE SMOOTH",
"642.687 660 OFFCURVE",
"735.068 534.919 OFFCURVE",
"709 366 CURVE SMOOTH",
"679.28 182.925 OFFCURVE",
"567.527 72 OFFCURVE",
"385 72 CURVE SMOOTH"
);
}
);
width = 865;
},
{
anchors = (
{
name = bottom;
position = "{378, 0}";
},
{
name = center;
position = "{436, 365}";
},
{
name = ogonek;
position = "{509, 10}";
},
{
name = top;
position = "{493, 730}";
}
);
layerId = "45FAA47D-3C03-4CCA-BDE3-DFC1510ED13C";
paths = (
{
closed = 1;
nodes = (
"612.725 -16 OFFCURVE",
"762.461 123.118 OFFCURVE",
"800 360 CURVE SMOOTH",
"802 373 LINE SMOOTH",
"836.591 589.771 OFFCURVE",
"711.352 748 OFFCURVE",
"496 748 CURVE SMOOTH",
"258.168 748 OFFCURVE",
"107.773 609.71 OFFCURVE",
"70 373 CURVE SMOOTH",
"68 361 LINE SMOOTH",
"33.657 143.1 OFFCURVE",
"158.951 -16 OFFCURVE",
"375 -16 CURVE SMOOTH"
);
},
{
closed = 1;
nodes = (
"181.489 14 OFFCURVE",
"68.973 163.544 OFFCURVE",
"101 366 CURVE SMOOTH",
"135.844 585.877 OFFCURVE",
"271.442 718 OFFCURVE",
"491 718 CURVE SMOOTH",
"689.111 718 OFFCURVE",
"801.062 568.324 OFFCURVE",
"769 366 CURVE SMOOTH",
"734.253 146.347 OFFCURVE",
"599.198 14 OFFCURVE",
"380 14 CURVE SMOOTH"
);
}
);
width = 872;
}
);
leftKerningGroup = UC_Round;
rightKerningGroup = UC_Round;
unicode = 004F;
},
{
color = 6;
glyphname = Oslash;
layers = (
{
layerId = "3423A7C6-8126-4A24-975D-243FD1A28608";
name = public.background;
paths = (
{
closed = 1;
nodes = (
"106 -32 LINE",
"668 764 LINE",
"632 764 LINE",
"70 -32 LINE"
);
}
);
width = 730;
},
{
components = (
{
name = O;
transform = "{1, 0, 0, 1, 26, 0}";
alignment = -1;
}
);
layerId = "670CA61E-2201-4EBA-9CF0-D57F8D98A45A";
paths = (
{
closed = 1;
nodes = (
"166 -70 LINE",
"874 790 LINE",
"738 790 LINE",
"30 -70 LINE"
);
}
);
width = 907;
},
{
components = (
{
name = O;
transform = "{1, 0, 0, 1, 20, 0}";
alignment = -1;
}
);
layerId = "A9BE7077-88A3-49D0-803C-7BC96B0B926B";
paths = (
{
closed = 1;
nodes = (
"145 -52 LINE",
"848 772 LINE",
"752 772 LINE",
"49 -52 LINE"
);
}
);
width = 898;
},
{
components = (
{
name = O;
alignment = -1;
}
);
layerId = "45FAA47D-3C03-4CCA-BDE3-DFC1510ED13C";
paths = (
{
closed = 1;
nodes = (
"107 -32 LINE",
"796 764 LINE",
"760 764 LINE",
"71 -32 LINE"
);
}
);
width = 872;
}
);
leftKerningGroup = UC_Round;
rightKerningGroup = UC_Round;
unicode = 00D8;
},
{
color = 7;
glyphname = OE;
layers = (
{
layerId = "670CA61E-2201-4EBA-9CF0-D57F8D98A45A";
paths = (
{
closed = 1;
nodes = (
"425.963 -22 OFFCURVE",
"470.23 -14 OFFCURVE",
"507.447 0 CURVE",
"643.447 0 LINE",
"759.068 730 LINE",
"623.068 730 LINE",
"588.127 743 OFFCURVE",
"541.553 752 OFFCURVE",
"491.553 752 CURVE SMOOTH",
"229.553 752 OFFCURVE",
"67.143 560 OFFCURVE",
"38.158 377 CURVE SMOOTH",
"34.674 355 LINE SMOOTH",
"8.382 189 OFFCURVE",
"98.963 -22 OFFCURVE",
"368.963 -22 CURVE SMOOTH"
);
},
{
closed = 1;
nodes = (
"269.522 152 OFFCURVE",
"205.093 244 OFFCURVE",
"224.258 365 CURVE SMOOTH",
"244.373 492 OFFCURVE",
"336.994 578 OFFCURVE",
"463.994 578 CURVE SMOOTH",
"503.994 578 OFFCURVE",
"537.568 569 OFFCURVE",
"562.509 556 CURVE",
"554.519 575 LINE",
"487.522 152 LINE",
"502.165 175 LINE",
"475.106 162 OFFCURVE",
"434.522 152 OFFCURVE",
"396.522 152 CURVE SMOOTH"
);
},
{
closed = 1;
nodes = (
"931.447 0 LINE",
"955.522 152 LINE",
"647.522 152 LINE",
"623.447 0 LINE"
);
},
{
closed = 1;
nodes = (
"958.171 295 LINE",
"982.245 447 LINE",
"694.245 447 LINE",
"670.171 295 LINE"
);
},
{
closed = 1;
nodes = (
"1016.994 578 LINE",
"1041.068 730 LINE",
"739.068 730 LINE",
"714.994 578 LINE"
);
}
);
width = 1040;
},
{
layerId = "A9BE7077-88A3-49D0-803C-7BC96B0B926B";
paths = (
{
closed = 1;
nodes = (
"431.438 -20 OFFCURVE",
"481.705 -12 OFFCURVE",
"515.606 0 CURVE",
"601.606 0 LINE",
"717.226 730 LINE",
"631.226 730 LINE",
"601.127 742 OFFCURVE",
"553.394 750 OFFCURVE",
"499.394 750 CURVE SMOOTH",
"235.394 750 OFFCURVE",
"84.351 554 OFFCURVE",
"56.317 377 CURVE SMOOTH",
"52.832 355 LINE SMOOTH",
"27.491 195 OFFCURVE",
"105.438 -20 OFFCURVE",
"377.438 -20 CURVE SMOOTH"
);
},
{
closed = 1;
nodes = (
"215.376 68 OFFCURVE",
"131.708 209 OFFCURVE",
"156.416 365 CURVE SMOOTH",
"182.233 528 OFFCURVE",
"309.456 662 OFFCURVE",
"485.456 662 CURVE SMOOTH",
"537.456 662 OFFCURVE",
"598.872 652 OFFCURVE",
"636.388 630 CURVE",
"609.248 667 LINE",
"513.267 61 LINE",
"552.444 100 LINE",
"507.96 78 OFFCURVE",
"442.376 68 OFFCURVE",
"391.376 68 CURVE SMOOTH"
);
},
{
closed = 1;
nodes = (
"935.606 0 LINE",
"949.544 88 LINE",
"595.544 88 LINE",
"581.606 0 LINE"
);
},
{
closed = 1;
nodes = (
"957.398 327 LINE",
"971.335 415 LINE",
"647.335 415 LINE",
"633.398 327 LINE"
);
},
{
closed = 1;
nodes = (
"1027.289 642 LINE",
"1041.226 730 LINE",
"697.226 730 LINE",
"683.289 642 LINE"
);
}
);
width = 1056;
},
{
layerId = "45FAA47D-3C03-4CCA-BDE3-DFC1510ED13C";
paths = (
{
closed = 1;
nodes = (
"439.23 -16 OFFCURVE",
"493.18 -10 OFFCURVE",
"536.764 0 CURVE",
"562.764 0 LINE",
"678.385 730 LINE",
"658.385 730 LINE",
"620.969 740 OFFCURVE",
"561.236 748 OFFCURVE",
"510.236 748 CURVE SMOOTH",
"267.236 748 OFFCURVE",
"101.835 575 OFFCURVE",
"69.842 373 CURVE SMOOTH",
"67.941 361 LINE SMOOTH",
"36.581 163 OFFCURVE",
"134.23 -16 OFFCURVE",
"389.23 -16 CURVE SMOOTH"
);
},
{
closed = 1;
nodes = (
"159.982 14 OFFCURVE",
"70.481 175 OFFCURVE",
"100.733 366 CURVE SMOOTH",
"131.935 563 OFFCURVE",
"282.484 718 OFFCURVE",
"505.484 718 CURVE SMOOTH",
"557.484 718 OFFCURVE",
"612.217 710 OFFCURVE",
"651.792 701 CURVE",
"643.059 709 LINE",
"533.298 16 LINE",
"541.674 31 LINE",
"499.09 21 OFFCURVE",
"443.982 14 OFFCURVE",
"393.982 14 CURVE SMOOTH"
);
},
{
closed = 1;
nodes = (
"934.764 0 LINE",
"939.516 30 LINE",
"555.516 30 LINE",
"550.764 0 LINE"
);
},
{
closed = 1;
nodes = (
"952.149 356 LINE",
"956.901 386 LINE",
"608.901 386 LINE",
"604.149 356 LINE"
);
},
{
closed = 1;
nodes = (
"1032.633 700 LINE",
"1037.385 730 LINE",
"668.385 730 LINE",
"663.633 700 LINE"
);
}
);
width = 1067;
},
{
layerId = "3423A7C6-8126-4A24-975D-243FD1A28608";
name = public.background;
paths = (
{
closed = 1;
nodes = (
"501 -16 OFFCURVE",
"554 -10 OFFCURVE",
"596 0 CURVE",
"622 0 LINE",
"622 730 LINE",
"602 730 LINE",
"563 740 OFFCURVE",
"502 748 OFFCURVE",
"451 748 CURVE SMOOTH",
"208 748 OFFCURVE",
"70 575 OFFCURVE",
"70 373 CURVE SMOOTH",
"70 361 LINE SMOOTH",
"70 163 OFFCURVE",
"196 -16 OFFCURVE",
"451 -16 CURVE SMOOTH"
);
},
{
closed = 1;
nodes = (
"217 14 OFFCURVE",
"102 175 OFFCURVE",
"102 366 CURVE SMOOTH",
"102 563 OFFCURVE",
"228 718 OFFCURVE",
"451 718 CURVE SMOOTH",
"503 718 OFFCURVE",
"559 710 OFFCURVE",
"600 701 CURVE",
"590 709 LINE",
"590 16 LINE",
"596 31 LINE",
"555 21 OFFCURVE",
"501 14 OFFCURVE",
"451 14 CURVE SMOOTH"
);
},
{
closed = 1;
nodes = (
"994 0 LINE",
"994 30 LINE",
"610 30 LINE",
"610 0 LINE"
);
},
{
closed = 1;
nodes = (
"955 356 LINE",
"955 386 LINE",
"607 386 LINE",
"607 356 LINE"
);
},
{
closed = 1;
nodes = (
"981 700 LINE",
"981 730 LINE",
"612 730 LINE",
"612 700 LINE"
);
}
);
width = 1040;
}
);
leftKerningGroup = UC_Round;
rightKerningGroup = UC_E;
unicode = 0152;
},
{
color = 7;
glyphname = P;
layers = (
{
layerId = "670CA61E-2201-4EBA-9CF0-D57F8D98A45A";
paths = (
{
closed = 1;
nodes = (
"328.441 194 LINE SMOOTH",
"514.303 194 OFFCURVE",
"646.85 278.66 OFFCURVE",
"675.096 457 CURVE SMOOTH",
"677.63 473 LINE SMOOTH",
"702.909 632.603 OFFCURVE",
"587.289 736 OFFCURVE",
"414.285 736 CURVE SMOOTH",
"299.285 736 LINE",
"273.944 576 LINE",
"393.944 576 LINE SMOOTH",
"459.33 576 OFFCURVE",
"498.61 529.694 OFFCURVE",
"488.363 465 CURVE SMOOTH",
"477.128 394.063 OFFCURVE",
"430.551 354 OFFCURVE",
"358.783 354 CURVE SMOOTH",
"238.783 354 LINE",
"213.441 194 LINE"
);
},
{
closed = 1;
nodes = (
"202.715 0 LINE",
"319.285 736 LINE",
"133.285 736 LINE",
"16.715 0 LINE"
);
}
);
width = 677;
},
{
layerId = "A9BE7077-88A3-49D0-803C-7BC96B0B926B";
paths = (
{
closed = 1;
nodes = (
"312.103 254 LINE SMOOTH",
"477.673 254 OFFCURVE",
"596.761 327.605 OFFCURVE",
"621.848 486 CURVE SMOOTH",
"624.382 502 LINE SMOOTH",
"646.795 643.511 OFFCURVE",
"542.596 734 OFFCURVE",
"388.127 734 CURVE SMOOTH",
"243.127 734 LINE",
"229.506 648 LINE",
"392.506 648 LINE SMOOTH",
"483.051 648 OFFCURVE",
"537.323 583.702 OFFCURVE",
"523.115 494 CURVE SMOOTH",
"507.542 395.679 OFFCURVE",
"443.143 340 OFFCURVE",
"343.724 340 CURVE SMOOTH",
"180.724 340 LINE",
"167.103 254 LINE"
);
},
{
closed = 1;
nodes = (
"146.873 0 LINE",
"263.127 734 LINE",
"165.127 734 LINE",
"48.873 0 LINE"
);
}
);
width = 641;
},
{
layerId = "45FAA47D-3C03-4CCA-BDE3-DFC1510ED13C";
paths = (
{
closed = 1;
nodes = (
"312.28 292 LINE SMOOTH",
"457.223 292 OFFCURVE",
"555.968 365.795 OFFCURVE",
"578.332 507 CURVE SMOOTH",
"579.916 517 LINE SMOOTH",
"600.117 644.547 OFFCURVE",
"515.373 732 OFFCURVE",
"381.969 732 CURVE SMOOTH",
"200.969 732 LINE",
"196.217 702 LINE",
"379.217 702 LINE SMOOTH",
"493.933 702 OFFCURVE",
"564.806 623.642 OFFCURVE",
"547.124 512 CURVE SMOOTH",
"527.644 389.007 OFFCURVE",
"444.337 322 OFFCURVE",
"319.031 322 CURVE SMOOTH",
"136.031 322 LINE",
"131.28 292 LINE"
);
},
{
closed = 1;
nodes = (
"104.031 0 LINE",
"219.969 732 LINE",
"187.969 732 LINE",
"72.031 0 LINE"
);
}
);
width = 610;
},
{
layerId = "3423A7C6-8126-4A24-975D-243FD1A28608";
name = public.background;
paths = (
{
closed = 1;
nodes = (
"324 292 LINE SMOOTH",
"490 292 OFFCURVE",
"556 394 OFFCURVE",
"556 507 CURVE SMOOTH",
"556 517 LINE SMOOTH",
"556 630 OFFCURVE",
"490 732 OFFCURVE",
"324 732 CURVE SMOOTH",
"143 732 LINE",
"143 702 LINE",
"326 702 LINE SMOOTH",
"471 702 OFFCURVE",
"524 616 OFFCURVE",
"524 512 CURVE SMOOTH",
"524 408 OFFCURVE",
"471 322 OFFCURVE",
"326 322 CURVE SMOOTH",
"143 322 LINE",
"143 292 LINE"
);
},
{
closed = 1;
nodes = (
"162 0 LINE",
"162 732 LINE",
"130 732 LINE",
"130 0 LINE"
);
}
);
width = 677;
}
);
leftKerningGroup = UC_Stem;
rightKerningGroup = UC_P;
unicode = 0050;
},
{
color = 7;
glyphname = Thorn;
layers = (
{
layerId = "670CA61E-2201-4EBA-9CF0-D57F8D98A45A";
paths = (
{
closed = 1;
nodes = (
"305.662 104 LINE SMOOTH",
"488.142 104 OFFCURVE",
"617.925 187.741 OFFCURVE",
"645.683 363 CURVE SMOOTH",
"648.217 379 LINE SMOOTH",
"673.073 535.932 OFFCURVE",
"559.973 638 OFFCURVE",
"390.239 638 CURVE SMOOTH",
"283.239 638 LINE",
"257.897 478 LINE",
"369.897 478 LINE SMOOTH",
"432.067 478 OFFCURVE",
"468.785 433.093 OFFCURVE",
"458.95 371 CURVE SMOOTH",
"448.259 303.494 OFFCURVE",
"404.327 265 OFFCURVE",
"336.162 265 CURVE SMOOTH",
"224.162 265 LINE",
"198.662 104 LINE"
);
},
{
closed = 1;
nodes = (
"202.19 0 LINE",
"317.81 730 LINE",
"131.81 730 LINE",
"16.19 0 LINE"
);
}
);
width = 648;
},
{
layerId = "A9BE7077-88A3-49D0-803C-7BC96B0B926B";
paths = (
{
closed = 1;
nodes = (
"288.364 140 LINE SMOOTH",
"446.757 140 OFFCURVE",
"559.774 212.044 OFFCURVE",
"583.842 364 CURVE SMOOTH",
"586.059 378 LINE SMOOTH",
"607.595 513.977 OFFCURVE",
"508.993 602 OFFCURVE",
"361.537 602 CURVE SMOOTH",
"221.537 602 LINE",
"207.916 516 LINE",
"361.916 516 LINE SMOOTH",
"447.195 516 OFFCURVE",
"498.328 455.468 OFFCURVE",
"484.95 371 CURVE SMOOTH",
"470.347 278.8 OFFCURVE",
"409.521 227 OFFCURVE",
"316.143 227 CURVE SMOOTH",
"162.143 227 LINE",
"148.364 140 LINE"
);
},
{
closed = 1;
nodes = (
"146.19 0 LINE",
"261.81 730 LINE",
"163.81 730 LINE",
"48.19 0 LINE"
);
}
);
width = 602;
},
{
layerId = "45FAA47D-3C03-4CCA-BDE3-DFC1510ED13C";
paths = (
{
closed = 1;
nodes = (
"274.739 156 LINE SMOOTH",
"417.912 156 OFFCURVE",
"516.115 227.821 OFFCURVE",
"538.158 367 CURVE SMOOTH",
"539.742 377 LINE SMOOTH",
"559.626 502.543 OFFCURVE",
"475.142 588 OFFCURVE",
"343.161 588 CURVE SMOOTH",
"178.161 588 LINE",
"173.41 558 LINE",
"340.41 558 LINE SMOOTH",
"453.686 558 OFFCURVE",
"524.312 481.616 OFFCURVE",
"506.95 372 CURVE SMOOTH",
"487.794 251.047 OFFCURVE",
"405.015 186 OFFCURVE",
"281.491 186 CURVE SMOOTH",
"114.491 186 LINE",
"109.739 156 LINE"
);
},
{
closed = 1;
nodes = (
"104.031 0 LINE",
"219.969 732 LINE",
"187.969 732 LINE",
"72.031 0 LINE"
);
}
);
width = 570;
},
{
layerId = "3423A7C6-8126-4A24-975D-243FD1A28608";
name = public.background;
paths = (
{
closed = 1;
nodes = (
"308 156 LINE SMOOTH",
"471 156 OFFCURVE",
"538 256 OFFCURVE",
"538 367 CURVE SMOOTH",
"538 377 LINE SMOOTH",
"538 488 OFFCURVE",
"471 588 OFFCURVE",
"308 588 CURVE SMOOTH",
"143 588 LINE",
"143 558 LINE",
"310 558 LINE SMOOTH",
"451 558 OFFCURVE",
"506 475 OFFCURVE",
"506 372 CURVE SMOOTH",
"506 269 OFFCURVE",
"451 186 OFFCURVE",
"310 186 CURVE SMOOTH",
"143 186 LINE",
"143 156 LINE"
);
},
{
closed = 1;
nodes = (
"162 0 LINE",
"162 732 LINE",
"130 732 LINE",
"130 0 LINE"
);
}
);
width = 648;
}
);
leftKerningGroup = UC_Stem;
unicode = 00DE;
},
{
color = 7;
glyphname = Q;
layers = (
{
layerId = "3423A7C6-8126-4A24-975D-243FD1A28608";
name = public.background;
paths = (
{
closed = 1;
nodes = (
"336 -204 LINE",
"336 -174 LINE",
"210 -174 LINE SMOOTH",
"138 -174 OFFCURVE",
"102 -138 OFFCURVE",
"102 -66 CURVE SMOOTH",
"102 2 LINE",
"70 2 LINE",
"70 -62 LINE SMOOTH",
"70 -156 OFFCURVE",
"120 -204 OFFCURVE",
"214 -204 CURVE SMOOTH"
);
}
);
width = 398;
},
{
components = (
{
name = O;
alignment = -1;
}
);
guideLines = (
{
angle = 90;
position = "{431, 0}";
}
);
layerId = "670CA61E-2201-4EBA-9CF0-D57F8D98A45A";
paths = (
{
closed = 1;
nodes = (
"583 -220 LINE",
"605 -80 LINE",
"501 -80 LINE SMOOTH",
"464 -80 OFFCURVE",
"445 -62 OFFCURVE",
"451 -24 CURVE SMOOTH",
"470 100 LINE",
"296 100 LINE",
"277 -20 LINE SMOOTH",
"251 -184 OFFCURVE",
"339 -220 OFFCURVE",
"483 -220 CURVE SMOOTH"
);
}
);
width = 864;
},
{
components = (
{
name = O;
alignment = -1;
}
);
guideLines = (
{
angle = 90;
position = "{431, 0}";
}
);
layerId = "A9BE7077-88A3-49D0-803C-7BC96B0B926B";
paths = (
{
closed = 1;
nodes = (
"582 -211 LINE",
"596 -124 LINE",
"472 -124 LINE SMOOTH",
"429 -124 OFFCURVE",
"405 -97 OFFCURVE",
"412 -53 CURVE SMOOTH",
"429 50 LINE",
"339 50 LINE",
"325 -38 LINE SMOOTH",
"304 -171 OFFCURVE",
"366 -211 OFFCURVE",
"475 -211 CURVE SMOOTH"
);
}
);
width = 865;
},
{
components = (
{
name = O;
alignment = -1;
}
);
layerId = "45FAA47D-3C03-4CCA-BDE3-DFC1510ED13C";
paths = (
{
closed = 1;
nodes = (
"599 -204 LINE",
"604 -174 LINE",
"478 -174 LINE SMOOTH",
"406 -174 OFFCURVE",
"376 -138 OFFCURVE",
"387 -66 CURVE SMOOTH",
"398 2 LINE",
"366 2 LINE",
"356 -62 LINE SMOOTH",
"341 -156 OFFCURVE",
"383 -204 OFFCURVE",
"477 -204 CURVE SMOOTH"
);
}
);
width = 872;
}
);
leftKerningGroup = UC_Round;
rightKerningGroup = UC_Round;
unicode = 0051;
},
{
color = 7;
glyphname = R;
layers = (
{
anchors = (
{
name = bottom;
position = "{361, 0}";
},
{
name = top;
position = "{318, 730}";
}
);
layerId = "3423A7C6-8126-4A24-975D-243FD1A28608";
name = public.background;
paths = (
{
closed = 1;
nodes = (
"162 0 LINE",
"162 732 LINE",
"130 732 LINE",
"130 0 LINE"
);
},
{
closed = 1;
nodes = (
"628 0 LINE",
"362 318 LINE",
"323 318 LINE",
"588 0 LINE"
);
},
{
closed = 1;
nodes = (
"337 302 LINE SMOOTH",
"498 302 OFFCURVE",
"562 400 OFFCURVE",
"562 512 CURVE SMOOTH",
"562 522 LINE SMOOTH",
"562 634 OFFCURVE",
"498 732 OFFCURVE",
"337 732 CURVE SMOOTH",
"143 732 LINE",
"143 702 LINE",
"339 702 LINE SMOOTH",
"480 702 OFFCURVE",
"530 619 OFFCURVE",
"530 517 CURVE SMOOTH",
"530 415 OFFCURVE",
"480 332 OFFCURVE",
"339 332 CURVE SMOOTH",
"143 332 LINE",
"143 302 LINE"
);
}
);
width = 741;
},
{
anchors = (
{
name = bottom;
position = "{322, 0}";
},
{
name = top;
position = "{408, 730}";
}
);
layerId = "670CA61E-2201-4EBA-9CF0-D57F8D98A45A";
paths = (
{
closed = 1;
nodes = (
"203 0 LINE",
"319 736 LINE",
"133 736 LINE",
"17 0 LINE"
);
},
{
closed = 1;
nodes = (
"671 0 LINE",
"503 310 LINE",
"301 310 LINE",
"457 0 LINE"
);
},
{
closed = 1;
nodes = (
"355 224 LINE SMOOTH",
"537.802 224 OFFCURVE",
"673.597 297.151 OFFCURVE",
"701 470 CURVE",
"704 486 LINE",
"728.583 641.065 OFFCURVE",
"608.829 736 OFFCURVE",
"436 736 CURVE SMOOTH",
"272 736 LINE",
"248 580 LINE",
"423 580 LINE SMOOTH",
"485.898 580 OFFCURVE",
"523.6 535.4 OFFCURVE",
"514 473 CURVE SMOOTH",
"502.51 405.106 OFFCURVE",
"457.799 367 OFFCURVE",
"389 367 CURVE SMOOTH",
"214 367 LINE",
"191 224 LINE"
);
}
);
width = 741;
},
{
anchors = (
{
name = bottom;
position = "{317, 0}";
},
{
name = top;
position = "{396, 730}";
}
);
layerId = "A9BE7077-88A3-49D0-803C-7BC96B0B926B";
paths = (
{
closed = 1;
nodes = (
"147 0 LINE",
"263 734 LINE",
"165 734 LINE",
"49 0 LINE"
);
},
{
closed = 1;
nodes = (
"619 0 LINE",
"424 325 LINE",
"309 325 LINE",
"500 0 LINE"
);
},
{
closed = 1;
nodes = (
"330 264 LINE SMOOTH",
"491.572 264 OFFCURVE",
"607.523 336.307 OFFCURVE",
"632 491 CURVE",
"634 507 LINE",
"655.875 645.251 OFFCURVE",
"554.581 734 OFFCURVE",
"404 734 CURVE SMOOTH",
"226 734 LINE",
"213 648 LINE",
"409 648 LINE SMOOTH",
"495.734 648 OFFCURVE",
"547.067 585.412 OFFCURVE",
"533 499 CURVE SMOOTH",
"517.649 404.698 OFFCURVE",
"456.264 351 OFFCURVE",
"361 351 CURVE SMOOTH",
"165 351 LINE",
"152 264 LINE"
);
}
);
width = 701;
},
{
anchors = (
{
name = bottom;
position = "{303, 0}";
},
{
name = top;
position = "{376, 730}";
}
);
layerId = "45FAA47D-3C03-4CCA-BDE3-DFC1510ED13C";
paths = (
{
closed = 1;
nodes = (
"104 0 LINE",
"220 732 LINE",
"188 732 LINE",
"72 0 LINE"
);
},
{
closed = 1;
nodes = (
"570 0 LINE",
"354 318 LINE",
"315 318 LINE",
"530 0 LINE"
);
},
{
closed = 1;
nodes = (
"327 302 LINE SMOOTH",
"467.726 302 OFFCURVE",
"562.922 374.624 OFFCURVE",
"585 512 CURVE",
"587 522 LINE",
"605.897 646.498 OFFCURVE",
"524.299 732 OFFCURVE",
"395 732 CURVE SMOOTH",
"201 732 LINE",
"196 702 LINE",
"392 702 LINE SMOOTH",
"502.956 702 OFFCURVE",
"571.021 625.51 OFFCURVE",
"554 517 CURVE SMOOTH",
"535.291 397.731 OFFCURVE",
"455.244 332 OFFCURVE",
"334 332 CURVE SMOOTH",
"138 332 LINE",
"133 302 LINE"
);
}
);
width = 662;
}
);
leftKerningGroup = UC_Stem;
rightKerningGroup = UC_R;
unicode = 0052;
},
{
color = 7;
glyphname = S;
layers = (
{
anchors = (
{
name = bottom;
position = "{357, 0}";
},
{
name = top;
position = "{355, 730}";
}
);
layerId = "3423A7C6-8126-4A24-975D-243FD1A28608";
name = public.background;
paths = (
{
closed = 1;
nodes = (
"532 -16 OFFCURVE",
"624 71 OFFCURVE",
"624 188 CURVE SMOOTH",
"624 291 OFFCURVE",
"550 376 OFFCURVE",
"406 389 CURVE SMOOTH",
"316 397 LINE SMOOTH",
"213 406 OFFCURVE",
"154 459 OFFCURVE",
"154 551 CURVE SMOOTH",
"154 643 OFFCURVE",
"212 718 OFFCURVE",
"354 718 CURVE SMOOTH",
"502 718 OFFCURVE",
"564 632 OFFCURVE",
"564 532 CURVE",
"596 532 LINE",
"596 647 OFFCURVE",
"520 748 OFFCURVE",
"354 748 CURVE SMOOTH",
"194 748 OFFCURVE",
"122 658 OFFCURVE",
"122 551 CURVE SMOOTH",
"122 445 OFFCURVE",
"194 377 OFFCURVE",
"311 367 CURVE SMOOTH",
"401 359 LINE SMOOTH",
"531 347 OFFCURVE",
"592 277 OFFCURVE",
"592 188 CURVE SMOOTH",
"592 82 OFFCURVE",
"509 14 OFFCURVE",
"357 14 CURVE SMOOTH",
"192 14 OFFCURVE",
"114 90 OFFCURVE",
"114 208 CURVE",
"82 208 LINE",
"82 79 OFFCURVE",
"169 -16 OFFCURVE",
"357 -16 CURVE SMOOTH"
);
}
);
width = 659;
},
{
anchors = (
{
name = bottom;
position = "{272, 0}";
},
{
name = top;
position = "{373, 730}";
}
);
guideLines = (
{
angle = 354.23;
position = "{275, 450}";
}
);
layerId = "670CA61E-2201-4EBA-9CF0-D57F8D98A45A";
paths = (
{
closed = 1;
nodes = (
"449.852 -20 OFFCURVE",
"584.969 46.938 OFFCURVE",
"612 215 CURVE SMOOTH",
"633.786 354.627 OFFCURVE",
"524.161 434.421 OFFCURVE",
"368 448 CURVE SMOOTH",
"322 452 LINE SMOOTH",
"274.76 455.81 OFFCURVE",
"242.181 480.937 OFFCURVE",
"248 524 CURVE",
"256.648 575.89 OFFCURVE",
"297.199 598 OFFCURVE",
"352 598 CURVE SMOOTH",
"409.404 598 OFFCURVE",
"447.783 563.695 OFFCURVE",
"439 511 CURVE",
"619 511 LINE",
"642.374 657.341 OFFCURVE",
"535.955 752 OFFCURVE",
"377 752 CURVE SMOOTH",
"212.536 752 OFFCURVE",
"93.228 680.853 OFFCURVE",
"68 524 CURVE SMOOTH",
"47.286 390.839 OFFCURVE",
"137.355 303.358 OFFCURVE",
"279 291 CURVE SMOOTH",
"325 287 LINE SMOOTH",
"387.287 281.809 OFFCURVE",
"439.452 267.161 OFFCURVE",
"432 215 CURVE SMOOTH",
"421.822 151.387 OFFCURVE",
"365.502 134 OFFCURVE",
"296 134 CURVE SMOOTH",
"223.132 134 OFFCURVE",
"168.652 165.073 OFFCURVE",
"178 227 CURVE",
"-2 227 LINE",
"-25.689 71.948 OFFCURVE",
"96.807 -20 OFFCURVE",
"271 -20 CURVE SMOOTH"
);
}
);
width = 659;
},
{
anchors = (
{
name = bottom;
position = "{283, 0}";
},
{
name = top;
position = "{400, 730}";
}
);
layerId = "A9BE7077-88A3-49D0-803C-7BC96B0B926B";
paths = (
{
closed = 1;
nodes = (
"452.144 -18 OFFCURVE",
"579.872 49.461 OFFCURVE",
"605 211 CURVE SMOOTH",
"624.549 331.382 OFFCURVE",
"529.296 400.035 OFFCURVE",
"394 412 CURVE SMOOTH",
"314 419 LINE SMOOTH",
"244.629 424.995 OFFCURVE",
"197.542 463.252 OFFCURVE",
"208 526 CURVE SMOOTH",
"222.674 618.044 OFFCURVE",
"292.543 660 OFFCURVE",
"389 660 CURVE SMOOTH",
"479.08 660 OFFCURVE",
"539.246 606.092 OFFCURVE",
"526 523 CURVE",
"624 523 LINE",
"645.628 659.65 OFFCURVE",
"549.373 750 OFFCURVE",
"403 750 CURVE SMOOTH",
"245.59 750 OFFCURVE",
"133.89 677.301 OFFCURVE",
"110 526 CURVE SMOOTH",
"91.967 412.796 OFFCURVE",
"170.463 339.445 OFFCURVE",
"292 329 CURVE SMOOTH",
"372 322 LINE SMOOTH",
"455.151 314.364 OFFCURVE",
"518.819 281.913 OFFCURVE",
"507 211 CURVE SMOOTH",
"490.389 108.564 OFFCURVE",
"405.07 72 OFFCURVE",
"295 72 CURVE SMOOTH",
"189.741 72 OFFCURVE",
"114.012 123.712 OFFCURVE",
"129 215 CURVE",
"31 215 LINE",
"7.461 70.558 OFFCURVE",
"119.466 -18 OFFCURVE",
"281 -18 CURVE SMOOTH"
);
}
);
width = 689;
},
{
anchors = (
{
name = bottom;
position = "{298, 0}";
},
{
name = top;
position = "{411, 730}";
}
);
layerId = "45FAA47D-3C03-4CCA-BDE3-DFC1510ED13C";
paths = (
{
closed = 1;
nodes = (
"451.841 -16 OFFCURVE",
"571.126 40.986 OFFCURVE",
"595 188 CURVE SMOOTH",
"612.957 303.597 OFFCURVE",
"532.237 377.626 OFFCURVE",
"408 389 CURVE SMOOTH",
"320 397 LINE SMOOTH",
"226.715 405.231 OFFCURVE",
"167.713 463.374 OFFCURVE",
"182 551 CURVE SMOOTH",
"200.709 665.748 OFFCURVE",
"287.763 718 OFFCURVE",
"408 718 CURVE SMOOTH",
"527.995 718 OFFCURVE",
"606.907 643.92 OFFCURVE",
"589 532 CURVE",
"621 532 LINE",
"641.297 661.676 OFFCURVE",
"551.103 748 OFFCURVE",
"413 748 CURVE SMOOTH",
"272.439 748 OFFCURVE",
"171.366 685.481 OFFCURVE",
"150 551 CURVE SMOOTH",
"133.32 446.995 OFFCURVE",
"200.724 376.42 OFFCURVE",
"310 367 CURVE SMOOTH",
"399 359 LINE SMOOTH",
"506.875 348.887 OFFCURVE",
"578.599 287.164 OFFCURVE",
"563 188 CURVE SMOOTH",
"542.543 60.444 OFFCURVE",
"436.868 14 OFFCURVE",
"300 14 CURVE SMOOTH",
"163.791 14 OFFCURVE",
"68.503 86.911 OFFCURVE",
"88 208 CURVE",
"56 208 LINE",
"33.437 69.4 OFFCURVE",
"140.361 -16 OFFCURVE",
"295 -16 CURVE SMOOTH"
);
}
);
width = 712;
}
);
leftKerningGroup = UC_S;
rightKerningGroup = UC_S;
unicode = 0053;
},
{
color = 6;
glyphname = Germandbls;
layers = (
{
layerId = "670CA61E-2201-4EBA-9CF0-D57F8D98A45A";
paths = (
{
closed = 1;
nodes = (
"442.432 -21 OFFCURVE",
"575.113 47.902 OFFCURVE",
"601.579 215 CURVE SMOOTH",
"623.515 353.492 OFFCURVE",
"516.607 434.496 OFFCURVE",
"362.483 448 CURVE SMOOTH",
"317.116 452 LINE SMOOTH",
"271.499 455.852 OFFCURVE",
"240.771 481.394 OFFCURVE",
"247.362 523 CURVE SMOOTH",
"255.36 573.501 OFFCURVE",
"293.303 597 OFFCURVE",
"346.082 597 CURVE SMOOTH",
"401.377 597 OFFCURVE",
"437.651 562.71 OFFCURVE",
"429.461 511 CURVE",
"609.461 511 LINE",
"632.491 656.408 OFFCURVE",
"527.725 751 OFFCURVE",
"370.473 751 CURVE SMOOTH",
"208.288 751 OFFCURVE",
"91.961 678.31 OFFCURVE",
"67.362 523 CURVE SMOOTH",
"46.472 391.109 OFFCURVE",
"134.043 303.128 OFFCURVE",
"273.617 291 CURVE SMOOTH",
"318.983 287 LINE SMOOTH",
"379.698 281.934 OFFCURVE",
"429.593 265.592 OFFCURVE",
"421.579 215 CURVE SMOOTH",
"411.663 152.395 OFFCURVE",
"357.557 133 OFFCURVE",
"289.592 133 CURVE SMOOTH",
"219.15 133 OFFCURVE",
"167.857 166.238 OFFCURVE",
"177.48 227 CURVE",
"-2.52 227 LINE",
"-26.943 72.797 OFFCURVE",
"92.877 -21 OFFCURVE",
"265.201 -21 CURVE SMOOTH"
);
},
{
closed = 1;
nodes = (
"1086.432 -21 OFFCURVE",
"1219.113 47.902 OFFCURVE",
"1245.579 215 CURVE SMOOTH",
"1267.514 353.492 OFFCURVE",
"1160.606 434.496 OFFCURVE",
"1006.483 448 CURVE SMOOTH",
"961.116 452 LINE SMOOTH",
"915.499 455.852 OFFCURVE",
"884.771 481.394 OFFCURVE",
"891.362 523 CURVE SMOOTH",
"899.36 573.501 OFFCURVE",
"937.303 597 OFFCURVE",
"990.082 597 CURVE SMOOTH",
"1045.377 597 OFFCURVE",
"1081.651 562.71 OFFCURVE",
"1073.461 511 CURVE",
"1253.461 511 LINE",
"1276.491 656.408 OFFCURVE",
"1171.725 751 OFFCURVE",
"1014.473 751 CURVE SMOOTH",
"852.288 751 OFFCURVE",
"735.961 678.31 OFFCURVE",
"711.362 523 CURVE SMOOTH",
"690.472 391.109 OFFCURVE",
"778.043 303.128 OFFCURVE",
"917.617 291 CURVE SMOOTH",
"962.983 287 LINE SMOOTH",
"1023.657 281.814 OFFCURVE",
"1073.592 265.589 OFFCURVE",
"1065.579 215 CURVE SMOOTH",
"1055.663 152.395 OFFCURVE",
"1001.557 133 OFFCURVE",
"933.592 133 CURVE SMOOTH",
"863.15 133 OFFCURVE",
"811.857 166.238 OFFCURVE",
"821.48 227 CURVE",
"641.48 227 LINE",
"617.057 72.797 OFFCURVE",
"736.877 -21 OFFCURVE",
"909.201 -21 CURVE SMOOTH"
);
}
);
width = 1294;
},
{
layerId = "A9BE7077-88A3-49D0-803C-7BC96B0B926B";
paths = (
{
closed = 1;
nodes = (
"446.171 -16 OFFCURVE",
"571.196 52.24 OFFCURVE",
"596.5 212 CURVE SMOOTH",
"615.429 331.517 OFFCURVE",
"521.071 399.229 OFFCURVE",
"387.177 412 CURVE SMOOTH",
"312.286 419 LINE SMOOTH",
"244.328 424.954 OFFCURVE",
"198.142 462.286 OFFCURVE",
"207.916 524 CURVE SMOOTH",
"222.133 613.759 OFFCURVE",
"289.163 656 OFFCURVE",
"382.823 656 CURVE SMOOTH",
"471.61 656 OFFCURVE",
"531.621 604.217 OFFCURVE",
"518.758 523 CURVE",
"615.758 523 LINE",
"637.063 657.512 OFFCURVE",
"541.612 746 OFFCURVE",
"397.077 746 CURVE SMOOTH",
"242.408 746 OFFCURVE",
"133.527 673.071 OFFCURVE",
"109.916 524 CURVE SMOOTH",
"92.221 412.277 OFFCURVE",
"169.977 340.425 OFFCURVE",
"290.031 329 CURVE SMOOTH",
"364.922 322 LINE SMOOTH",
"446.884 314.362 OFFCURVE",
"509.635 282.304 OFFCURVE",
"498.5 212 CURVE SMOOTH",
"482.553 111.314 OFFCURVE",
"399.542 74 OFFCURVE",
"291.643 74 CURVE SMOOTH",
"188.16 74 OFFCURVE",
"113.703 124.886 OFFCURVE",
"127.975 215 CURVE",
"30.975 215 LINE",
"8.319 71.959 OFFCURVE",
"118.287 -16 OFFCURVE",
"277.388 -16 CURVE SMOOTH"
);
},
{
closed = 1;
nodes = (
"1095.099 -16 OFFCURVE",
"1217.42 53.649 OFFCURVE",
"1242.5 212 CURVE SMOOTH",
"1261.457 331.691 OFFCURVE",
"1167.236 399.976 OFFCURVE",
"1033.177 412 CURVE SMOOTH",
"954.286 419 LINE SMOOTH",
"886.328 424.954 OFFCURVE",
"840.142 462.286 OFFCURVE",
"849.916 524 CURVE SMOOTH",
"864.263 614.58 OFFCURVE",
"932.934 656 OFFCURVE",
"1027.823 656 CURVE SMOOTH",
"1117.082 656 OFFCURVE",
"1177.65 604.404 OFFCURVE",
"1164.758 523 CURVE",
"1261.758 523 LINE",
"1283.09 657.687 OFFCURVE",
"1187.078 746 OFFCURVE",
"1042.077 746 CURVE SMOOTH",
"886.189 746 OFFCURVE",
"775.654 673.876 OFFCURVE",
"751.916 524 CURVE SMOOTH",
"734.174 411.98 OFFCURVE",
"811.815 339.474 OFFCURVE",
"932.031 329 CURVE SMOOTH",
"1010.922 322 LINE SMOOTH",
"1092.884 314.362 OFFCURVE",
"1155.635 282.304 OFFCURVE",
"1144.5 212 CURVE SMOOTH",
"1128.787 112.792 OFFCURVE",
"1048.438 74 OFFCURVE",
"942.643 74 CURVE SMOOTH",
"841.573 74 OFFCURVE",
"769.877 125.984 OFFCURVE",
"783.975 215 CURVE",
"686.975 215 LINE",
"664.474 72.935 OFFCURVE",
"771.664 -16 OFFCURVE",
"928.388 -16 CURVE SMOOTH"
);
}
);
width = 1327;
},
{
layerId = "45FAA47D-3C03-4CCA-BDE3-DFC1510ED13C";
paths = (
{
closed = 1;
nodes = (
"446.329 -16 OFFCURVE",
"563.456 42.246 OFFCURVE",
"586.54 188 CURVE SMOOTH",
"604.759 303.028 OFFCURVE",
"525.556 377.718 OFFCURVE",
"402.376 389 CURVE SMOOTH",
"315.643 397 LINE SMOOTH",
"223.574 405.158 OFFCURVE",
"166.211 463.722 OFFCURVE",
"180.034 551 CURVE SMOOTH",
"198.113 665.15 OFFCURVE",
"284.103 718 OFFCURVE",
"403.484 718 CURVE SMOOTH",
"521.783 718 OFFCURVE",
"598.663 643.366 OFFCURVE",
"581.025 532 CURVE",
"613.025 532 LINE",
"633.472 661.097 OFFCURVE",
"544.976 748 OFFCURVE",
"408.236 748 CURVE SMOOTH",
"268.796 748 OFFCURVE",
"169.215 684.732 OFFCURVE",
"148.034 551 CURVE SMOOTH",
"131.666 447.657 OFFCURVE",
"197.758 377.32 OFFCURVE",
"305.891 367 CURVE SMOOTH",
"392.624 359 LINE SMOOTH",
"499.647 348.974 OFFCURVE",
"570.182 286.752 OFFCURVE",
"554.54 188 CURVE SMOOTH",
"534.54 61.72 OFFCURVE",
"431.075 14 OFFCURVE",
"295.982 14 CURVE SMOOTH",
"161.731 14 OFFCURVE",
"68.64 87.605 OFFCURVE",
"87.708 208 CURVE",
"55.708 208 LINE",
"33.846 69.965 OFFCURVE",
"138.58 -16 OFFCURVE",
"291.23 -16 CURVE SMOOTH"
);
},
{
closed = 1;
nodes = (
"1110.329 -16 OFFCURVE",
"1227.456 42.246 OFFCURVE",
"1250.54 188 CURVE SMOOTH",
"1268.759 303.028 OFFCURVE",
"1189.556 377.718 OFFCURVE",
"1066.376 389 CURVE SMOOTH",
"979.643 397 LINE SMOOTH",
"887.574 405.158 OFFCURVE",
"830.211 463.722 OFFCURVE",
"844.034 551 CURVE SMOOTH",
"862.113 665.15 OFFCURVE",
"948.103 718 OFFCURVE",
"1067.484 718 CURVE SMOOTH",
"1185.783 718 OFFCURVE",
"1262.663 643.366 OFFCURVE",
"1245.025 532 CURVE",
"1277.025 532 LINE",
"1297.472 661.097 OFFCURVE",
"1208.976 748 OFFCURVE",
"1072.236 748 CURVE SMOOTH",
"932.796 748 OFFCURVE",
"833.215 684.732 OFFCURVE",
"812.034 551 CURVE SMOOTH",
"795.666 447.657 OFFCURVE",
"861.758 377.32 OFFCURVE",
"969.891 367 CURVE SMOOTH",
"1056.624 359 LINE SMOOTH",
"1163.647 348.974 OFFCURVE",
"1234.182 286.752 OFFCURVE",
"1218.54 188 CURVE SMOOTH",
"1198.54 61.72 OFFCURVE",
"1095.075 14 OFFCURVE",
"959.982 14 CURVE SMOOTH",
"825.731 14 OFFCURVE",
"732.64 87.605 OFFCURVE",
"751.708 208 CURVE",
"719.708 208 LINE",
"697.846 69.965 OFFCURVE",
"802.58 -16 OFFCURVE",
"955.23 -16 CURVE SMOOTH"
);
}
);
width = 1368;
},
{
layerId = "3423A7C6-8126-4A24-975D-243FD1A28608";
name = public.background;
paths = (
{
closed = 1;
nodes = (
"528 -16 OFFCURVE",
"616 71 OFFCURVE",
"616 188 CURVE SMOOTH",
"616 291 OFFCURVE",
"544 376 OFFCURVE",
"400 389 CURVE SMOOTH",
"312 397 LINE SMOOTH",
"209 406 OFFCURVE",
"152 459 OFFCURVE",
"152 551 CURVE SMOOTH",
"152 643 OFFCURVE",
"207 718 OFFCURVE",
"349 718 CURVE SMOOTH",
"497 718 OFFCURVE",
"556 632 OFFCURVE",
"556 532 CURVE",
"588 532 LINE",
"588 647 OFFCURVE",
"515 748 OFFCURVE",
"349 748 CURVE SMOOTH",
"189 748 OFFCURVE",
"120 658 OFFCURVE",
"120 551 CURVE SMOOTH",
"120 445 OFFCURVE",
"190 378 OFFCURVE",
"307 367 CURVE SMOOTH",
"395 359 LINE SMOOTH",
"525 347 OFFCURVE",
"584 277 OFFCURVE",
"584 188 CURVE SMOOTH",
"584 82 OFFCURVE",
"505 14 OFFCURVE",
"353 14 CURVE SMOOTH",
"188 14 OFFCURVE",
"114 90 OFFCURVE",
"114 208 CURVE",
"82 208 LINE",
"82 79 OFFCURVE",
"165 -16 OFFCURVE",
"353 -16 CURVE SMOOTH"
);
},
{
closed = 1;
nodes = (
"1192 -16 OFFCURVE",
"1280 71 OFFCURVE",
"1280 188 CURVE SMOOTH",
"1280 291 OFFCURVE",
"1208 376 OFFCURVE",
"1064 389 CURVE SMOOTH",
"976 397 LINE SMOOTH",
"873 406 OFFCURVE",
"816 459 OFFCURVE",
"816 551 CURVE SMOOTH",
"816 643 OFFCURVE",
"871 718 OFFCURVE",
"1013 718 CURVE SMOOTH",
"1161 718 OFFCURVE",
"1220 632 OFFCURVE",
"1220 532 CURVE",
"1252 532 LINE",
"1252 647 OFFCURVE",
"1179 748 OFFCURVE",
"1013 748 CURVE SMOOTH",
"853 748 OFFCURVE",
"784 658 OFFCURVE",
"784 551 CURVE SMOOTH",
"784 445 OFFCURVE",
"854 378 OFFCURVE",
"971 367 CURVE SMOOTH",
"1059 359 LINE SMOOTH",
"1189 347 OFFCURVE",
"1248 277 OFFCURVE",
"1248 188 CURVE SMOOTH",
"1248 82 OFFCURVE",
"1169 14 OFFCURVE",
"1017 14 CURVE SMOOTH",
"852 14 OFFCURVE",
"778 90 OFFCURVE",
"778 208 CURVE",
"746 208 LINE",
"746 79 OFFCURVE",
"829 -16 OFFCURVE",
"1017 -16 CURVE SMOOTH"
);
}
);
width = 1294;
}
);
leftKerningGroup = UC_S;
rightKerningGroup = UC_S;
unicode = 1E9E;
},
{
color = 7;
glyphname = T;
layers = (
{
anchors = (
{
name = bottom;
position = "{288, 0}";
},
{
name = center;
position = "{288, 365}";
},
{
name = top;
position = "{288, 730}";
}
);
layerId = "3423A7C6-8126-4A24-975D-243FD1A28608";
name = public.background;
paths = (
{
closed = 1;
nodes = (
"304 0 LINE",
"304 716 LINE",
"272 716 LINE",
"272 0 LINE"
);
},
{
closed = 1;
nodes = (
"544 700 LINE",
"544 730 LINE",
"32 730 LINE",
"32 700 LINE"
);
}
);
width = 626;
},
{
anchors = (
{
name = bottom;
position = "{255, 0}";
},
{
name = center;
position = "{313, 365}";
},
{
name = top;
position = "{371, 730}";
}
);
layerId = "670CA61E-2201-4EBA-9CF0-D57F8D98A45A";
paths = (
{
closed = 1;
nodes = (
"348 0 LINE",
"441 588 LINE",
"255 588 LINE",
"162 0 LINE"
);
},
{
closed = 1;
nodes = (
"638 568 LINE",
"664 730 LINE",
"78 730 LINE",
"52 568 LINE"
);
}
);
width = 626;
},
{
anchors = (
{
name = bottom;
position = "{239, 0}";
},
{
name = center;
position = "{297, 365}";
},
{
name = top;
position = "{355, 730}";
}
);
layerId = "A9BE7077-88A3-49D0-803C-7BC96B0B926B";
paths = (
{
closed = 1;
nodes = (
"288 0 LINE",
"393 662 LINE",
"295 662 LINE",
"190 0 LINE"
);
},
{
closed = 1;
nodes = (
"612 642 LINE",
"626 730 LINE",
"84 730 LINE",
"70 642 LINE"
);
}
);
width = 594;
},
{
anchors = (
{
name = bottom;
position = "{230, 0}";
},
{
name = center;
position = "{288, 365}";
},
{
name = top;
position = "{346, 730}";
}
);
layerId = "45FAA47D-3C03-4CCA-BDE3-DFC1510ED13C";
paths = (
{
closed = 1;
nodes = (
"246 0 LINE",
"360 716 LINE",
"328 716 LINE",
"214 0 LINE"
);
},
{
closed = 1;
nodes = (
"597 700 LINE",
"602 730 LINE",
"90 730 LINE",
"85 700 LINE"
);
}
);
width = 576;
}
);
leftKerningGroup = UC_T;
rightKerningGroup = UC_T;
unicode = 0054;
},
{
color = 6;
glyphname = Tbar;
layers = (
{
layerId = "3423A7C6-8126-4A24-975D-243FD1A28608";
name = public.background;
paths = (
{
closed = 1;
nodes = (
"476 362 LINE",
"476 390 LINE",
"100 390 LINE",
"100 362 LINE"
);
}
);
width = 626;
},
{
components = (
{
name = T;
alignment = -1;
}
);
layerId = "670CA61E-2201-4EBA-9CF0-D57F8D98A45A";
paths = (
{
closed = 1;
nodes = (
"533 286 LINE",
"553 410 LINE",
"87 410 LINE",
"67 286 LINE"
);
}
);
width = 626;
},
{
components = (
{
name = T;
alignment = -1;
}
);
layerId = "A9BE7077-88A3-49D0-803C-7BC96B0B926B";
paths = (
{
closed = 1;
nodes = (
"495 320 LINE",
"508 400 LINE",
"98 400 LINE",
"85 320 LINE"
);
}
);
width = 594;
},
{
components = (
{
name = T;
alignment = -1;
}
);
layerId = "45FAA47D-3C03-4CCA-BDE3-DFC1510ED13C";
paths = (
{
closed = 1;
nodes = (
"476 362 LINE",
"480 390 LINE",
"104 390 LINE",
"100 362 LINE"
);
}
);
width = 576;
}
);
leftKerningGroup = UC_T;
rightKerningGroup = UC_T;
unicode = 0166;
},
{
color = 7;
glyphname = U;
layers = (
{
anchors = (
{
name = bottom;
position = "{403, 0}";
},
{
name = ogonek;
position = "{497, 5}";
},
{
name = top;
position = "{403, 730}";
}
);
layerId = "3423A7C6-8126-4A24-975D-243FD1A28608";
name = public.background;
paths = (
{
closed = 1;
nodes = (
"604 -16 OFFCURVE",
"690 109 OFFCURVE",
"690 275 CURVE SMOOTH",
"690 730 LINE",
"658 730 LINE",
"658 271 LINE SMOOTH",
"658 117 OFFCURVE",
"580 14 OFFCURVE",
"403 14 CURVE SMOOTH",
"227 14 OFFCURVE",
"148 117 OFFCURVE",
"148 271 CURVE SMOOTH",
"148 730 LINE",
"116 730 LINE",
"116 275 LINE SMOOTH",
"116 109 OFFCURVE",
"202 -16 OFFCURVE",
"403 -16 CURVE SMOOTH"
);
}
);
width = 794;
},
{
anchors = (
{
name = bottom;
position = "{287, 0}";
},
{
name = ogonek;
position = "{444, 17}";
},
{
name = top;
position = "{403, 730}";
}
);
layerId = "670CA61E-2201-4EBA-9CF0-D57F8D98A45A";
paths = (
{
closed = 1;
nodes = (
"491.669 -20 OFFCURVE",
"627.614 94.234 OFFCURVE",
"660 299 CURVE SMOOTH",
"728 730 LINE",
"542 730 LINE",
"473 295 LINE SMOOTH",
"458.807 205.788 OFFCURVE",
"401.753 154 OFFCURVE",
"312 154 CURVE SMOOTH",
"229.702 154 OFFCURVE",
"180.823 213.117 OFFCURVE",
"194 295 CURVE SMOOTH",
"263 730 LINE",
"77 730 LINE",
"9 299 LINE SMOOTH",
"-20.489 112.557 OFFCURVE",
"94.495 -20 OFFCURVE",
"284 -20 CURVE SMOOTH"
);
}
);
width = 730;
},
{
anchors = (
{
name = bottom;
position = "{297, 0}";
},
{
name = ogonek;
position = "{424, 10}";
},
{
name = top;
position = "{413, 730}";
}
);
layerId = "A9BE7077-88A3-49D0-803C-7BC96B0B926B";
paths = (
{
closed = 1;
nodes = (
"489.878 -18 OFFCURVE",
"614.302 95.23 OFFCURVE",
"645 290 CURVE SMOOTH",
"715 730 LINE",
"617 730 LINE",
"545 278 LINE SMOOTH",
"524.975 147.309 OFFCURVE",
"440.659 72 OFFCURVE",
"309 72 CURVE SMOOTH",
"188.834 72 OFFCURVE",
"117.491 158.182 OFFCURVE",
"136 278 CURVE SMOOTH",
"208 730 LINE",
"110 730 LINE",
"40 290 LINE SMOOTH",
"11.876 111.56 OFFCURVE",
"116.118 -18 OFFCURVE",
"294 -18 CURVE SMOOTH"
);
}
);
width = 749;
},
{
anchors = (
{
name = bottom;
position = "{307, 0}";
},
{
name = ogonek;
position = "{402, 5}";
},
{
name = top;
position = "{423, 730}";
}
);
layerId = "45FAA47D-3C03-4CCA-BDE3-DFC1510ED13C";
paths = (
{
closed = 1;
nodes = (
"490.32 -16 OFFCURVE",
"608.048 90.848 OFFCURVE",
"638 275 CURVE SMOOTH",
"710 730 LINE",
"678 730 LINE",
"605 271 LINE SMOOTH",
"579.544 107.659 OFFCURVE",
"473.733 14 OFFCURVE",
"309 14 CURVE SMOOTH",
"159.792 14 OFFCURVE",
"71.747 121.795 OFFCURVE",
"95 271 CURVE SMOOTH",
"168 730 LINE",
"136 730 LINE",
"64 275 LINE SMOOTH",
"36.575 106.389 OFFCURVE",
"136.13 -16 OFFCURVE",
"305 -16 CURVE SMOOTH"
);
}
);
width = 768;
}
);
leftKerningGroup = UC_U;
rightKerningGroup = UC_U;
unicode = 0055;
},
{
color = 7;
glyphname = V;
layers = (
{
layerId = "670CA61E-2201-4EBA-9CF0-D57F8D98A45A";
paths = (
{
closed = 1;
nodes = (
"474.19 0 LINE",
"787.81 730 LINE",
"601.81 730 LINE",
"358.938 131 LINE",
"397.631 148 LINE",
"301.631 148 LINE",
"333.938 131 LINE",
"269.81 730 LINE",
"77.81 730 LINE",
"174.19 0 LINE"
);
}
);
width = 750;
},
{
layerId = "A9BE7077-88A3-49D0-803C-7BC96B0B926B";
paths = (
{
closed = 1;
nodes = (
"385.19 0 LINE",
"735.81 730 LINE",
"637.81 730 LINE",
"323.326 64 LINE",
"378.128 88 LINE",
"258.128 88 LINE",
"302.326 64 LINE",
"180.81 730 LINE",
"79.81 730 LINE",
"217.19 0 LINE"
);
}
);
width = 708;
},
{
layerId = "45FAA47D-3C03-4CCA-BDE3-DFC1510ED13C";
paths = (
{
closed = 1;
nodes = (
"323.19 0 LINE",
"701.81 730 LINE",
"668.81 730 LINE",
"298.407 14 LINE",
"329.941 30 LINE",
"250.941 30 LINE",
"275.407 14 LINE",
"118.81 730 LINE",
"85.81 730 LINE",
"246.19 0 LINE"
);
}
);
width = 680;
},
{
layerId = "3423A7C6-8126-4A24-975D-243FD1A28608";
name = public.background;
paths = (
{
closed = 1;
nodes = (
"381 0 LINE",
"644 730 LINE",
"611 730 LINE",
"354 14 LINE",
"383 30 LINE",
"304 30 LINE",
"331 14 LINE",
"61 730 LINE",
"28 730 LINE",
"304 0 LINE"
);
}
);
width = 750;
}
);
unicode = 0056;
},
{
color = 7;
glyphname = W;
layers = (
{
anchors = (
{
name = bottom;
position = "{513, 0}";
},
{
name = top;
position = "{505, 730}";
}
);
layerId = "3423A7C6-8126-4A24-975D-243FD1A28608";
name = public.background;
paths = (
{
closed = 1;
nodes = (
"336 0 LINE",
"511 695 LINE",
"480 695 LINE",
"310 19 LINE",
"319 30 LINE",
"266 30 LINE",
"277 19 LINE",
"72 730 LINE",
"40 730 LINE",
"251 0 LINE"
);
},
{
closed = 1;
nodes = (
"775 0 LINE",
"971 730 LINE",
"939 730 LINE",
"749 19 LINE",
"761 30 LINE",
"704 30 LINE",
"716 19 LINE",
"531 695 LINE",
"500 695 LINE",
"690 0 LINE"
);
}
);
width = 1080;
},
{
anchors = (
{
name = bottom;
position = "{487, 0}";
},
{
name = top;
position = "{599, 730}";
}
);
guideLines = (
{
position = "{0, 148}";
}
);
layerId = "670CA61E-2201-4EBA-9CF0-D57F8D98A45A";
paths = (
{
closed = 1;
nodes = (
"411 0 LINE",
"660 704 LINE",
"509 704 LINE",
"318 125 LINE",
"357 148 LINE",
"276 148 LINE",
"303 125 LINE",
"268 730 LINE",
"76 730 LINE",
"134 0 LINE"
);
},
{
closed = 1;
nodes = (
"851 0 LINE",
"1120 730 LINE",
"940 730 LINE",
"731 125 LINE",
"761 148 LINE",
"685 148 LINE",
"716 125 LINE",
"692 704 LINE",
"533 704 LINE",
"568 0 LINE"
);
}
);
width = 1080;
},
{
anchors = (
{
name = bottom;
position = "{472, 0}";
},
{
name = top;
position = "{581, 730}";
}
);
layerId = "A9BE7077-88A3-49D0-803C-7BC96B0B926B";
paths = (
{
closed = 1;
nodes = (
"336 0 LINE",
"606 700 LINE",
"514 700 LINE",
"274 64 LINE",
"330 88 LINE",
"211 88 LINE",
"254 64 LINE",
"189 730 LINE",
"88 730 LINE",
"169 0 LINE"
);
},
{
closed = 1;
nodes = (
"776 0 LINE",
"1071 730 LINE",
"973 730 LINE",
"714 64 LINE",
"769 88 LINE",
"649 88 LINE",
"695 64 LINE",
"639 700 LINE",
"544 700 LINE",
"608 0 LINE"
);
}
);
width = 1043;
},
{
anchors = (
{
name = bottom;
position = "{455, 0}";
},
{
name = top;
position = "{563, 730}";
}
);
layerId = "45FAA47D-3C03-4CCA-BDE3-DFC1510ED13C";
paths = (
{
closed = 1;
nodes = (
"278 0 LINE",
"563 695 LINE",
"532 695 LINE",
"255 19 LINE",
"266 30 LINE",
"213 30 LINE",
"222 19 LINE",
"130 730 LINE",
"98 730 LINE",
"193 0 LINE"
);
},
{
closed = 1;
nodes = (
"717 0 LINE",
"1029 730 LINE",
"997 730 LINE",
"694 19 LINE",
"708 30 LINE",
"651 30 LINE",
"661 19 LINE",
"583 695 LINE",
"552 695 LINE",
"632 0 LINE"
);
}
);
width = 1011;
}
);
leftKerningGroup = UC_W;
rightKerningGroup = UC_W;
unicode = 0057;
},
{
color = 7;
glyphname = X;
layers = (
{
layerId = "670CA61E-2201-4EBA-9CF0-D57F8D98A45A";
paths = (
{
closed = 1;
nodes = (
"146.19 0 LINE",
"325.36 241 LINE",
"351.36 241 LINE",
"462.19 0 LINE",
"666.19 0 LINE",
"477.326 386 LINE",
"477.792 370 LINE",
"757.81 730 LINE",
"559.81 730 LINE",
"405.391 519 LINE",
"379.391 519 LINE",
"287.81 730 LINE",
"83.81 730 LINE",
"251.109 372 LINE",
"251.643 388 LINE",
"-51.81 0 LINE"
);
}
);
width = 730;
},
{
layerId = "A9BE7077-88A3-49D0-803C-7BC96B0B926B";
paths = (
{
closed = 1;
nodes = (
"64.19 0 LINE",
"323.814 307 LINE",
"339.814 307 LINE",
"509.19 0 LINE",
"620.19 0 LINE",
"405.326 386 LINE",
"403.475 368 LINE",
"715.81 730 LINE",
"609.81 730 LINE",
"371.463 450 LINE",
"355.463 450 LINE",
"208.81 730 LINE",
"97.81 730 LINE",
"289.109 372 LINE",
"291.96 390 LINE",
"-41.81 0 LINE"
);
}
);
width = 696;
},
{
layerId = "45FAA47D-3C03-4CCA-BDE3-DFC1510ED13C";
paths = (
{
closed = 1;
nodes = (
"2.19 0 LINE",
"321.575 356 LINE",
"331.575 356 LINE",
"531.19 0 LINE",
"566.19 0 LINE",
"350.851 383 LINE",
"345.366 361 LINE",
"670.81 730 LINE",
"634.81 730 LINE",
"340.91 396 LINE",
"330.91 396 LINE",
"147.81 730 LINE",
"112.81 730 LINE",
"311.634 369 LINE",
"317.118 391 LINE",
"-33.652 1 LINE"
);
}
);
width = 662;
},
{
layerId = "3423A7C6-8126-4A24-975D-243FD1A28608";
name = public.background;
paths = (
{
closed = 1;
nodes = (
"60 0 LINE",
"323 356 LINE",
"333 356 LINE",
"589 0 LINE",
"624 0 LINE",
"348 383 LINE",
"346 361 LINE",
"613 730 LINE",
"577 730 LINE",
"336 396 LINE",
"326 396 LINE",
"90 730 LINE",
"55 730 LINE",
"311 369 LINE",
"313 391 LINE",
"24 1 LINE"
);
}
);
width = 730;
}
);
leftKerningGroup = UC_X;
rightKerningGroup = UC_X;
unicode = 0058;
},
{
color = 7;
glyphname = Y;
layers = (
{
anchors = (
{
name = bottom;
position = "{325, 0}";
},
{
name = top;
position = "{320, 730}";
}
);
layerId = "3423A7C6-8126-4A24-975D-243FD1A28608";
name = public.background;
paths = (
{
closed = 1;
nodes = (
"379 289 LINE",
"608 730 LINE",
"575 730 LINE",
"355 304 LINE",
"373 319 LINE",
"277 319 LINE",
"296 304 LINE",
"66 730 LINE",
"32 730 LINE",
"271 289 LINE"
);
},
{
closed = 1;
nodes = (
"341 0 LINE",
"341 301 LINE",
"309 301 LINE",
"309 0 LINE"
);
}
);
width = 658;
},
{
anchors = (
{
name = bottom;
position = "{280, 0}";
},
{
name = top;
position = "{392, 730}";
}
);
layerId = "670CA61E-2201-4EBA-9CF0-D57F8D98A45A";
paths = (
{
closed = 1;
nodes = (
"451 274 LINE",
"712 730 LINE",
"532 730 LINE",
"357 405 LINE",
"387 414 LINE",
"315 414 LINE",
"339 405 LINE",
"252 730 LINE",
"62 730 LINE",
"197 274 LINE"
);
},
{
closed = 1;
nodes = (
"371 0 LINE",
"418 298 LINE",
"236 298 LINE",
"189 0 LINE"
);
}
);
width = 658;
},
{
anchors = (
{
name = bottom;
position = "{274, 0}";
},
{
name = top;
position = "{381, 730}";
}
);
layerId = "A9BE7077-88A3-49D0-803C-7BC96B0B926B";
paths = (
{
closed = 1;
nodes = (
"403 284 LINE",
"692 730 LINE",
"596 730 LINE",
"351 348 LINE",
"393 359 LINE",
"275 359 LINE",
"311 348 LINE",
"176 730 LINE",
"74 730 LINE",
"235 284 LINE"
);
},
{
closed = 1;
nodes = (
"322 0 LINE",
"370 304 LINE",
"274 304 LINE",
"226 0 LINE"
);
}
);
width = 652;
},
{
anchors = (
{
name = bottom;
position = "{267, 0}";
},
{
name = top;
position = "{378, 730}";
}
);
layerId = "45FAA47D-3C03-4CCA-BDE3-DFC1510ED13C";
paths = (
{
closed = 1;
nodes = (
"367 289 LINE",
"666 730 LINE",
"633 730 LINE",
"345 304 LINE",
"366 319 LINE",
"270 319 LINE",
"286 304 LINE",
"124 730 LINE",
"90 730 LINE",
"259 289 LINE"
);
},
{
closed = 1;
nodes = (
"283 0 LINE",
"331 301 LINE",
"299 301 LINE",
"251 0 LINE"
);
}
);
width = 644;
}
);
leftKerningGroup = UC_Y;
rightKerningGroup = UC_Y;
unicode = 0059;
},
{
color = 7;
glyphname = Z;
layers = (
{
anchors = (
{
name = bottom;
position = "{354, 0}";
},
{
name = center;
position = "{338, 365}";
},
{
name = top;
position = "{334, 730}";
}
);
layerId = "3423A7C6-8126-4A24-975D-243FD1A28608";
name = public.background;
paths = (
{
closed = 1;
nodes = (
"604 0 LINE",
"604 30 LINE",
"113 30 LINE",
"127 10 LINE",
"111 57 LINE",
"103 28 LINE",
"586 678 LINE",
"586 730 LINE",
"89 730 LINE",
"89 700 LINE",
"557 700 LINE",
"543 720 LINE",
"559 673 LINE",
"567 702 LINE",
"84 52 LINE",
"84 0 LINE"
);
}
);
width = 645;
},
{
anchors = (
{
name = bottom;
position = "{267, 0}";
},
{
name = center;
position = "{317, 365}";
},
{
name = top;
position = "{388, 730}";
}
);
layerId = "670CA61E-2201-4EBA-9CF0-D57F8D98A45A";
paths = (
{
closed = 1;
nodes = (
"555 0 LINE",
"579 152 LINE",
"232 152 LINE",
"252 132 LINE",
"225 177 LINE",
"227 158 LINE",
"655 606 LINE",
"675 730 LINE",
"102 730 LINE",
"78 578 LINE",
"414 578 LINE",
"394 598 LINE",
"421 554 LINE",
"419 572 LINE",
"-8 124 LINE",
"-28 0 LINE"
);
}
);
width = 645;
},
{
anchors = (
{
name = bottom;
position = "{278, 0}";
},
{
name = center;
position = "{328, 365}";
},
{
name = top;
position = "{383, 730}";
}
);
layerId = "A9BE7077-88A3-49D0-803C-7BC96B0B926B";
paths = (
{
closed = 1;
nodes = (
"550 0 LINE",
"563 82 LINE",
"105 82 LINE",
"128 66 LINE",
"103 111 LINE",
"99 83 LINE",
"634 610 LINE",
"653 730 LINE",
"129 730 LINE",
"116 648 LINE",
"547 648 LINE",
"532 659 LINE",
"552 623 LINE",
"557 647 LINE",
"23 120 LINE",
"4 0 LINE"
);
}
);
width = 654;
},
{
anchors = (
{
name = bottom;
position = "{296, 0}";
},
{
name = center;
position = "{338, 365}";
},
{
name = top;
position = "{392, 730}";
}
);
layerId = "45FAA47D-3C03-4CCA-BDE3-DFC1510ED13C";
paths = (
{
closed = 1;
nodes = (
"546 0 LINE",
"551 30 LINE",
"60 30 LINE",
"71 10 LINE",
"62 57 LINE",
"50 28 LINE",
"636 678 LINE",
"644 730 LINE",
"147 730 LINE",
"142 700 LINE",
"610 700 LINE",
"599 720 LINE",
"608 673 LINE",
"620 702 LINE",
"34 52 LINE",
"26 0 LINE"
);
}
);
width = 662;
}
);
leftKerningGroup = UC_Z;
rightKerningGroup = UC_Z;
unicode = 005A;
},
{
color = 9;
glyphname = I.salt;
layers = (
{
anchors = (
{
name = bottom;
position = "{222, 0}";
},
{
name = ogonek;
position = "{254, 10}";
},
{
name = top;
position = "{222, 730}";
}
);
layerId = "3423A7C6-8126-4A24-975D-243FD1A28608";
name = public.background;
paths = (
{
closed = 1;
nodes = (
"238 10 LINE",
"238 720 LINE",
"206 720 LINE",
"206 10 LINE"
);
},
{
closed = 1;
nodes = (
"330 0 LINE",
"330 30 LINE",
"114 30 LINE",
"114 0 LINE"
);
},
{
closed = 1;
nodes = (
"330 700 LINE",
"330 730 LINE",
"114 730 LINE",
"114 700 LINE"
);
}
);
width = 460;
},
{
anchors = (
{
name = bottom;
position = "{173, 0}";
},
{
name = ogonek;
position = "{249, 10}";
},
{
name = top;
position = "{289, 730}";
}
);
layerId = "670CA61E-2201-4EBA-9CF0-D57F8D98A45A";
paths = (
{
closed = 1;
nodes = (
"284 118 LINE",
"362 612 LINE",
"176 612 LINE",
"98 118 LINE"
);
},
{
closed = 1;
nodes = (
"344 0 LINE",
"366 138 LINE",
"22 138 LINE",
"0 0 LINE"
);
},
{
closed = 1;
nodes = (
"438 592 LINE",
"460 730 LINE",
"116 730 LINE",
"94 592 LINE"
);
}
);
width = 460;
},
{
anchors = (
{
name = bottom;
position = "{166, 0}";
},
{
name = ogonek;
position = "{226, 10}";
},
{
name = top;
position = "{282, 730}";
}
);
layerId = "A9BE7077-88A3-49D0-803C-7BC96B0B926B";
paths = (
{
closed = 1;
nodes = (
"225 64 LINE",
"321 666 LINE",
"223 666 LINE",
"127 64 LINE"
);
},
{
closed = 1;
nodes = (
"302 0 LINE",
"315 84 LINE",
"43 84 LINE",
"30 0 LINE"
);
},
{
closed = 1;
nodes = (
"405 646 LINE",
"418 730 LINE",
"146 730 LINE",
"133 646 LINE"
);
}
);
width = 448;
},
{
anchors = (
{
name = bottom;
position = "{164, 0}";
},
{
name = ogonek;
position = "{198, 10}";
},
{
name = top;
position = "{280, 730}";
}
);
layerId = "45FAA47D-3C03-4CCA-BDE3-DFC1510ED13C";
paths = (
{
closed = 1;
nodes = (
"182 10 LINE",
"294 720 LINE",
"262 720 LINE",
"150 10 LINE"
);
},
{
closed = 1;
nodes = (
"272 0 LINE",
"277 30 LINE",
"61 30 LINE",
"56 0 LINE"
);
},
{
closed = 1;
nodes = (
"383 700 LINE",
"388 730 LINE",
"172 730 LINE",
"167 700 LINE"
);
}
);
width = 444;
}
);
leftKerningGroup = UC_Isalt;
rightKerningGroup = UC_Isalt;
},
{
color = 9;
glyphname = J.salt;
layers = (
{
anchors = (
{
name = bottom;
position = "{265, 0}";
},
{
name = top;
position = "{437, 730}";
}
);
layerId = "3423A7C6-8126-4A24-975D-243FD1A28608";
name = public.background;
paths = (
{
closed = 1;
nodes = (
"380 -19 OFFCURVE",
"453 49 OFFCURVE",
"453 173 CURVE SMOOTH",
"453 730 LINE",
"421 730 LINE",
"421 169 LINE SMOOTH",
"421 57 OFFCURVE",
"354 11 OFFCURVE",
"264 11 CURVE SMOOTH",
"174 11 OFFCURVE",
"106 57 OFFCURVE",
"106 169 CURVE SMOOTH",
"106 305 LINE",
"74 305 LINE",
"74 173 LINE SMOOTH",
"74 49 OFFCURVE",
"148 -19 OFFCURVE",
"264 -19 CURVE SMOOTH"
);
}
);
width = 563;
},
{
anchors = (
{
name = bottom;
position = "{227, 0}";
},
{
name = top;
position = "{511, 730}";
}
);
layerId = "670CA61E-2201-4EBA-9CF0-D57F8D98A45A";
paths = (
{
closed = 1;
nodes = (
"394.473 -22 OFFCURVE",
"500.828 77.887 OFFCURVE",
"527 247 CURVE SMOOTH",
"604 730 LINE",
"418 730 LINE",
"338 227 LINE SMOOTH",
"330.755 179.389 OFFCURVE",
"299.979 152 OFFCURVE",
"252 152 CURVE SMOOTH",
"208.287 152 OFFCURVE",
"182.359 183.362 OFFCURVE",
"189 227 CURVE SMOOTH",
"206 336 LINE",
"20 336 LINE",
"6 247 LINE SMOOTH",
"-18.07 91.473 OFFCURVE",
"71.05 -22 OFFCURVE",
"225 -22 CURVE SMOOTH"
);
}
);
width = 612;
},
{
anchors = (
{
name = bottom;
position = "{216, 0}";
},
{
name = top;
position = "{497, 730}";
}
);
layerId = "A9BE7077-88A3-49D0-803C-7BC96B0B926B";
paths = (
{
closed = 1;
nodes = (
"352.179 -20 OFFCURVE",
"440.552 64.831 OFFCURVE",
"463 207 CURVE SMOOTH",
"546 730 LINE",
"448 730 LINE",
"362 189 LINE SMOOTH",
"350.027 113.17 OFFCURVE",
"300.595 70 OFFCURVE",
"224 70 CURVE SMOOTH",
"154.454 70 OFFCURVE",
"113.075 119.808 OFFCURVE",
"124 189 CURVE SMOOTH",
"145 318 LINE",
"47 318 LINE",
"29 207 LINE SMOOTH",
"8.363 76.298 OFFCURVE",
"81.542 -20 OFFCURVE",
"210 -20 CURVE SMOOTH"
);
}
);
width = 586;
},
{
anchors = (
{
name = bottom;
position = "{207, 0}";
},
{
name = top;
position = "{495, 730}";
}
);
layerId = "45FAA47D-3C03-4CCA-BDE3-DFC1510ED13C";
paths = (
{
closed = 1;
nodes = (
"325.433 -19 OFFCURVE",
"403.386 51.391 OFFCURVE",
"423 173 CURVE SMOOTH",
"511 730 LINE",
"479 730 LINE",
"390 169 LINE SMOOTH",
"373.877 68.679 OFFCURVE",
"309.138 11 OFFCURVE",
"208 11 CURVE SMOOTH",
"115.449 11 OFFCURVE",
"60.236 77.137 OFFCURVE",
"75 169 CURVE SMOOTH",
"96 305 LINE",
"64 305 LINE",
"44 173 LINE SMOOTH",
"26.053 61.732 OFFCURVE",
"91.65 -19 OFFCURVE",
"203 -19 CURVE SMOOTH"
);
}
);
width = 575;
}
);
leftKerningGroup = UC_Jsalt;
rightKerningGroup = UC_Jsalt;
},
{
color = 9;
glyphname = P.salt;
layers = (
{
layerId = "670CA61E-2201-4EBA-9CF0-D57F8D98A45A";
paths = (
{
closed = 1;
nodes = (
"388.727 240 LINE SMOOTH",
"560.246 240 OFFCURVE",
"683.761 315.983 OFFCURVE",
"709.739 480 CURVE SMOOTH",
"712.273 496 LINE SMOOTH",
"735.476 642.499 OFFCURVE",
"627.357 736 OFFCURVE",
"467.285 736 CURVE SMOOTH",
"299.285 736 LINE",
"273.944 576 LINE",
"448.944 576 LINE SMOOTH",
"500.433 576 OFFCURVE",
"531.112 539.179 OFFCURVE",
"523.006 488 CURVE SMOOTH",
"514.13 431.957 OFFCURVE",
"477.658 400 OFFCURVE",
"421.068 400 CURVE SMOOTH",
"246.068 400 LINE",
"220.727 240 LINE"
);
},
{
closed = 1;
nodes = (
"202.715 0 LINE",
"319.285 736 LINE",
"133.285 736 LINE",
"16.715 0 LINE"
);
}
);
width = 712;
},
{
layerId = "A9BE7077-88A3-49D0-803C-7BC96B0B926B";
paths = (
{
closed = 1;
nodes = (
"378.922 316 LINE SMOOTH",
"525.445 316 OFFCURVE",
"632.695 377.703 OFFCURVE",
"654.758 517 CURVE SMOOTH",
"657.292 533 LINE SMOOTH",
"676.935 657.023 OFFCURVE",
"582.496 734 OFFCURVE",
"445.127 734 CURVE SMOOTH",
"243.127 734 LINE",
"229.506 648 LINE",
"449.506 648 LINE SMOOTH",
"522.797 648 OFFCURVE",
"567.422 596.956 OFFCURVE",
"556.025 525 CURVE SMOOTH",
"543.5 445.925 OFFCURVE",
"490.807 402 OFFCURVE",
"410.543 402 CURVE SMOOTH",
"190.543 402 LINE",
"176.922 316 LINE"
);
},
{
closed = 1;
nodes = (
"146.873 0 LINE",
"263.127 734 LINE",
"165.127 734 LINE",
"48.873 0 LINE"
);
}
);
width = 653;
},
{
layerId = "45FAA47D-3C03-4CCA-BDE3-DFC1510ED13C";
paths = (
{
closed = 1;
nodes = (
"386.366 362 LINE SMOOTH",
"509.222 362 OFFCURVE",
"593.997 422.802 OFFCURVE",
"612.876 542 CURVE SMOOTH",
"614.46 552 LINE SMOOTH",
"631.468 659.389 OFFCURVE",
"558.381 732 OFFCURVE",
"444.969 732 CURVE SMOOTH",
"201.969 732 LINE",
"197.217 702 LINE",
"442.217 702 LINE SMOOTH",
"536.914 702 OFFCURVE",
"596.151 638.448 OFFCURVE",
"581.668 547 CURVE SMOOTH",
"565.677 446.036 OFFCURVE",
"496.318 392 OFFCURVE",
"393.118 392 CURVE SMOOTH",
"148.118 392 LINE",
"143.366 362 LINE"
);
},
{
closed = 1;
nodes = (
"104.031 0 LINE",
"219.969 732 LINE",
"187.969 732 LINE",
"72.031 0 LINE"
);
}
);
width = 609;
},
{
layerId = "3423A7C6-8126-4A24-975D-243FD1A28608";
name = public.background;
paths = (
{
closed = 1;
nodes = (
"387 362 LINE SMOOTH",
"527 362 OFFCURVE",
"585 441 OFFCURVE",
"585 542 CURVE SMOOTH",
"585 552 LINE SMOOTH",
"585 653 OFFCURVE",
"527 732 OFFCURVE",
"387 732 CURVE SMOOTH",
"144 732 LINE",
"144 702 LINE",
"389 702 LINE SMOOTH",
"510 702 OFFCURVE",
"553 635 OFFCURVE",
"553 547 CURVE SMOOTH",
"553 459 OFFCURVE",
"510 392 OFFCURVE",
"389 392 CURVE SMOOTH",
"144 392 LINE",
"144 362 LINE"
);
},
{
closed = 1;
nodes = (
"162 0 LINE",
"162 732 LINE",
"130 732 LINE",
"130 0 LINE"
);
}
);
width = 712;
}
);
leftKerningGroup = UC_Stem;
},
{
color = 9;
glyphname = Q.salt;
layers = (
{
layerId = "3423A7C6-8126-4A24-975D-243FD1A28608";
name = public.background;
paths = (
{
closed = 1;
nodes = (
"365 -64 LINE",
"106 288 LINE",
"70 288 LINE",
"329 -64 LINE"
);
}
);
width = 427;
},
{
components = (
{
name = O;
alignment = -1;
}
);
guideLines = (
{
angle = 90;
position = "{431, 0}";
}
);
layerId = "670CA61E-2201-4EBA-9CF0-D57F8D98A45A";
paths = (
{
closed = 1;
nodes = (
"715 -82 LINE",
"498 302 LINE",
"322 302 LINE",
"539 -82 LINE"
);
}
);
width = 864;
},
{
components = (
{
name = O;
alignment = -1;
}
);
guideLines = (
{
angle = 90;
position = "{431, 0}";
},
{
angle = 135;
position = "{431, 360}";
}
);
layerId = "A9BE7077-88A3-49D0-803C-7BC96B0B926B";
paths = (
{
closed = 1;
nodes = (
"700 -70 LINE",
"490 294 LINE",
"394 294 LINE",
"604 -70 LINE"
);
}
);
width = 865;
},
{
components = (
{
name = O;
alignment = -1;
}
);
layerId = "45FAA47D-3C03-4CCA-BDE3-DFC1510ED13C";
paths = (
{
closed = 1;
nodes = (
"682 -64 LINE",
"478 288 LINE",
"442 288 LINE",
"646 -64 LINE"
);
}
);
width = 872;
}
);
leftKerningGroup = UC_Qsalt;
rightKerningGroup = UC_Qsalt;
},
{
color = 9;
glyphname = R.salt;
layers = (
{
anchors = (
{
name = bottom;
position = "{373, 0}";
},
{
name = top;
position = "{333, 730}";
}
);
layerId = "3423A7C6-8126-4A24-975D-243FD1A28608";
name = public.background;
paths = (
{
closed = 1;
nodes = (
"162 0 LINE",
"162 732 LINE",
"130 732 LINE",
"130 0 LINE"
);
},
{
closed = 1;
nodes = (
"621 0 LINE",
"417 368 LINE",
"382 368 LINE",
"586 0 LINE"
);
},
{
closed = 1;
nodes = (
"393 358 LINE SMOOTH",
"531 358 OFFCURVE",
"591 433 OFFCURVE",
"591 540 CURVE SMOOTH",
"591 550 LINE SMOOTH",
"591 657 OFFCURVE",
"531 732 OFFCURVE",
"393 732 CURVE SMOOTH",
"144 732 LINE",
"144 702 LINE",
"395 702 LINE SMOOTH",
"516 702 OFFCURVE",
"559 636 OFFCURVE",
"559 545 CURVE SMOOTH",
"559 454 OFFCURVE",
"516 388 OFFCURVE",
"395 388 CURVE SMOOTH",
"144 388 LINE",
"144 358 LINE"
);
}
);
width = 750;
},
{
anchors = (
{
name = bottom;
position = "{324, 0}";
},
{
name = top;
position = "{422, 730}";
}
);
layerId = "670CA61E-2201-4EBA-9CF0-D57F8D98A45A";
paths = (
{
closed = 1;
nodes = (
"203 0 LINE",
"319 736 LINE",
"133 736 LINE",
"17 0 LINE"
);
},
{
closed = 1;
nodes = (
"656 0 LINE",
"560 304 LINE",
"357 304 LINE",
"449 0 LINE"
);
},
{
closed = 1;
nodes = (
"395 253 LINE SMOOTH",
"564.771 253 OFFCURVE",
"688.928 324.553 OFFCURVE",
"715 486 CURVE",
"717 502 LINE",
"740.272 646.106 OFFCURVE",
"630.69 736 OFFCURVE",
"471 736 CURVE SMOOTH",
"299 736 LINE",
"274 576 LINE",
"452 576 LINE SMOOTH",
"504.262 576 OFFCURVE",
"535.11 538.263 OFFCURVE",
"527 486 CURVE SMOOTH",
"518.11 428.707 OFFCURVE",
"480.833 396 OFFCURVE",
"423 396 CURVE SMOOTH",
"245 396 LINE",
"223 253 LINE"
);
}
);
width = 750;
},
{
anchors = (
{
name = bottom;
position = "{319, 0}";
},
{
name = top;
position = "{397, 730}";
}
);
layerId = "A9BE7077-88A3-49D0-803C-7BC96B0B926B";
paths = (
{
closed = 1;
nodes = (
"147 0 LINE",
"263 734 LINE",
"165 734 LINE",
"49 0 LINE"
);
},
{
closed = 1;
nodes = (
"603 0 LINE",
"503 337 LINE",
"398 337 LINE",
"494 0 LINE"
);
},
{
closed = 1;
nodes = (
"383 313 LINE SMOOTH",
"529.899 313 OFFCURVE",
"636.785 376.044 OFFCURVE",
"659 516 CURVE",
"661 532 LINE",
"680.715 656.202 OFFCURVE",
"587.021 734 OFFCURVE",
"450 734 CURVE SMOOTH",
"243 734 LINE",
"230 648 LINE",
"456 648 LINE SMOOTH",
"528.38 648 OFFCURVE",
"571.38 596.072 OFFCURVE",
"560 524 CURVE SMOOTH",
"547.516 444.934 OFFCURVE",
"495.891 400 OFFCURVE",
"416 400 CURVE SMOOTH",
"190 400 LINE",
"176 313 LINE"
);
}
);
width = 711;
},
{
anchors = (
{
name = bottom;
position = "{315, 0}";
},
{
name = top;
position = "{391, 730}";
}
);
layerId = "45FAA47D-3C03-4CCA-BDE3-DFC1510ED13C";
paths = (
{
closed = 1;
nodes = (
"104 0 LINE",
"220 732 LINE",
"188 732 LINE",
"72 0 LINE"
);
},
{
closed = 1;
nodes = (
"563 0 LINE",
"417 368 LINE",
"382 368 LINE",
"528 0 LINE"
);
},
{
closed = 1;
nodes = (
"392 358 LINE SMOOTH",
"515.389 358 OFFCURVE",
"599.937 420.018 OFFCURVE",
"619 540 CURVE",
"620 550 LINE",
"637.189 658.189 OFFCURVE",
"564.61 732 OFFCURVE",
"451 732 CURVE SMOOTH",
"202 732 LINE",
"197 702 LINE",
"448 702 LINE SMOOTH",
"543.183 702 OFFCURVE",
"602.197 637.196 OFFCURVE",
"587 545 CURVE SMOOTH",
"571.33 443.142 OFFCURVE",
"501.897 388 OFFCURVE",
"398 388 CURVE SMOOTH",
"147 388 LINE",
"143 358 LINE"
);
}
);
width = 683;
}
);
leftKerningGroup = UC_Stem;
rightKerningGroup = UC_Rsalt;
},
{
color = 7;
glyphname = a;
layers = (
{
anchors = (
{
name = ogonek;
position = "{454, 10}";
},
{
name = top;
position = "{273, 521}";
}
);
layerId = "3423A7C6-8126-4A24-975D-243FD1A28608";
name = public.background;
paths = (
{
closed = 1;
nodes = (
"454 0 LINE",
"454 344 LINE SMOOTH",
"454 461 OFFCURVE",
"404 525 OFFCURVE",
"249 525 CURVE SMOOTH",
"209 525 OFFCURVE",
"163 521 OFFCURVE",
"124 515 CURVE",
"124 485 LINE",
"162 491 OFFCURVE",
"212 495 OFFCURVE",
"265 495 CURVE SMOOTH",
"380 495 OFFCURVE",
"422 441 OFFCURVE",
"422 352 CURVE SMOOTH",
"422 156 LINE",
"428 156 LINE",
"428 0 LINE"
);
},
{
closed = 1;
nodes = (
"344 -14 OFFCURVE",
"433 46 OFFCURVE",
"438 172 CURVE",
"422 188 LINE",
"418 57 OFFCURVE",
"326 14 OFFCURVE",
"243 14 CURVE SMOOTH",
"156 14 OFFCURVE",
"92 63 OFFCURVE",
"92 146 CURVE SMOOTH",
"92 223 OFFCURVE",
"145 274 OFFCURVE",
"243 274 CURVE SMOOTH",
"424 274 LINE",
"424 302 LINE",
"249 302 LINE SMOOTH",
"129 302 OFFCURVE",
"60 241 OFFCURVE",
"60 147 CURVE SMOOTH",
"60 43 OFFCURVE",
"142 -14 OFFCURVE",
"241 -14 CURVE SMOOTH"
);
}
);
width = 586;
},
{
anchors = (
{
name = ogonek;
position = "{495, 10}";
},
{
name = top;
position = "{337, 552}";
}
);
layerId = "670CA61E-2201-4EBA-9CF0-D57F8D98A45A";
paths = (
{
closed = 1;
nodes = (
"499 0 LINE",
"553 335 LINE SMOOTH",
"574.721 473.47 OFFCURVE",
"472.953 562 OFFCURVE",
"322 562 CURVE SMOOTH",
"250.427 562 OFFCURVE",
"200.335 559.823 OFFCURVE",
"129 554 CURVE",
"105 402 LINE",
"182.716 406.572 OFFCURVE",
"237.145 410 OFFCURVE",
"315 410 CURVE SMOOTH",
"359.24 410 OFFCURVE",
"385.863 378.75 OFFCURVE",
"379 335 CURVE SMOOTH",
"351 162 LINE",
"381 162 LINE",
"355 0 LINE"
);
},
{
closed = 1;
nodes = (
"293.077 -14 OFFCURVE",
"365.244 50.993 OFFCURVE",
"393 164 CURVE",
"358 204 LINE",
"345.449 145.952 OFFCURVE",
"313.442 108 OFFCURVE",
"256 108 CURVE SMOOTH",
"212.144 108 OFFCURVE",
"182.895 134.297 OFFCURVE",
"189 175 CURVE SMOOTH",
"196.778 220.558 OFFCURVE",
"229.799 243 OFFCURVE",
"277 243 CURVE SMOOTH",
"384 243 LINE",
"399 337 LINE",
"292 337 LINE SMOOTH",
"145.691 337 OFFCURVE",
"28.707 296.581 OFFCURVE",
"7 162 CURVE SMOOTH",
"-9.231 56.019 OFFCURVE",
"64.948 -14 OFFCURVE",
"178 -14 CURVE SMOOTH"
);
}
);
width = 601;
},
{
anchors = (
{
name = ogonek;
position = "{450, 10}";
},
{
name = top;
position = "{321, 534}";
}
);
layerId = "A9BE7077-88A3-49D0-803C-7BC96B0B926B";
paths = (
{
closed = 1;
nodes = (
"448 0 LINE",
"502 338 LINE SMOOTH",
"520.985 460.988 OFFCURVE",
"431.435 540 OFFCURVE",
"298 540 CURVE SMOOTH",
"243.112 540 OFFCURVE",
"204.656 539.084 OFFCURVE",
"150 534 CURVE",
"137 450 LINE",
"203.199 454.514 OFFCURVE",
"249.647 456 OFFCURVE",
"316 456 CURVE SMOOTH",
"381.422 456 OFFCURVE",
"420.771 409.845 OFFCURVE",
"411 345 CURVE SMOOTH",
"382 160 LINE",
"398 160 LINE",
"372 0 LINE"
);
},
{
closed = 1;
nodes = (
"308.542 -14 OFFCURVE",
"380.689 48.805 OFFCURVE",
"408 160 CURVE",
"388 198 LINE",
"370.518 111.42 OFFCURVE",
"314.691 62 OFFCURVE",
"227 62 CURVE SMOOTH",
"159.392 62 OFFCURVE",
"112.755 99.553 OFFCURVE",
"123 160 CURVE SMOOTH",
"133.489 228.758 OFFCURVE",
"185.878 260 OFFCURVE",
"258 260 CURVE SMOOTH",
"407 260 LINE",
"419 332 LINE",
"274 332 LINE SMOOTH",
"144.532 332 OFFCURVE",
"47.341 281.916 OFFCURVE",
"29 160 CURVE SMOOTH",
"12.119 55.902 OFFCURVE",
"84.176 -14 OFFCURVE",
"195 -14 CURVE SMOOTH"
);
}
);
width = 580;
},
{
anchors = (
{
name = ogonek;
position = "{414, 10}";
},
{
name = top;
position = "{314, 521}";
}
);
layerId = "45FAA47D-3C03-4CCA-BDE3-DFC1510ED13C";
paths = (
{
closed = 1;
nodes = (
"412 0 LINE",
"467 344 LINE SMOOTH",
"483.77 453.004 OFFCURVE",
"407.368 525 OFFCURVE",
"291 525 CURVE SMOOTH",
"243.75 525 OFFCURVE",
"210.724 522.009 OFFCURVE",
"164 515 CURVE",
"159 485 LINE",
"211.555 493.085 OFFCURVE",
"248.833 495 OFFCURVE",
"302 495 CURVE SMOOTH",
"391.756 495 OFFCURVE",
"449.406 437.224 OFFCURVE",
"436 352 CURVE SMOOTH",
"405 156 LINE",
"411 156 LINE",
"386 0 LINE"
);
},
{
closed = 1;
nodes = (
"319.648 -14 OFFCURVE",
"400.142 51.754 OFFCURVE",
"424 172 CURVE",
"410 188 LINE",
"388.8 76.914 OFFCURVE",
"316.542 14 OFFCURVE",
"204 14 CURVE SMOOTH",
"117.763 14 OFFCURVE",
"60.579 66.431 OFFCURVE",
"74 146 CURVE SMOOTH",
"87.63 233.462 OFFCURVE",
"153.529 274 OFFCURVE",
"245 274 CURVE SMOOTH",
"426 274 LINE",
"430 302 LINE",
"255 302 LINE SMOOTH",
"141.936 302 OFFCURVE",
"59.15 254.475 OFFCURVE",
"42 147 CURVE SMOOTH",
"26.221 50.467 OFFCURVE",
"93.742 -14 OFFCURVE",
"197 -14 CURVE SMOOTH"
);
}
);
width = 562;
}
);
leftKerningGroup = lc_a;
rightKerningGroup = lc_a;
unicode = 0061;
},
{
color = 7;
glyphname = ae;
layers = (
{
guideLines = (
{
position = "{0, 160}";
}
);
layerId = "670CA61E-2201-4EBA-9CF0-D57F8D98A45A";
paths = (
{
closed = 1;
nodes = (
"752.699 -20 OFFCURVE",
"852.031 40.796 OFFCURVE",
"901.419 174 CURVE",
"735.419 174 LINE",
"712.315 134.954 OFFCURVE",
"676.85 126 OFFCURVE",
"630.817 126 CURVE SMOOTH",
"554.652 126 OFFCURVE",
"518.01 190.357 OFFCURVE",
"531.099 273 CURVE SMOOTH",
"545.1 361.394 OFFCURVE",
"587.263 424 OFFCURVE",
"672.015 424 CURVE SMOOTH",
"743.224 424 OFFCURVE",
"772.884 360.032 OFFCURVE",
"760.208 280 CURVE",
"829.702 321 LINE",
"520.702 321 LINE",
"505.814 227 LINE",
"919.814 227 LINE",
"928.525 282 LINE SMOOTH",
"954.782 447.782 OFFCURVE",
"862.043 570 OFFCURVE",
"699.14 570 CURVE SMOOTH",
"551.033 570 OFFCURVE",
"461.674 484.916 OFFCURVE",
"414.028 342 CURVE",
"526.028 342 LINE",
"543.036 473.232 OFFCURVE",
"455.937 561 OFFCURVE",
"319.714 561 CURVE SMOOTH",
"249.152 561 OFFCURVE",
"199.77 558.784 OFFCURVE",
"129.447 553 CURVE",
"105.373 401 LINE",
"183.186 405.602 OFFCURVE",
"237.686 409 OFFCURVE",
"315.64 409 CURVE SMOOTH",
"359.523 409 OFFCURVE",
"385.669 377.619 OFFCURVE",
"378.761 334 CURVE SMOOTH",
"358.804 208 LINE SMOOTH",
"349.138 146.967 OFFCURVE",
"315.524 107 OFFCURVE",
"255.808 107 CURVE SMOOTH",
"212.062 107 OFFCURVE",
"182.999 133.465 OFFCURVE",
"189.419 174 CURVE SMOOTH",
"196.643 219.611 OFFCURVE",
"229.89 242 OFFCURVE",
"277.189 242 CURVE SMOOTH",
"384.189 242 LINE",
"399.078 336 LINE",
"292.078 336 LINE SMOOTH",
"145.733 336 OFFCURVE",
"28.673 295.566 OFFCURVE",
"7.36 161 CURVE SMOOTH",
"-9.61 53.849 OFFCURVE",
"68.821 -15 OFFCURVE",
"185.485 -15 CURVE SMOOTH",
"315.32 -15 OFFCURVE",
"407.643 41.292 OFFCURVE",
"437.994 165 CURVE",
"385.994 165 LINE",
"402.448 44.326 OFFCURVE",
"486.175 -20 OFFCURVE",
"609.693 -20 CURVE SMOOTH"
);
}
);
width = 959;
},
{
guideLines = (
{
position = "{0, 160}";
}
);
layerId = "A9BE7077-88A3-49D0-803C-7BC96B0B926B";
paths = (
{
closed = 1;
nodes = (
"748.318 -18 OFFCURVE",
"839.968 36.277 OFFCURVE",
"884.469 158 CURVE",
"794.469 158 LINE",
"767.995 88.032 OFFCURVE",
"708.251 68 OFFCURVE",
"631.214 68 CURVE SMOOTH",
"525.408 68 OFFCURVE",
"470.804 153.802 OFFCURVE",
"488.575 266 CURVE SMOOTH",
"507.435 385.078 OFFCURVE",
"571.779 464 OFFCURVE",
"687.935 464 CURVE SMOOTH",
"786.195 464 OFFCURVE",
"837.395 384.829 OFFCURVE",
"820.95 281 CURVE",
"849.286 321 LINE",
"487.286 321 LINE",
"475.882 249 LINE",
"907.882 249 LINE",
"914.534 291 LINE SMOOTH",
"938.284 440.955 OFFCURVE",
"850.922 550 OFFCURVE",
"701.556 550 CURVE SMOOTH",
"559.252 550 OFFCURVE",
"468.892 474.383 OFFCURVE",
"423.978 338 CURVE",
"489.978 338 LINE",
"509.113 458.811 OFFCURVE",
"426.075 540 OFFCURVE",
"297.972 540 CURVE SMOOTH",
"243.103 540 OFFCURVE",
"204.665 539.009 OFFCURVE",
"150.022 534 CURVE",
"136.717 450 LINE",
"203.64 454.514 OFFCURVE",
"250.593 456 OFFCURVE",
"317.668 456 CURVE SMOOTH",
"382.615 456 OFFCURVE",
"421.312 409.556 OFFCURVE",
"411.087 345 CURVE SMOOTH",
"387.804 198 LINE",
"370.762 111.423 OFFCURVE",
"314.902 62 OFFCURVE",
"227.264 62 CURVE SMOOTH",
"159.795 62 OFFCURVE",
"113.176 99.328 OFFCURVE",
"122.786 160 CURVE SMOOTH",
"133.7 228.914 OFFCURVE",
"186.302 260 OFFCURVE",
"258.624 260 CURVE SMOOTH",
"407.624 260 LINE",
"419.028 332 LINE",
"274.028 332 LINE SMOOTH",
"144.824 332 OFFCURVE",
"48.078 281.808 OFFCURVE",
"28.786 160 CURVE SMOOTH",
"12.276 55.76 OFFCURVE",
"84.396 -14 OFFCURVE",
"195.227 -14 CURVE SMOOTH",
"315.471 -14 OFFCURVE",
"397.444 44.128 OFFCURVE",
"425.786 160 CURVE",
"399.786 160 LINE",
"415.841 43.263 OFFCURVE",
"497.761 -18 OFFCURVE",
"617.593 -18 CURVE SMOOTH"
);
}
);
width = 956;
},
{
layerId = "45FAA47D-3C03-4CCA-BDE3-DFC1510ED13C";
paths = (
{
closed = 1;
nodes = (
"747.434 -16 OFFCURVE",
"832.733 33.518 OFFCURVE",
"875.677 146 CURVE",
"843.677 146 LINE",
"807.969 51.426 OFFCURVE",
"733.413 14 OFFCURVE",
"630.77 14 CURVE SMOOTH",
"496.442 14 OFFCURVE",
"425.804 121.548 OFFCURVE",
"448.208 263 CURVE SMOOTH",
"471.706 411.355 OFFCURVE",
"556.604 506 OFFCURVE",
"702.695 506 CURVE SMOOTH",
"827.093 506 OFFCURVE",
"895.439 409.676 OFFCURVE",
"875.059 281 CURVE",
"889.643 291 LINE",
"439.643 291 LINE",
"434.891 261 LINE",
"901.891 261 LINE",
"906.96 293 LINE SMOOTH",
"929.236 433.651 OFFCURVE",
"847.453 536 OFFCURVE",
"707.447 536 CURVE SMOOTH",
"575.693 536 OFFCURVE",
"492.003 467.956 OFFCURVE",
"444.037 344 CURVE",
"461.037 344 LINE",
"478.19 452.299 OFFCURVE",
"403.623 525 OFFCURVE",
"288.705 525 CURVE SMOOTH",
"242.348 525 OFFCURVE",
"209.96 521.884 OFFCURVE",
"164.121 515 CURVE",
"159.369 485 LINE",
"212.502 493.185 OFFCURVE",
"250.2 495 OFFCURVE",
"303.953 495 CURVE SMOOTH",
"391.182 495 OFFCURVE",
"445.66 436.322 OFFCURVE",
"432.304 352 CURVE SMOOTH",
"406.329 188 LINE",
"385.401 77.222 OFFCURVE",
"313.823 14 OFFCURVE",
"201.77 14 CURVE SMOOTH",
"116.844 14 OFFCURVE",
"61.103 66.612 OFFCURVE",
"73.677 146 CURVE SMOOTH",
"87.334 232.225 OFFCURVE",
"152.412 272 OFFCURVE",
"242.634 272 CURVE SMOOTH",
"421.634 272 LINE",
"426.068 300 LINE",
"253.068 300 LINE SMOOTH",
"141.012 300 OFFCURVE",
"58.686 253.387 OFFCURVE",
"41.835 147 CURVE SMOOTH",
"26.573 50.632 OFFCURVE",
"93.019 -14 OFFCURVE",
"195.336 -14 CURVE SMOOTH",
"322.998 -14 OFFCURVE",
"405.819 56.259 OFFCURVE",
"429.379 182 CURVE",
"416.379 182 LINE",
"426.595 58.896 OFFCURVE",
"503.421 -16 OFFCURVE",
"626.019 -16 CURVE SMOOTH"
);
}
);
width = 955;
},
{
layerId = "3423A7C6-8126-4A24-975D-243FD1A28608";
name = public.background;
paths = (
{
closed = 1;
nodes = (
"794 -16 OFFCURVE",
"873 52 OFFCURVE",
"894 146 CURVE",
"862 146 LINE",
"846 73 OFFCURVE",
"778 14 OFFCURVE",
"670 14 CURVE SMOOTH",
"519 14 OFFCURVE",
"448 131 OFFCURVE",
"448 263 CURVE SMOOTH",
"448 392 OFFCURVE",
"522 506 OFFCURVE",
"664 506 CURVE SMOOTH",
"795 506 OFFCURVE",
"872 407 OFFCURVE",
"872 281 CURVE",
"885 291 LINE",
"435 291 LINE",
"435 261 LINE",
"902 261 LINE",
"902 293 LINE SMOOTH",
"902 417 OFFCURVE",
"815 536 OFFCURVE",
"664 536 CURVE SMOOTH",
"533 536 OFFCURVE",
"455 449 OFFCURVE",
"431 344 CURVE",
"448 344 LINE",
"448 461 OFFCURVE",
"403 525 OFFCURVE",
"247 525 CURVE SMOOTH",
"208 525 OFFCURVE",
"163 521 OFFCURVE",
"124 515 CURVE",
"124 485 LINE",
"162 491 OFFCURVE",
"210 495 OFFCURVE",
"267 495 CURVE SMOOTH",
"378 495 OFFCURVE",
"418 441 OFFCURVE",
"418 352 CURVE SMOOTH",
"418 188 LINE",
"414 57 OFFCURVE",
"324 14 OFFCURVE",
"241 14 CURVE SMOOTH",
"154 14 OFFCURVE",
"92 63 OFFCURVE",
"92 146 CURVE SMOOTH",
"92 223 OFFCURVE",
"143 272 OFFCURVE",
"241 272 CURVE SMOOTH",
"420 272 LINE",
"420 300 LINE",
"247 300 LINE SMOOTH",
"127 300 OFFCURVE",
"60 241 OFFCURVE",
"60 147 CURVE SMOOTH",
"60 43 OFFCURVE",
"140 -14 OFFCURVE",
"239 -14 CURVE SMOOTH",
"342 -14 OFFCURVE",
"438 44 OFFCURVE",
"442 182 CURVE",
"429 182 LINE",
"450 95 OFFCURVE",
"513 -16 OFFCURVE",
"670 -16 CURVE SMOOTH"
);
}
);
width = 959;
}
);
leftKerningGroup = lc_a;
rightKerningGroup = lc_e;
unicode = 00E6;
},
{
color = 7;
glyphname = b;
layers = (
{
layerId = "670CA61E-2201-4EBA-9CF0-D57F8D98A45A";
paths = (
{
closed = 1;
nodes = (
"543.641 -18 OFFCURVE",
"642.78 92.123 OFFCURVE",
"670.162 265 CURVE SMOOTH",
"673.963 289 LINE SMOOTH",
"698.965 446.859 OFFCURVE",
"623.383 568 OFFCURVE",
"475.152 568 CURVE SMOOTH",
"324.8 568 OFFCURVE",
"241.815 466.963 OFFCURVE",
"211.922 314 CURVE",
"258.258 354 LINE",
"317.81 730 LINE",
"135.81 730 LINE",
"20.19 0 LINE",
"164.19 0 LINE",
"199.668 224 LINE",
"183.668 224 LINE",
"165.18 84.726 OFFCURVE",
"239.128 -18 OFFCURVE",
"373.339 -18 CURVE SMOOTH"
);
},
{
closed = 1;
nodes = (
"271.805 132 OFFCURVE",
"227.181 183.044 OFFCURVE",
"238.578 255 CURVE SMOOTH",
"243.963 289 LINE SMOOTH",
"256.858 370.422 OFFCURVE",
"308.595 418 OFFCURVE",
"390.394 418 CURVE SMOOTH",
"464.991 418 OFFCURVE",
"502.684 356.691 OFFCURVE",
"490.062 277 CURVE SMOOTH",
"476.286 190.025 OFFCURVE",
"429.795 132 OFFCURVE",
"345.096 132 CURVE SMOOTH"
);
}
);
width = 709;
},
{
layerId = "A9BE7077-88A3-49D0-803C-7BC96B0B926B";
paths = (
{
closed = 1;
nodes = (
"500.374 -18 OFFCURVE",
"606.903 86.577 OFFCURVE",
"634.37 260 CURVE SMOOTH",
"637.221 278 LINE SMOOTH",
"662.072 434.904 OFFCURVE",
"577.814 552 OFFCURVE",
"425.618 552 CURVE SMOOTH",
"274.743 552 OFFCURVE",
"188.324 454.389 OFFCURVE",
"158.022 302 CURVE",
"203.584 375 LINE",
"259.81 730 LINE",
"163.81 730 LINE",
"48.19 0 LINE",
"124.19 0 LINE",
"160.46 229 LINE",
"134.46 229 LINE",
"117.373 86.813 OFFCURVE",
"191.296 -18 OFFCURVE",
"327.339 -18 CURVE SMOOTH"
);
},
{
closed = 1;
nodes = (
"225.486 66 OFFCURVE",
"162.152 138.662 OFFCURVE",
"178.36 241 CURVE SMOOTH",
"185.646 287 LINE SMOOTH",
"203.825 401.781 OFFCURVE",
"277.692 468 OFFCURVE",
"393.314 468 CURVE SMOOTH",
"500.901 468 OFFCURVE",
"557.71 382.113 OFFCURVE",
"539.795 269 CURVE SMOOTH",
"520.254 145.622 OFFCURVE",
"450.797 66 OFFCURVE",
"329.643 66 CURVE SMOOTH"
);
}
);
width = 690;
},
{
layerId = "45FAA47D-3C03-4CCA-BDE3-DFC1510ED13C";
paths = (
{
closed = 1;
nodes = (
"482.855 -16 OFFCURVE",
"583.193 88.406 OFFCURVE",
"609.894 257 CURVE SMOOTH",
"610.845 263 LINE SMOOTH",
"635.547 418.964 OFFCURVE",
"553.453 536 OFFCURVE",
"403.084 536 CURVE SMOOTH",
"246.558 536 OFFCURVE",
"147.646 444.839 OFFCURVE",
"122.963 289 CURVE",
"151.991 346 LINE",
"212.81 730 LINE",
"180.81 730 LINE",
"65.19 0 LINE",
"91.19 0 LINE",
"127.776 231 LINE",
"111.776 231 LINE",
"89.111 87.89 OFFCURVE",
"172.877 -16 OFFCURVE",
"315.656 -16 CURVE SMOOTH"
);
},
{
closed = 1;
nodes = (
"189.391 14 OFFCURVE",
"111.877 105.356 OFFCURVE",
"132.093 233 CURVE SMOOTH",
"140.646 287 LINE SMOOTH",
"162.814 426.963 OFFCURVE",
"254.726 506 OFFCURVE",
"396.332 506 CURVE SMOOTH",
"529.716 506 OFFCURVE",
"600.533 399.937 OFFCURVE",
"578.37 260 CURVE SMOOTH",
"554.498 109.278 OFFCURVE",
"467.156 14 OFFCURVE",
"318.407 14 CURVE SMOOTH"
);
}
);
width = 674;
},
{
layerId = "3423A7C6-8126-4A24-975D-243FD1A28608";
name = public.background;
paths = (
{
closed = 1;
nodes = (
"526 -16 OFFCURVE",
"612 127 OFFCURVE",
"612 257 CURVE SMOOTH",
"612 263 LINE SMOOTH",
"612 401 OFFCURVE",
"522 536 OFFCURVE",
"361 536 CURVE SMOOTH",
"211 536 OFFCURVE",
"120 424 OFFCURVE",
"120 289 CURVE",
"140 346 LINE",
"140 730 LINE",
"108 730 LINE",
"108 0 LINE",
"134 0 LINE",
"134 231 LINE",
"118 231 LINE",
"118 104 OFFCURVE",
"208 -16 OFFCURVE",
"361 -16 CURVE SMOOTH"
);
},
{
closed = 1;
nodes = (
"223 14 OFFCURVE",
"138 117 OFFCURVE",
"138 233 CURVE SMOOTH",
"138 287 LINE SMOOTH",
"138 411 OFFCURVE",
"227 506 OFFCURVE",
"359 506 CURVE SMOOTH",
"499 506 OFFCURVE",
"580 392 OFFCURVE",
"580 260 CURVE SMOOTH",
"580 136 OFFCURVE",
"503 14 OFFCURVE",
"359 14 CURVE SMOOTH"
);
}
);
width = 709;
}
);
leftKerningGroup = lc_LongStem;
rightKerningGroup = lc_Round;
unicode = 0062;
},
{
color = 7;
glyphname = c;
layers = (
{
anchors = (
{
name = bottom;
position = "{313, 0}";
},
{
name = top;
position = "{317, 520}";
}
);
layerId = "3423A7C6-8126-4A24-975D-243FD1A28608";
name = public.background;
paths = (
{
closed = 1;
nodes = (
"440 -16 OFFCURVE",
"538 59 OFFCURVE",
"554 168 CURVE",
"522 168 LINE",
"512 85 OFFCURVE",
"430 14 OFFCURVE",
"317 14 CURVE SMOOTH",
"169 14 OFFCURVE",
"94 134 OFFCURVE",
"94 263 CURVE SMOOTH",
"94 393 OFFCURVE",
"168 506 OFFCURVE",
"317 506 CURVE SMOOTH",
"430 506 OFFCURVE",
"499 443 OFFCURVE",
"514 356 CURVE",
"546 356 LINE",
"526 467 OFFCURVE",
"440 536 OFFCURVE",
"317 536 CURVE SMOOTH",
"148 536 OFFCURVE",
"62 403 OFFCURVE",
"62 266 CURVE SMOOTH",
"62 260 LINE SMOOTH",
"62 124 OFFCURVE",
"149 -16 OFFCURVE",
"317 -16 CURVE SMOOTH"
);
}
);
width = 613;
},
{
anchors = (
{
name = bottom;
position = "{275, 0}";
},
{
name = top;
position = "{360, 552}";
}
);
layerId = "670CA61E-2201-4EBA-9CF0-D57F8D98A45A";
paths = (
{
closed = 1;
nodes = (
"431.871 -20 OFFCURVE",
"542.431 59.344 OFFCURVE",
"576 216 CURVE",
"398 216 LINE",
"383.487 163.131 OFFCURVE",
"348.475 134 OFFCURVE",
"294 134 CURVE SMOOTH",
"226.668 134 OFFCURVE",
"201.895 196.711 OFFCURVE",
"214 274 CURVE SMOOTH",
"227.241 356.281 OFFCURVE",
"261.227 418 OFFCURVE",
"339 418 CURVE SMOOTH",
"386.677 418 OFFCURVE",
"416.24 386.517 OFFCURVE",
"413 339 CURVE",
"591 339 LINE",
"605.571 480.543 OFFCURVE",
"509.993 572 OFFCURVE",
"363 572 CURVE SMOOTH",
"179.44 572 OFFCURVE",
"62.423 466.384 OFFCURVE",
"34 284 CURVE SMOOTH",
"31 264 LINE SMOOTH",
"3.873 98.975 OFFCURVE",
"103.404 -20 OFFCURVE",
"270 -20 CURVE SMOOTH"
);
}
);
width = 613;
},
{
anchors = (
{
name = bottom;
position = "{273, 0}";
},
{
name = top;
position = "{360, 534}";
}
);
layerId = "A9BE7077-88A3-49D0-803C-7BC96B0B926B";
paths = (
{
closed = 1;
nodes = (
"420.383 -18 OFFCURVE",
"523.946 47.75 OFFCURVE",
"554 188 CURVE",
"462 188 LINE",
"438.744 104.769 OFFCURVE",
"375.95 68 OFFCURVE",
"288 68 CURVE SMOOTH",
"182.443 68 OFFCURVE",
"128.761 154.529 OFFCURVE",
"147 267 CURVE SMOOTH",
"165.957 387.058 OFFCURVE",
"231.662 466 OFFCURVE",
"349 466 CURVE SMOOTH",
"427.576 466 OFFCURVE",
"482 424.26 OFFCURVE",
"482 349 CURVE",
"574 349 LINE",
"584.156 474.937 OFFCURVE",
"495.295 552 OFFCURVE",
"363 552 CURVE SMOOTH",
"188.721 552 OFFCURVE",
"79.029 449.758 OFFCURVE",
"52 276 CURVE SMOOTH",
"49 258 LINE SMOOTH",
"23.621 98.475 OFFCURVE",
"115.627 -18 OFFCURVE",
"274 -18 CURVE SMOOTH"
);
}
);
width = 606;
},
{
anchors = (
{
name = bottom;
position = "{271, 0}";
},
{
name = top;
position = "{357, 520}";
}
);
layerId = "45FAA47D-3C03-4CCA-BDE3-DFC1510ED13C";
paths = (
{
closed = 1;
nodes = (
"405.721 -16 OFFCURVE",
"499.724 41.573 OFFCURVE",
"538 168 CURVE",
"506 168 LINE",
"475.925 59.468 OFFCURVE",
"392.182 14 OFFCURVE",
"277 14 CURVE SMOOTH",
"142.264 14 OFFCURVE",
"71.037 121.34 OFFCURVE",
"93 263 CURVE SMOOTH",
"117.228 412.981 OFFCURVE",
"206.267 506 OFFCURVE",
"355 506 CURVE SMOOTH",
"456.336 506 OFFCURVE",
"526.885 453.047 OFFCURVE",
"528 356 CURVE",
"560 356 LINE",
"557.93 470.902 OFFCURVE",
"477.455 536 OFFCURVE",
"359 536 CURVE SMOOTH",
"191.153 536 OFFCURVE",
"87.804 434.338 OFFCURVE",
"62 266 CURVE SMOOTH",
"61 260 LINE SMOOTH",
"35.485 102.269 OFFCURVE",
"119.379 -16 OFFCURVE",
"272 -16 CURVE SMOOTH"
);
}
);
width = 600;
}
);
leftKerningGroup = lc_Round;
rightKerningGroup = lc_c;
unicode = 0063;
},
{
color = 7;
glyphname = d;
layers = (
{
anchors = (
{
name = bottom;
position = "{368, 0}";
},
{
name = center;
position = "{484, 639}";
},
{
name = top;
position = "{548, 730}";
},
{
name = topright;
position = "{568, 534}";
}
);
layerId = "3423A7C6-8126-4A24-975D-243FD1A28608";
name = public.background;
paths = (
{
closed = 1;
nodes = (
"463 -16 OFFCURVE",
"556 96 OFFCURVE",
"556 231 CURVE",
"540 231 LINE",
"540 0 LINE",
"566 0 LINE",
"566 730 LINE",
"534 730 LINE",
"534 346 LINE",
"554 289 LINE",
"554 416 OFFCURVE",
"466 536 OFFCURVE",
"313 536 CURVE SMOOTH",
"148 536 OFFCURVE",
"62 393 OFFCURVE",
"62 263 CURVE SMOOTH",
"62 257 LINE SMOOTH",
"62 119 OFFCURVE",
"152 -16 OFFCURVE",
"313 -16 CURVE SMOOTH"
);
},
{
closed = 1;
nodes = (
"175 14 OFFCURVE",
"94 128 OFFCURVE",
"94 260 CURVE SMOOTH",
"94 384 OFFCURVE",
"171 506 OFFCURVE",
"315 506 CURVE SMOOTH",
"451 506 OFFCURVE",
"536 403 OFFCURVE",
"536 287 CURVE SMOOTH",
"536 233 LINE SMOOTH",
"536 109 OFFCURVE",
"447 14 OFFCURVE",
"315 14 CURVE SMOOTH"
);
}
);
width = 709;
},
{
anchors = (
{
name = bottom;
position = "{272, 0}";
},
{
name = center;
position = "{566, 637}";
},
{
name = top;
position = "{624, 730}";
},
{
name = topright;
position = "{666, 534}";
}
);
layerId = "670CA61E-2201-4EBA-9CF0-D57F8D98A45A";
paths = (
{
closed = 1;
nodes = (
"393.232 -18 OFFCURVE",
"480.977 74.88 OFFCURVE",
"509 224 CURVE",
"489 224 LINE",
"453 0 LINE",
"597 0 LINE",
"713 730 LINE",
"531 730 LINE",
"470 348 LINE",
"507 317 LINE",
"526.496 458.791 OFFCURVE",
"462.911 568 OFFCURVE",
"332 568 CURVE SMOOTH",
"161.406 568 OFFCURVE",
"61.941 458.021 OFFCURVE",
"34 285 CURVE",
"31 261 LINE",
"5.237 101.465 OFFCURVE",
"90.444 -18 OFFCURVE",
"245 -18 CURVE SMOOTH"
);
},
{
closed = 1;
nodes = (
"241.892 132 OFFCURVE",
"201.873 192.777 OFFCURVE",
"214 273 CURVE SMOOTH",
"228.29 360.783 OFFCURVE",
"276.957 418 OFFCURVE",
"363 418 CURVE SMOOTH",
"434.542 418 OFFCURVE",
"476.865 366.525 OFFCURVE",
"466 295 CURVE SMOOTH",
"461 261 LINE SMOOTH",
"447.437 180.59 OFFCURVE",
"398.262 132 OFFCURVE",
"318 132 CURVE SMOOTH"
);
}
);
width = 708;
},
{
anchors = (
{
name = bottom;
position = "{301, 0}";
},
{
name = center;
position = "{551, 643}";
},
{
name = top;
position = "{621, 730}";
},
{
name = topright;
position = "{638, 534}";
}
);
layerId = "A9BE7077-88A3-49D0-803C-7BC96B0B926B";
paths = (
{
closed = 1;
nodes = (
"422.307 -18 OFFCURVE",
"510.703 81.464 OFFCURVE",
"543 237 CURVE",
"515 237 LINE",
"477 0 LINE",
"553 0 LINE",
"669 730 LINE",
"573 730 LINE",
"516 371 LINE",
"546 307 LINE",
"560.839 447.967 OFFCURVE",
"489.683 552 OFFCURVE",
"356 552 CURVE SMOOTH",
"184.496 552 OFFCURVE",
"79.158 447.999 OFFCURVE",
"52 276 CURVE SMOOTH",
"49 258 LINE SMOOTH",
"24.249 99.181 OFFCURVE",
"112.398 -18 OFFCURVE",
"268 -18 CURVE SMOOTH"
);
},
{
closed = 1;
nodes = (
"186.072 66 OFFCURVE",
"128.327 152.588 OFFCURVE",
"146 267 CURVE SMOOTH",
"166.269 389.626 OFFCURVE",
"236.193 468 OFFCURVE",
"357 468 CURVE SMOOTH",
"460.433 468 OFFCURVE",
"523.676 396.434 OFFCURVE",
"508 295 CURVE SMOOTH",
"501 249 LINE SMOOTH",
"482.671 133.934 OFFCURVE",
"410.35 66 OFFCURVE",
"295 66 CURVE SMOOTH"
);
}
);
width = 689;
},
{
anchors = (
{
name = bottom;
position = "{326, 0}";
},
{
name = center;
position = "{543, 639}";
},
{
name = top;
position = "{622, 730}";
},
{
name = topright;
position = "{611, 534}";
}
);
layerId = "45FAA47D-3C03-4CCA-BDE3-DFC1510ED13C";
paths = (
{
closed = 1;
nodes = (
"426.036 -16 OFFCURVE",
"525.555 74.861 OFFCURVE",
"551 231 CURVE",
"535 231 LINE",
"498 0 LINE",
"524 0 LINE",
"640 730 LINE",
"608 730 LINE",
"547 346 LINE",
"558 289 LINE",
"580.5 431.878 OFFCURVE",
"497.912 536 OFFCURVE",
"356 536 CURVE SMOOTH",
"188.682 536 OFFCURVE",
"87.955 431.711 OFFCURVE",
"62 263 CURVE SMOOTH",
"61 257 LINE SMOOTH",
"36.135 101.026 OFFCURVE",
"118.471 -16 OFFCURVE",
"269 -16 CURVE SMOOTH"
);
},
{
closed = 1;
nodes = (
"141.595 14 OFFCURVE",
"70.739 120.077 OFFCURVE",
"93 260 CURVE SMOOTH",
"117.295 410.628 OFFCURVE",
"204.351 506 OFFCURVE",
"353 506 CURVE SMOOTH",
"482.137 506 OFFCURVE",
"559.831 414.797 OFFCURVE",
"540 287 CURVE SMOOTH",
"531 233 LINE SMOOTH",
"508.427 93.046 OFFCURVE",
"416.604 14 OFFCURVE",
"275 14 CURVE SMOOTH"
);
}
);
width = 674;
}
);
leftKerningGroup = lc_Round;
rightKerningGroup = lc_LongStem;
unicode = 0064;
},
{
color = 7;
glyphname = eth;
layers = (
{
guideLines = (
{
position = "{0, 364}";
}
);
layerId = "670CA61E-2201-4EBA-9CF0-D57F8D98A45A";
paths = (
{
closed = 1;
nodes = (
"489.033 -18 OFFCURVE",
"620.148 109 OFFCURVE",
"655.467 332 CURVE SMOOTH",
"659.585 358 LINE SMOOTH",
"699.182 608 OFFCURVE",
"618.989 752 OFFCURVE",
"374.989 752 CURVE SMOOTH",
"333.989 752 OFFCURVE",
"285.355 748 OFFCURVE",
"239.088 740 CURVE",
"217.548 604 LINE",
"262.657 611 OFFCURVE",
"310.449 616 OFFCURVE",
"354.449 616 CURVE SMOOTH",
"408.449 616 OFFCURVE",
"452.865 606 OFFCURVE",
"476.697 586 CURVE SMOOTH",
"509.262 558 OFFCURVE",
"534.017 487 OFFCURVE",
"515.744 359 CURVE",
"527.744 359 LINE",
"527.79 454 OFFCURVE",
"439.026 506 OFFCURVE",
"332.026 506 CURVE SMOOTH",
"190.026 506 OFFCURVE",
"56.613 415 OFFCURVE",
"32.064 260 CURVE SMOOTH",
"29.53 244 LINE SMOOTH",
"6.089 96 OFFCURVE",
"107.033 -18 OFFCURVE",
"296.033 -18 CURVE SMOOTH"
);
},
{
closed = 1;
nodes = (
"243.107 134 OFFCURVE",
"200.759 176 OFFCURVE",
"212.797 252 CURVE SMOOTH",
"225.151 330 OFFCURVE",
"284.12 374 OFFCURVE",
"359.12 374 CURVE SMOOTH",
"434.12 374 OFFCURVE",
"479.151 330 OFFCURVE",
"466.797 252 CURVE SMOOTH",
"454.759 176 OFFCURVE",
"399.107 134 OFFCURVE",
"321.107 134 CURVE SMOOTH"
);
},
{
closed = 1;
nodes = (
"689.98 733 LINE",
"637.116 797 LINE",
"371.846 568 LINE",
"424.71 504 LINE"
);
}
);
width = 702;
},
{
guideLines = (
{
position = "{0, 364}";
}
);
layerId = "A9BE7077-88A3-49D0-803C-7BC96B0B926B";
paths = (
{
closed = 1;
nodes = (
"476.013 -20 OFFCURVE",
"571.711 117 OFFCURVE",
"600.062 296 CURVE SMOOTH",
"604.18 322 LINE SMOOTH",
"649.161 606 OFFCURVE",
"586.435 734 OFFCURVE",
"373.435 734 CURVE SMOOTH",
"331.435 734 OFFCURVE",
"297.959 731 OFFCURVE",
"261.167 726 CURVE",
"249.13 650 LINE",
"285.922 655 OFFCURVE",
"321.397 658 OFFCURVE",
"361.397 658 CURVE SMOOTH",
"426.397 658 OFFCURVE",
"462.338 645 OFFCURVE",
"489.854 623 CURVE SMOOTH",
"542.202 581 OFFCURVE",
"545.581 495 OFFCURVE",
"525.407 355 CURVE",
"535.407 355 LINE",
"539.978 447 OFFCURVE",
"478.907 516 OFFCURVE",
"353.907 516 CURVE SMOOTH",
"180.907 516 OFFCURVE",
"73.267 392 OFFCURVE",
"52.36 260 CURVE SMOOTH",
"49.193 240 LINE SMOOTH",
"29.236 114 OFFCURVE",
"86.013 -20 OFFCURVE",
"281.013 -20 CURVE SMOOTH"
);
},
{
closed = 1;
nodes = (
"176.634 66 OFFCURVE",
"129.354 140 OFFCURVE",
"146.776 250 CURVE SMOOTH",
"164.516 362 OFFCURVE",
"235.919 434 OFFCURVE",
"350.919 434 CURVE SMOOTH",
"465.919 434 OFFCURVE",
"518.516 362 OFFCURVE",
"500.776 250 CURVE SMOOTH",
"483.354 140 OFFCURVE",
"412.634 66 OFFCURVE",
"294.634 66 CURVE SMOOTH"
);
},
{
closed = 1;
nodes = (
"665.167 726 LINE",
"637.82 768 LINE",
"377.41 576 LINE",
"404.758 534 LINE"
);
}
);
width = 668;
},
{
layerId = "45FAA47D-3C03-4CCA-BDE3-DFC1510ED13C";
paths = (
{
closed = 1;
nodes = (
"424.022 -16 OFFCURVE",
"528.603 95 OFFCURVE",
"556.795 273 CURVE SMOOTH",
"558.696 285 LINE SMOOTH",
"610.804 614 OFFCURVE",
"551.593 720 OFFCURVE",
"363.593 720 CURVE SMOOTH",
"331.593 720 OFFCURVE",
"296.118 717 OFFCURVE",
"268.326 712 CURVE",
"263.574 682 LINE",
"294.366 687 OFFCURVE",
"329.841 690 OFFCURVE",
"358.841 690 CURVE SMOOTH",
"429.841 690 OFFCURVE",
"467.466 675 OFFCURVE",
"496.506 650 CURVE SMOOTH",
"547.379 605 OFFCURVE",
"558.531 486 OFFCURVE",
"535.981 331 CURVE",
"543.981 331 LINE",
"549.553 423 OFFCURVE",
"497.283 516 OFFCURVE",
"351.283 516 CURVE SMOOTH",
"188.283 516 OFFCURVE",
"85.276 396 OFFCURVE",
"63.894 261 CURVE SMOOTH",
"60.252 238 LINE SMOOTH",
"39.503 107 OFFCURVE",
"106.022 -16 OFFCURVE",
"267.022 -16 CURVE SMOOTH"
);
},
{
closed = 1;
nodes = (
"126.774 14 OFFCURVE",
"73.721 121 OFFCURVE",
"94.152 250 CURVE SMOOTH",
"115.059 382 OFFCURVE",
"199.531 486 OFFCURVE",
"346.531 486 CURVE SMOOTH",
"487.531 486 OFFCURVE",
"544.851 387 OFFCURVE",
"523.152 250 CURVE SMOOTH",
"502.246 118 OFFCURVE",
"419.774 14 OFFCURVE",
"271.774 14 CURVE SMOOTH"
);
},
{
closed = 1;
nodes = (
"621.276 718 LINE",
"608.444 738 LINE",
"374.31 573 LINE",
"387.143 553 LINE"
);
}
);
width = 639;
},
{
layerId = "3423A7C6-8126-4A24-975D-243FD1A28608";
name = public.background;
paths = (
{
closed = 1;
nodes = (
"466 -16 OFFCURVE",
"553 95 OFFCURVE",
"553 273 CURVE SMOOTH",
"553 285 LINE SMOOTH",
"553 614 OFFCURVE",
"477 720 OFFCURVE",
"289 720 CURVE SMOOTH",
"257 720 OFFCURVE",
"222 717 OFFCURVE",
"195 712 CURVE",
"195 682 LINE",
"225 687 OFFCURVE",
"260 690 OFFCURVE",
"289 690 CURVE SMOOTH",
"360 690 OFFCURVE",
"400 675 OFFCURVE",
"433 650 CURVE SMOOTH",
"491 605 OFFCURVE",
"521 486 OFFCURVE",
"523 331 CURVE",
"531 331 LINE",
"522 423 OFFCURVE",
"455 516 OFFCURVE",
"309 516 CURVE SMOOTH",
"146 516 OFFCURVE",
"62 396 OFFCURVE",
"62 261 CURVE SMOOTH",
"62 238 LINE SMOOTH",
"62 107 OFFCURVE",
"148 -16 OFFCURVE",
"309 -16 CURVE SMOOTH"
);
},
{
closed = 1;
nodes = (
"164 14 OFFCURVE",
"94 121 OFFCURVE",
"94 250 CURVE SMOOTH",
"94 382 OFFCURVE",
"162 486 OFFCURVE",
"309 486 CURVE SMOOTH",
"450 486 OFFCURVE",
"523 387 OFFCURVE",
"523 250 CURVE SMOOTH",
"523 118 OFFCURVE",
"457 14 OFFCURVE",
"309 14 CURVE SMOOTH"
);
},
{
closed = 1;
nodes = (
"547 718 LINE",
"531 738 LINE",
"323 573 LINE",
"339 553 LINE"
);
}
);
width = 702;
}
);
leftKerningGroup = lc_Round;
unicode = 00F0;
},
{
color = 7;
glyphname = e;
layers = (
{
anchors = (
{
name = bottom;
position = "{316, 0}";
},
{
name = ogonek;
position = "{452, 29}";
},
{
name = top;
position = "{310, 520}";
}
);
layerId = "3423A7C6-8126-4A24-975D-243FD1A28608";
name = public.background;
paths = (
{
closed = 1;
nodes = (
"441 -16 OFFCURVE",
"521 52 OFFCURVE",
"542 146 CURVE",
"510 146 LINE",
"494 73 OFFCURVE",
"425 14 OFFCURVE",
"316 14 CURVE SMOOTH",
"164 14 OFFCURVE",
"92 131 OFFCURVE",
"92 263 CURVE SMOOTH",
"92 392 OFFCURVE",
"167 506 OFFCURVE",
"310 506 CURVE SMOOTH",
"442 506 OFFCURVE",
"520 407 OFFCURVE",
"520 281 CURVE",
"533 291 LINE",
"79 291 LINE",
"79 261 LINE",
"550 261 LINE",
"550 293 LINE SMOOTH",
"550 417 OFFCURVE",
"462 536 OFFCURVE",
"310 536 CURVE SMOOTH",
"146 536 OFFCURVE",
"62 402 OFFCURVE",
"62 266 CURVE SMOOTH",
"62 260 LINE SMOOTH",
"62 121 OFFCURVE",
"142 -16 OFFCURVE",
"316 -16 CURVE SMOOTH"
);
}
);
width = 627;
},
{
anchors = (
{
name = bottom;
position = "{279, 0}";
},
{
name = ogonek;
position = "{489, 70}";
},
{
name = top;
position = "{360, 552}";
}
);
layerId = "670CA61E-2201-4EBA-9CF0-D57F8D98A45A";
paths = (
{
closed = 1;
nodes = (
"419.458 -20 OFFCURVE",
"519.373 40.48 OFFCURVE",
"569 174 CURVE",
"403 174 LINE",
"380.701 134.648 OFFCURVE",
"344.993 126 OFFCURVE",
"299 126 CURVE SMOOTH",
"222.358 126 OFFCURVE",
"186.265 191.311 OFFCURVE",
"199 275 CURVE SMOOTH",
"213.006 363.411 OFFCURVE",
"255.22 426 OFFCURVE",
"340 426 CURVE SMOOTH",
"411.744 426 OFFCURVE",
"440.927 361.01 OFFCURVE",
"428 280 CURVE",
"498 324 LINE",
"115 324 LINE",
"99 226 LINE",
"587 226 LINE",
"597 284 LINE SMOOTH",
"623.103 450.407 OFFCURVE",
"527.768 572 OFFCURVE",
"363 572 CURVE SMOOTH",
"179.733 572 OFFCURVE",
"62.27 467.716 OFFCURVE",
"33 286 CURVE SMOOTH",
"30 266 LINE SMOOTH",
"3.138 98.988 OFFCURVE",
"106.143 -20 OFFCURVE",
"276 -20 CURVE SMOOTH"
);
}
);
width = 627;
},
{
anchors = (
{
name = bottom;
position = "{276, 0}";
},
{
name = ogonek;
position = "{452, 42}";
},
{
name = top;
position = "{355, 534}";
}
);
layerId = "A9BE7077-88A3-49D0-803C-7BC96B0B926B";
paths = (
{
closed = 1;
nodes = (
"404.473 -18 OFFCURVE",
"496.838 36.452 OFFCURVE",
"541 159 CURVE",
"451 159 LINE",
"425.317 87.659 OFFCURVE",
"365.107 66 OFFCURVE",
"287 66 CURVE SMOOTH",
"180.319 66 OFFCURVE",
"126.046 153.294 OFFCURVE",
"144 267 CURVE SMOOTH",
"162.537 387.488 OFFCURVE",
"226.798 468 OFFCURVE",
"344 468 CURVE SMOOTH",
"443.429 468 OFFCURVE",
"494.788 387.39 OFFCURVE",
"478 282 CURVE",
"506 321 LINE",
"102 321 LINE",
"91 249 LINE",
"565 249 LINE",
"572 292 LINE SMOOTH",
"595.774 442.57 OFFCURVE",
"507.998 552 OFFCURVE",
"358 552 CURVE SMOOTH",
"186.193 552 OFFCURVE",
"80.449 448.178 OFFCURVE",
"53 276 CURVE SMOOTH",
"50 258 LINE SMOOTH",
"25.214 98.664 OFFCURVE",
"115.718 -18 OFFCURVE",
"273 -18 CURVE SMOOTH"
);
}
);
width = 613;
},
{
anchors = (
{
name = bottom;
position = "{274, 0}";
},
{
name = ogonek;
position = "{414, 29}";
},
{
name = top;
position = "{350, 520}";
}
);
layerId = "45FAA47D-3C03-4CCA-BDE3-DFC1510ED13C";
paths = (
{
closed = 1;
nodes = (
"393.27 -16 OFFCURVE",
"479.683 32.895 OFFCURVE",
"523 146 CURVE",
"491 146 LINE",
"454.573 51.031 OFFCURVE",
"379.308 14 OFFCURVE",
"276 14 CURVE SMOOTH",
"140.652 14 OFFCURVE",
"68.454 121.281 OFFCURVE",
"91 263 CURVE SMOOTH",
"115.22 411.777 OFFCURVE",
"201.159 506 OFFCURVE",
"348 506 CURVE SMOOTH",
"473.095 506 OFFCURVE",
"542.455 409.868 OFFCURVE",
"522 281 CURVE",
"537 291 LINE",
"83 291 LINE",
"78 261 LINE",
"549 261 LINE",
"554 293 LINE SMOOTH",
"576.73 433.926 OFFCURVE",
"493.261 536 OFFCURVE",
"352 536 CURVE SMOOTH",
"186.833 536 OFFCURVE",
"87.734 432.657 OFFCURVE",
"62 266 CURVE SMOOTH",
"61 260 LINE SMOOTH",
"36.044 102.326 OFFCURVE",
"119.004 -16 OFFCURVE",
"271 -16 CURVE SMOOTH"
);
}
);
width = 602;
}
);
leftKerningGroup = lc_Round;
rightKerningGroup = lc_e;
unicode = 0065;
},
{
color = 7;
glyphname = f;
layers = (
{
layerId = "670CA61E-2201-4EBA-9CF0-D57F8D98A45A";
paths = (
{
closed = 1;
nodes = (
"187.239 0 LINE",
"275.618 558 LINE SMOOTH",
"280.661 589.843 OFFCURVE",
"301.384 608 OFFCURVE",
"333.537 608 CURVE SMOOTH",
"408.537 608 LINE",
"429.761 742 LINE",
"358.761 742 LINE SMOOTH",
"223.344 742 OFFCURVE",
"126.943 680.016 OFFCURVE",
"106.351 550 CURVE SMOOTH",
"19.239 0 LINE"
);
},
{
closed = 1;
nodes = (
"384.86 408 LINE",
"405.767 540 LINE",
"42.767 540 LINE",
"21.86 408 LINE"
);
}
);
width = 383;
},
{
layerId = "A9BE7077-88A3-49D0-803C-7BC96B0B926B";
paths = (
{
closed = 1;
nodes = (
"139.873 0 LINE",
"231.261 577 LINE SMOOTH",
"239.027 626.037 OFFCURVE",
"270.94 654 OFFCURVE",
"320.456 654 CURVE SMOOTH",
"402.456 654 LINE",
"415.127 734 LINE",
"349.127 734 LINE SMOOTH",
"233.167 734 OFFCURVE",
"154.654 674.189 OFFCURVE",
"136.727 561 CURVE SMOOTH",
"47.873 0 LINE"
);
},
{
closed = 1;
nodes = (
"381.096 456 LINE",
"392.5 528 LINE",
"57.5 528 LINE",
"46.096 456 LINE"
);
}
);
width = 379;
},
{
layerId = "45FAA47D-3C03-4CCA-BDE3-DFC1510ED13C";
paths = (
{
closed = 1;
nodes = (
"98.19 0 LINE",
"193.22 600 LINE SMOOTH",
"203.465 664.68 OFFCURVE",
"247.191 700 OFFCURVE",
"313.059 700 CURVE SMOOTH",
"393.059 700 LINE",
"397.81 730 LINE",
"327.81 730 LINE SMOOTH",
"234.938 730 OFFCURVE",
"173.8 679.424 OFFCURVE",
"159.32 588 CURVE SMOOTH",
"66.19 0 LINE"
);
},
{
closed = 1;
nodes = (
"371.798 490 LINE",
"376.233 518 LINE",
"64.233 518 LINE",
"59.798 490 LINE"
);
}
);
width = 368;
},
{
layerId = "3423A7C6-8126-4A24-975D-243FD1A28608";
name = public.background;
paths = (
{
closed = 1;
nodes = (
"156 0 LINE",
"156 600 LINE SMOOTH",
"156 664 OFFCURVE",
"192 700 OFFCURVE",
"260 700 CURVE SMOOTH",
"340 700 LINE",
"340 730 LINE",
"270 730 LINE SMOOTH",
"170 730 OFFCURVE",
"124 684 OFFCURVE",
"124 588 CURVE SMOOTH",
"124 0 LINE"
);
},
{
closed = 1;
nodes = (
"352 490 LINE",
"352 518 LINE",
"40 518 LINE",
"40 490 LINE"
);
}
);
width = 383;
}
);
leftKerningGroup = lc_f;
rightKerningGroup = lc_f;
unicode = 0066;
},
{
color = 7;
glyphname = g;
layers = (
{
anchors = (
{
name = bottom;
position = "{310, -300}";
},
{
name = top;
position = "{337, 520}";
}
);
layerId = "3423A7C6-8126-4A24-975D-243FD1A28608";
name = public.background;
paths = (
{
closed = 1;
nodes = (
"494 -204 OFFCURVE",
"562 -140 OFFCURVE",
"562 47 CURVE SMOOTH",
"562 520 LINE",
"536 520 LINE",
"536 330 LINE",
"552 289 LINE",
"552 415 OFFCURVE",
"463 536 OFFCURVE",
"311 536 CURVE SMOOTH",
"147 536 OFFCURVE",
"62 392 OFFCURVE",
"62 263 CURVE SMOOTH",
"62 257 LINE SMOOTH",
"62 120 OFFCURVE",
"151 -16 OFFCURVE",
"311 -16 CURVE SMOOTH",
"460 -16 OFFCURVE",
"550 97 OFFCURVE",
"550 231 CURVE",
"530 160 LINE",
"530 48 LINE SMOOTH",
"530 -118 OFFCURVE",
"477 -174 OFFCURVE",
"312 -174 CURVE SMOOTH",
"265 -174 OFFCURVE",
"210 -169 OFFCURVE",
"162 -161 CURVE",
"162 -191 LINE",
"208 -199 OFFCURVE",
"261 -204 OFFCURVE",
"308 -204 CURVE SMOOTH"
);
},
{
closed = 1;
nodes = (
"174 14 OFFCURVE",
"94 129 OFFCURVE",
"94 260 CURVE SMOOTH",
"94 383 OFFCURVE",
"170 506 OFFCURVE",
"313 506 CURVE SMOOTH",
"448 506 OFFCURVE",
"532 402 OFFCURVE",
"532 287 CURVE SMOOTH",
"532 233 LINE SMOOTH",
"532 110 OFFCURVE",
"444 14 OFFCURVE",
"313 14 CURVE SMOOTH"
);
}
);
width = 726;
},
{
anchors = (
{
name = bottom;
position = "{187, -300}";
},
{
name = top;
position = "{367, 552}";
}
);
layerId = "670CA61E-2201-4EBA-9CF0-D57F8D98A45A";
paths = (
{
closed = 1;
nodes = (
"413.8 -221 OFFCURVE",
"564.242 -132.043 OFFCURVE",
"595 65 CURVE SMOOTH",
"672 552 LINE",
"528 552 LINE",
"490 310 LINE",
"511 317 LINE",
"530.543 459.129 OFFCURVE",
"465.044 568 OFFCURVE",
"333 568 CURVE SMOOTH",
"163.76 568 OFFCURVE",
"61.99 462.576 OFFCURVE",
"35 292 CURVE SMOOTH",
"31 268 LINE SMOOTH",
"6.54 113.415 OFFCURVE",
"84.042 -4 OFFCURVE",
"231 -4 CURVE SMOOTH",
"370.483 -4 OFFCURVE",
"452.087 84.453 OFFCURVE",
"479 225 CURVE",
"441 165 LINE",
"423 53 LINE SMOOTH",
"408.496 -40.72 OFFCURVE",
"326.951 -69 OFFCURVE",
"225 -69 CURVE SMOOTH",
"167.383 -69 OFFCURVE",
"127.108 -65.614 OFFCURVE",
"70 -58 CURVE",
"46 -210 LINE",
"105.152 -219.201 OFFCURVE",
"147.146 -221 OFFCURVE",
"207 -221 CURVE SMOOTH"
);
},
{
closed = 1;
nodes = (
"242.698 146 OFFCURVE",
"203.166 203.533 OFFCURVE",
"215 280 CURVE SMOOTH",
"228.994 363.964 OFFCURVE",
"276.401 418 OFFCURVE",
"359 418 CURVE SMOOTH",
"428.491 418 OFFCURVE",
"468.911 367.013 OFFCURVE",
"458 297 CURVE SMOOTH",
"454 273 LINE SMOOTH",
"441.376 194.346 OFFCURVE",
"394.153 146 OFFCURVE",
"316 146 CURVE SMOOTH"
);
}
);
width = 696;
},
{
anchors = (
{
name = bottom;
position = "{213, -300}";
},
{
name = top;
position = "{379, 534}";
}
);
layerId = "A9BE7077-88A3-49D0-803C-7BC96B0B926B";
paths = (
{
closed = 1;
nodes = (
"399.882 -208 OFFCURVE",
"526.071 -115.747 OFFCURVE",
"554 63 CURVE SMOOTH",
"629 534 LINE",
"553 534 LINE",
"517 306 LINE",
"545 307 LINE",
"562.078 448.119 OFFCURVE",
"488.259 552 OFFCURVE",
"353 552 CURVE SMOOTH",
"185.351 552 OFFCURVE",
"79.721 454.008 OFFCURVE",
"53 287 CURVE SMOOTH",
"50 269 LINE SMOOTH",
"24.676 112.837 OFFCURVE",
"108.476 -4 OFFCURVE",
"260 -4 CURVE SMOOTH",
"406.765 -4 OFFCURVE",
"492.096 89.291 OFFCURVE",
"522 237 CURVE",
"478 161 LINE",
"462 59 LINE SMOOTH",
"442.419 -63.15 OFFCURVE",
"358.034 -128 OFFCURVE",
"233 -128 CURVE SMOOTH",
"177.926 -128 OFFCURVE",
"139.467 -124.112 OFFCURVE",
"85 -116 CURVE",
"72 -197 LINE",
"124.908 -205.417 OFFCURVE",
"162.429 -208 OFFCURVE",
"216 -208 CURVE SMOOTH"
);
},
{
closed = 1;
nodes = (
"186.174 84 OFFCURVE",
"129.356 167.492 OFFCURVE",
"147 278 CURVE SMOOTH",
"166.359 397.21 OFFCURVE",
"236.087 472 OFFCURVE",
"354 472 CURVE SMOOTH",
"454.383 472 OFFCURVE",
"516.503 403.577 OFFCURVE",
"501 306 CURVE SMOOTH",
"493 260 LINE SMOOTH",
"475.772 148.526 OFFCURVE",
"404.197 84 OFFCURVE",
"292 84 CURVE SMOOTH"
);
}
);
width = 670;
},
{
anchors = (
{
name = bottom;
position = "{220, -300}";
},
{
name = top;
position = "{377, 520}";
}
);
layerId = "45FAA47D-3C03-4CCA-BDE3-DFC1510ED13C";
paths = (
{
closed = 1;
nodes = (
"395.568 -204 OFFCURVE",
"501.238 -113.58 OFFCURVE",
"527 47 CURVE SMOOTH",
"602 520 LINE",
"576 520 LINE",
"546 330 LINE",
"555 289 LINE",
"577.675 431.854 OFFCURVE",
"494.987 536 OFFCURVE",
"353 536 CURVE SMOOTH",
"186.828 536 OFFCURVE",
"88.333 430.902 OFFCURVE",
"61 263 CURVE SMOOTH",
"60 257 LINE SMOOTH",
"36.113 101.163 OFFCURVE",
"116.651 -16 OFFCURVE",
"266 -16 CURVE SMOOTH",
"421.791 -16 OFFCURVE",
"519.649 75.616 OFFCURVE",
"544 231 CURVE",
"513 160 LINE",
"495 48 LINE SMOOTH",
"473.007 -92.418 OFFCURVE",
"383.229 -174 OFFCURVE",
"242 -174 CURVE SMOOTH",
"186.874 -174 OFFCURVE",
"148.341 -170.249 OFFCURVE",
"94 -161 CURVE",
"89 -191 LINE",
"141.825 -200.391 OFFCURVE",
"179.345 -204 OFFCURVE",
"233 -204 CURVE SMOOTH"
);
},
{
closed = 1;
nodes = (
"140.339 14 OFFCURVE",
"70.608 120.319 OFFCURVE",
"93 260 CURVE SMOOTH",
"116.234 410.408 OFFCURVE",
"202.817 506 OFFCURVE",
"351 506 CURVE SMOOTH",
"478.898 506 OFFCURVE",
"554.934 414.356 OFFCURVE",
"535 287 CURVE SMOOTH",
"526 233 LINE SMOOTH",
"504.464 93.583 OFFCURVE",
"413.731 14 OFFCURVE",
"273 14 CURVE SMOOTH"
);
}
);
width = 656;
}
);
leftKerningGroup = lc_Round;
rightKerningGroup = lc_g;
unicode = 0067;
},
{
color = 7;
glyphname = h;
layers = (
{
anchors = (
{
name = bottom;
position = "{316, 0}";
},
{
name = center;
position = "{190, 639}";
},
{
name = top;
position = "{124, 730}";
}
);
layerId = "3423A7C6-8126-4A24-975D-243FD1A28608";
name = public.background;
paths = (
{
closed = 1;
nodes = (
"140 0 LINE",
"140 318 LINE SMOOTH",
"140 428 OFFCURVE",
"210 504 OFFCURVE",
"322 504 CURVE SMOOTH",
"432 504 OFFCURVE",
"492 429 OFFCURVE",
"492 320 CURVE SMOOTH",
"492 0 LINE",
"524 0 LINE",
"524 312 LINE SMOOTH",
"524 445 OFFCURVE",
"455 534 OFFCURVE",
"325 534 CURVE",
"323 534 LINE",
"191 534 OFFCURVE",
"123 440 OFFCURVE",
"123 312 CURVE",
"140 363 LINE",
"140 730 LINE",
"108 730 LINE",
"108 0 LINE"
);
}
);
width = 656;
},
{
anchors = (
{
name = bottom;
position = "{287, 0}";
},
{
name = center;
position = "{253, 637}";
},
{
name = top;
position = "{227, 730}";
}
);
layerId = "670CA61E-2201-4EBA-9CF0-D57F8D98A45A";
paths = (
{
closed = 1;
nodes = (
"202 0 LINE",
"253 319 LINE SMOOTH",
"261.455 375.017 OFFCURVE",
"296.835 408 OFFCURVE",
"353 408 CURVE SMOOTH",
"402.48 408 OFFCURVE",
"430.871 371.18 OFFCURVE",
"423 321 CURVE SMOOTH",
"372 0 LINE",
"554 0 LINE",
"604 314 LINE SMOOTH",
"626.695 455.212 OFFCURVE",
"581.84 570 OFFCURVE",
"459 570 CURVE SMOOTH",
"451 570 LINE SMOOTH",
"312.492 570 OFFCURVE",
"251.536 460.445 OFFCURVE",
"228 314 CURVE",
"252 314 LINE",
"318 730 LINE",
"136 730 LINE",
"20 0 LINE"
);
}
);
width = 655;
},
{
anchors = (
{
name = bottom;
position = "{280, 0}";
},
{
name = center;
position = "{255, 642}";
},
{
name = top;
position = "{212, 730}";
}
);
layerId = "A9BE7077-88A3-49D0-803C-7BC96B0B926B";
paths = (
{
closed = 1;
nodes = (
"144 0 LINE",
"193 308 LINE SMOOTH",
"208.452 402.774 OFFCURVE",
"264.164 462 OFFCURVE",
"358 462 CURVE SMOOTH",
"435.58 462 OFFCURVE",
"479.813 404.058 OFFCURVE",
"468 325 CURVE SMOOTH",
"416 0 LINE",
"512 0 LINE",
"560 305 LINE SMOOTH",
"581.756 441.627 OFFCURVE",
"527.895 550 OFFCURVE",
"405 550 CURVE SMOOTH",
"401 550 LINE SMOOTH",
"258.927 550 OFFCURVE",
"190.549 442.831 OFFCURVE",
"167 294 CURVE",
"191 294 LINE",
"260 730 LINE",
"164 730 LINE",
"48 0 LINE"
);
}
);
width = 640;
},
{
anchors = (
{
name = bottom;
position = "{273, 0}";
},
{
name = center;
position = "{248, 639}";
},
{
name = top;
position = "{197, 730}";
}
);
layerId = "45FAA47D-3C03-4CCA-BDE3-DFC1510ED13C";
paths = (
{
closed = 1;
nodes = (
"97 0 LINE",
"148 318 LINE SMOOTH",
"166.153 435.464 OFFCURVE",
"240.975 504 OFFCURVE",
"359 504 CURVE SMOOTH",
"460.651 504 OFFCURVE",
"516.417 425.262 OFFCURVE",
"500 320 CURVE SMOOTH",
"449 0 LINE",
"481 0 LINE",
"531 312 LINE SMOOTH",
"550.936 438.259 OFFCURVE",
"487.237 534 OFFCURVE",
"367 534 CURVE",
"365 534 LINE",
"230.539 534 OFFCURVE",
"151.278 448.176 OFFCURVE",
"130 312 CURVE",
"155 363 LINE",
"213 730 LINE",
"181 730 LINE",
"65 0 LINE"
);
}
);
width = 625;
}
);
leftKerningGroup = lc_LongStem;
rightKerningGroup = lc_Shoulder;
unicode = 0068;
},
{
color = 7;
glyphname = i;
layers = (
{
anchors = (
{
name = bottom;
position = "{154, 0}";
}
);
layerId = "3423A7C6-8126-4A24-975D-243FD1A28608";
name = public.background;
paths = (
{
closed = 1;
nodes = (
"170 0 LINE",
"170 520 LINE",
"138 520 LINE",
"138 0 LINE"
);
},
{
closed = 1;
nodes = (
"170 490 LINE",
"170 520 LINE",
"48 520 LINE",
"48 490 LINE"
);
},
{
closed = 1;
nodes = (
"154 642 OFFCURVE",
"166 655 OFFCURVE",
"166 675 CURVE SMOOTH",
"166 694 OFFCURVE",
"154 708 OFFCURVE",
"132 708 CURVE SMOOTH",
"110 708 OFFCURVE",
"98 694 OFFCURVE",
"98 675 CURVE SMOOTH",
"98 655 OFFCURVE",
"110 642 OFFCURVE",
"132 642 CURVE SMOOTH"
);
}
);
width = 342;
},
{
anchors = (
{
name = bottom;
position = "{121, 0}";
}
);
layerId = "670CA61E-2201-4EBA-9CF0-D57F8D98A45A";
paths = (
{
closed = 1;
nodes = (
"212 0 LINE",
"300 552 LINE",
"118 552 LINE",
"30 0 LINE"
);
},
{
closed = 1;
nodes = (
"279 420 LINE",
"300 552 LINE",
"48 552 LINE",
"27 420 LINE"
);
},
{
closed = 1;
nodes = (
"265 596 OFFCURVE",
"301 634 OFFCURVE",
"309 687 CURVE SMOOTH",
"318 740 OFFCURVE",
"294 778 OFFCURVE",
"228 778 CURVE SMOOTH",
"162 778 OFFCURVE",
"126 740 OFFCURVE",
"117 687 CURVE SMOOTH",
"109 634 OFFCURVE",
"133 596 OFFCURVE",
"199 596 CURVE SMOOTH"
);
}
);
width = 342;
},
{
anchors = (
{
name = bottom;
position = "{107, 0}";
}
);
layerId = "A9BE7077-88A3-49D0-803C-7BC96B0B926B";
paths = (
{
closed = 1;
nodes = (
"155 0 LINE",
"240 534 LINE",
"144 534 LINE",
"59 0 LINE"
);
},
{
closed = 1;
nodes = (
"228 458 LINE",
"240 534 LINE",
"62 534 LINE",
"50 458 LINE"
);
},
{
closed = 1;
nodes = (
"228 620 OFFCURVE",
"252 645 OFFCURVE",
"257 680 CURVE SMOOTH",
"263 715 OFFCURVE",
"247 740 OFFCURVE",
"204 740 CURVE SMOOTH",
"161 740 OFFCURVE",
"137 715 OFFCURVE",
"131 680 CURVE SMOOTH",
"126 645 OFFCURVE",
"142 620 OFFCURVE",
"185 620 CURVE SMOOTH"
);
}
);
width = 308;
},
{
anchors = (
{
name = bottom;
position = "{98, 0}";
}
);
layerId = "45FAA47D-3C03-4CCA-BDE3-DFC1510ED13C";
paths = (
{
closed = 1;
nodes = (
"114 0 LINE",
"196 520 LINE",
"164 520 LINE",
"82 0 LINE"
);
},
{
closed = 1;
nodes = (
"192 490 LINE",
"196 520 LINE",
"74 520 LINE",
"70 490 LINE"
);
},
{
closed = 1;
nodes = (
"200 642 OFFCURVE",
"214 655 OFFCURVE",
"217 675 CURVE SMOOTH",
"220 694 OFFCURVE",
"210 708 OFFCURVE",
"188 708 CURVE SMOOTH",
"166 708 OFFCURVE",
"152 694 OFFCURVE",
"149 675 CURVE SMOOTH",
"146 655 OFFCURVE",
"156 642 OFFCURVE",
"178 642 CURVE SMOOTH"
);
}
);
width = 280;
}
);
leftKerningGroup = lc_ShortStem;
rightKerningGroup = lc_ShortStem;
unicode = 0069;
},
{
color = 7;
glyphname = idotless;
layers = (
{
anchors = (
{
name = bottom;
position = "{154, 0}";
},
{
name = ogonek;
position = "{170, 10}";
},
{
name = top;
position = "{113, 520}";
}
);
layerId = "3423A7C6-8126-4A24-975D-243FD1A28608";
name = public.background;
paths = (
{
closed = 1;
nodes = (
"170 0 LINE",
"170 520 LINE",
"138 520 LINE",
"138 0 LINE"
);
},
{
closed = 1;
nodes = (
"170 490 LINE",
"170 520 LINE",
"48 520 LINE",
"48 490 LINE"
);
}
);
width = 342;
},
{
anchors = (
{
name = bottom;
position = "{139, 0}";
},
{
name = ogonek;
position = "{208, 10}";
},
{
name = top;
position = "{203, 552}";
}
);
layerId = "670CA61E-2201-4EBA-9CF0-D57F8D98A45A";
paths = (
{
closed = 1;
nodes = (
"230 0 LINE",
"318 552 LINE",
"136 552 LINE",
"48 0 LINE"
);
},
{
closed = 1;
nodes = (
"297 420 LINE",
"318 552 LINE",
"66 552 LINE",
"45 420 LINE"
);
}
);
width = 342;
},
{
anchors = (
{
name = bottom;
position = "{124, 0}";
},
{
name = ogonek;
position = "{173, 10}";
},
{
name = top;
position = "{176, 534}";
}
);
layerId = "A9BE7077-88A3-49D0-803C-7BC96B0B926B";
paths = (
{
closed = 1;
nodes = (
"172 0 LINE",
"256 534 LINE",
"160 534 LINE",
"76 0 LINE"
);
},
{
closed = 1;
nodes = (
"244 458 LINE",
"256 534 LINE",
"78 534 LINE",
"66 458 LINE"
);
}
);
width = 308;
},
{
anchors = (
{
name = bottom;
position = "{113, 0}";
},
{
name = ogonek;
position = "{130, 10}";
},
{
name = top;
position = "{154, 520}";
}
);
layerId = "45FAA47D-3C03-4CCA-BDE3-DFC1510ED13C";
paths = (
{
closed = 1;
nodes = (
"129 0 LINE",
"211 520 LINE",
"179 520 LINE",
"97 0 LINE"
);
},
{
closed = 1;
nodes = (
"206 490 LINE",
"211 520 LINE",
"89 520 LINE",
"84 490 LINE"
);
}
);
width = 280;
}
);
leftKerningGroup = lc_ShortStem;
rightKerningGroup = lc_ShortStem;
unicode = 0131;
},
{
color = 7;
glyphname = j;
layers = (
{
layerId = "670CA61E-2201-4EBA-9CF0-D57F8D98A45A";
paths = (
{
closed = 1;
nodes = (
"-64.239 -206 LINE SMOOTH",
"92.665 -206 OFFCURVE",
"201.826 -129.824 OFFCURVE",
"225.873 22 CURVE SMOOTH",
"309.817 552 LINE",
"133.817 552 LINE",
"49.556 20 LINE SMOOTH",
"42.092 -27.127 OFFCURVE",
"11.423 -54 OFFCURVE",
"-36.164 -54 CURVE SMOOTH",
"-64.164 -54 LINE",
"-88.239 -206 LINE"
);
},
{
closed = 1;
nodes = (
"288.91 420 LINE",
"309.817 552 LINE",
"59.817 552 LINE",
"38.91 420 LINE"
);
},
{
closed = 1;
nodes = (
"269.262 596 OFFCURVE",
"309.821 627.797 OFFCURVE",
"319.199 687 CURVE SMOOTH",
"327.695 740.646 OFFCURVE",
"293.08 778 OFFCURVE",
"237.612 778 CURVE SMOOTH",
"177.136 778 OFFCURVE",
"136.575 746.203 OFFCURVE",
"127.199 687 CURVE SMOOTH",
"118.702 633.355 OFFCURVE",
"153.317 596 OFFCURVE",
"208.786 596 CURVE SMOOTH"
);
}
);
width = 346;
},
{
layerId = "A9BE7077-88A3-49D0-803C-7BC96B0B926B";
paths = (
{
closed = 1;
nodes = (
"-51.546 -204 LINE SMOOTH",
"65.901 -204 OFFCURVE",
"143.513 -140.486 OFFCURVE",
"161.805 -25 CURVE SMOOTH",
"250.342 534 LINE",
"158.342 534 LINE",
"67.587 -39 LINE SMOOTH",
"59.619 -89.311 OFFCURVE",
"26.877 -118 OFFCURVE",
"-23.925 -118 CURVE SMOOTH",
"-79.925 -118 LINE",
"-93.546 -204 LINE"
);
},
{
closed = 1;
nodes = (
"238.304 458 LINE",
"250.342 534 LINE",
"74.342 534 LINE",
"62.304 458 LINE"
);
},
{
closed = 1;
nodes = (
"235.987 628 OFFCURVE",
"262.562 649.04 OFFCURVE",
"268.733 688 CURVE SMOOTH",
"274.328 723.326 OFFCURVE",
"251.675 748 OFFCURVE",
"215.236 748 CURVE SMOOTH",
"175.479 748 OFFCURVE",
"148.903 726.96 OFFCURVE",
"142.733 688 CURVE SMOOTH",
"137.137 652.674 OFFCURVE",
"159.791 628 OFFCURVE",
"196.23 628 CURVE SMOOTH"
);
}
);
width = 317;
},
{
layerId = "45FAA47D-3C03-4CCA-BDE3-DFC1510ED13C";
paths = (
{
closed = 1;
nodes = (
"-37.854 -202 LINE SMOOTH",
"48.913 -202 OFFCURVE",
"98.252 -144.504 OFFCURVE",
"112.27 -56 CURVE SMOOTH",
"203.5 520 LINE",
"171.5 520 LINE",
"78.053 -70 LINE SMOOTH",
"68.461 -130.563 OFFCURVE",
"37.494 -172 OFFCURVE",
"-21.102 -172 CURVE SMOOTH",
"-90.102 -172 LINE",
"-94.854 -202 LINE"
);
},
{
closed = 1;
nodes = (
"198.748 490 LINE",
"203.5 520 LINE",
"79.5 520 LINE",
"74.748 490 LINE"
);
},
{
closed = 1;
nodes = (
"208.018 652 OFFCURVE",
"222.266 663.736 OFFCURVE",
"225.633 685 CURVE SMOOTH",
"228.696 704.333 OFFCURVE",
"216.61 718 OFFCURVE",
"196.86 718 CURVE SMOOTH",
"175.249 718 OFFCURVE",
"161.002 706.264 OFFCURVE",
"157.633 685 CURVE SMOOTH",
"154.572 665.666 OFFCURVE",
"166.657 652 OFFCURVE",
"186.407 652 CURVE SMOOTH"
);
}
);
width = 288;
},
{
layerId = "3423A7C6-8126-4A24-975D-243FD1A28608";
name = public.background;
paths = (
{
closed = 1;
nodes = (
"51 -202 LINE SMOOTH",
"142 -202 OFFCURVE",
"178 -160 OFFCURVE",
"178 -56 CURVE SMOOTH",
"178 520 LINE",
"146 520 LINE",
"146 -70 LINE SMOOTH",
"146 -138 OFFCURVE",
"118 -172 OFFCURVE",
"63 -172 CURVE SMOOTH",
"-6 -172 LINE",
"-6 -202 LINE"
);
},
{
closed = 1;
nodes = (
"178 490 LINE",
"178 520 LINE",
"54 520 LINE",
"54 490 LINE"
);
},
{
closed = 1;
nodes = (
"162 652 OFFCURVE",
"174 665 OFFCURVE",
"174 685 CURVE SMOOTH",
"174 704 OFFCURVE",
"162 718 OFFCURVE",
"140 718 CURVE SMOOTH",
"118 718 OFFCURVE",
"106 704 OFFCURVE",
"106 685 CURVE SMOOTH",
"106 665 OFFCURVE",
"118 652 OFFCURVE",
"140 652 CURVE SMOOTH"
);
}
);
width = 346;
}
);
leftKerningGroup = lc_j;
rightKerningGroup = lc_j;
unicode = 006A;
},
{
color = 6;
glyphname = jdotless;
layers = (
{
anchors = (
{
name = bottom;
position = "{160, -300}";
},
{
name = top;
position = "{123, 520}";
}
);
layerId = "3423A7C6-8126-4A24-975D-243FD1A28608";
name = public.background;
paths = (
{
closed = 1;
nodes = (
"51 -202 LINE SMOOTH",
"142 -202 OFFCURVE",
"178 -160 OFFCURVE",
"178 -56 CURVE SMOOTH",
"178 520 LINE",
"146 520 LINE",
"146 -70 LINE SMOOTH",
"146 -138 OFFCURVE",
"118 -172 OFFCURVE",
"63 -172 CURVE SMOOTH",
"-6 -172 LINE",
"-6 -202 LINE"
);
},
{
closed = 1;
nodes = (
"178 490 LINE",
"178 520 LINE",
"54 520 LINE",
"54 490 LINE"
);
}
);
width = 346;
},
{
anchors = (
{
name = bottom;
position = "{69, -300}";
},
{
name = top;
position = "{205, 552}";
}
);
layerId = "670CA61E-2201-4EBA-9CF0-D57F8D98A45A";
paths = (
{
closed = 1;
nodes = (
"-46 -206 LINE SMOOTH",
"130 -206 OFFCURVE",
"217 -144 OFFCURVE",
"244 22 CURVE SMOOTH",
"328 552 LINE",
"152 552 LINE",
"67 20 LINE SMOOTH",
"60 -28 OFFCURVE",
"30 -54 OFFCURVE",
"-18 -54 CURVE SMOOTH",
"-46 -54 LINE",
"-70 -206 LINE"
);
},
{
closed = 1;
nodes = (
"307 420 LINE",
"328 552 LINE",
"78 552 LINE",
"57 420 LINE"
);
}
);
width = 346;
},
{
anchors = (
{
name = bottom;
position = "{70, -300}";
},
{
name = top;
position = "{182, 534}";
}
);
layerId = "A9BE7077-88A3-49D0-803C-7BC96B0B926B";
paths = (
{
closed = 1;
nodes = (
"-35 -204 LINE SMOOTH",
"99 -204 OFFCURVE",
"158 -159 OFFCURVE",
"179 -25 CURVE SMOOTH",
"267 534 LINE",
"175 534 LINE",
"85 -39 LINE SMOOTH",
"77 -89 OFFCURVE",
"43 -118 OFFCURVE",
"-7 -118 CURVE SMOOTH",
"-63 -118 LINE",
"-77 -204 LINE"
);
},
{
closed = 1;
nodes = (
"255 458 LINE",
"267 534 LINE",
"91 534 LINE",
"79 458 LINE"
);
}
);
width = 317;
},
{
anchors = (
{
name = bottom;
position = "{71, -300}";
},
{
name = top;
position = "{164, 520}";
}
);
layerId = "45FAA47D-3C03-4CCA-BDE3-DFC1510ED13C";
paths = (
{
closed = 1;
nodes = (
"-22 -202 LINE SMOOTH",
"69 -202 OFFCURVE",
"111 -160 OFFCURVE",
"128 -56 CURVE SMOOTH",
"219 520 LINE",
"187 520 LINE",
"94 -70 LINE SMOOTH",
"83 -138 OFFCURVE",
"50 -172 OFFCURVE",
"-5 -172 CURVE SMOOTH",
"-74 -172 LINE",
"-79 -202 LINE"
);
},
{
closed = 1;
nodes = (
"214 490 LINE",
"219 520 LINE",
"95 520 LINE",
"90 490 LINE"
);
}
);
width = 288;
}
);
leftKerningGroup = lc_j;
rightKerningGroup = lc_j;
unicode = 0237;
},
{
color = 7;
glyphname = k;
layers = (
{
anchors = (
{
name = bottom;
position = "{299, 0}";
},
{
name = top;
position = "{124, 730}";
}
);
layerId = "3423A7C6-8126-4A24-975D-243FD1A28608";
name = public.background;
paths = (
{
closed = 1;
nodes = (
"492 0 LINE",
"202 302 LINE",
"203 279 LINE",
"434 520 LINE",
"395 520 LINE",
"133 246 LINE",
"215 246 LINE",
"451 0 LINE"
);
},
{
closed = 1;
nodes = (
"140 0 LINE",
"140 730 LINE",
"108 730 LINE",
"108 0 LINE"
);
}
);
width = 673;
},
{
anchors = (
{
name = bottom;
position = "{300, 0}";
},
{
name = top;
position = "{227, 730}";
}
);
layerId = "670CA61E-2201-4EBA-9CF0-D57F8D98A45A";
paths = (
{
closed = 1;
nodes = (
"615 0 LINE",
"434 363 LINE",
"420 275 LINE",
"669 552 LINE",
"479 552 LINE",
"216 258 LINE",
"290 258 LINE",
"412 0 LINE"
);
},
{
closed = 1;
nodes = (
"202 0 LINE",
"318 730 LINE",
"136 730 LINE",
"20 0 LINE"
);
}
);
width = 673;
},
{
anchors = (
{
name = bottom;
position = "{279, 0}";
},
{
name = top;
position = "{212, 730}";
}
);
layerId = "A9BE7077-88A3-49D0-803C-7BC96B0B926B";
paths = (
{
closed = 1;
nodes = (
"527 0 LINE",
"310 328 LINE",
"295 277 LINE",
"558 534 LINE",
"457 534 LINE",
"167 249 LINE",
"255 249 LINE",
"416 0 LINE"
);
},
{
closed = 1;
nodes = (
"144 0 LINE",
"260 730 LINE",
"164 730 LINE",
"48 0 LINE"
);
}
);
width = 587;
},
{
anchors = (
{
name = bottom;
position = "{256, 0}";
},
{
name = top;
position = "{197, 730}";
}
);
layerId = "45FAA47D-3C03-4CCA-BDE3-DFC1510ED13C";
paths = (
{
closed = 1;
nodes = (
"449 0 LINE",
"207 302 LINE",
"204 279 LINE",
"474 520 LINE",
"435 520 LINE",
"129 246 LINE",
"211 246 LINE",
"408 0 LINE"
);
},
{
closed = 1;
nodes = (
"97 0 LINE",
"213 730 LINE",
"181 730 LINE",
"65 0 LINE"
);
}
);
width = 517;
}
);
leftKerningGroup = lc_LongStem;
rightKerningGroup = lc_k;
unicode = 006B;
},
{
color = 7;
glyphname = l;
layers = (
{
anchors = (
{
name = bottom;
position = "{126, 0}";
},
{
name = center;
position = "{126, 480}";
},
{
name = top;
position = "{88, 730}";
},
{
name = topright;
position = "{144, 534}";
}
);
layerId = "3423A7C6-8126-4A24-975D-243FD1A28608";
name = public.background;
paths = (
{
closed = 1;
nodes = (
"142 0 LINE",
"142 730 LINE",
"110 730 LINE",
"110 0 LINE"
);
},
{
closed = 1;
nodes = (
"142 700 LINE",
"142 730 LINE",
"28 730 LINE",
"28 700 LINE"
);
}
);
width = 324;
},
{
anchors = (
{
name = bottom;
position = "{107, 0}";
},
{
name = center;
position = "{183, 480}";
},
{
name = top;
position = "{196, 730}";
},
{
name = topright;
position = "{267, 534}";
}
);
layerId = "670CA61E-2201-4EBA-9CF0-D57F8D98A45A";
paths = (
{
closed = 1;
nodes = (
"198 0 LINE",
"314 730 LINE",
"132 730 LINE",
"16 0 LINE"
);
},
{
closed = 1;
nodes = (
"293 598 LINE",
"314 730 LINE",
"70 730 LINE",
"49 598 LINE"
);
}
);
width = 324;
},
{
anchors = (
{
name = bottom;
position = "{88, 0}";
},
{
name = center;
position = "{164, 480}";
},
{
name = top;
position = "{177, 730}";
},
{
name = topright;
position = "{221, 534}";
}
);
layerId = "A9BE7077-88A3-49D0-803C-7BC96B0B926B";
paths = (
{
closed = 1;
nodes = (
"136 0 LINE",
"252 730 LINE",
"156 730 LINE",
"40 0 LINE"
);
},
{
closed = 1;
nodes = (
"240 654 LINE",
"252 730 LINE",
"82 730 LINE",
"70 654 LINE"
);
}
);
width = 286;
},
{
anchors = (
{
name = bottom;
position = "{68, 0}";
},
{
name = center;
position = "{144, 480}";
},
{
name = top;
position = "{146, 730}";
},
{
name = topright;
position = "{171, 534}";
}
);
layerId = "45FAA47D-3C03-4CCA-BDE3-DFC1510ED13C";
paths = (
{
closed = 1;
nodes = (
"84 0 LINE",
"200 730 LINE",
"168 730 LINE",
"52 0 LINE"
);
},
{
closed = 1;
nodes = (
"195 700 LINE",
"200 730 LINE",
"86 730 LINE",
"81 700 LINE"
);
}
);
width = 250;
}
);
leftKerningGroup = lc_l;
rightKerningGroup = lc_LongStem;
unicode = 006C;
},
{
color = 7;
glyphname = lslash;
layers = (
{
layerId = "3423A7C6-8126-4A24-975D-243FD1A28608";
name = public.background;
paths = (
{
closed = 1;
nodes = (
"116 310 LINE",
"116 341 LINE",
"38 294 LINE",
"38 263 LINE"
);
},
{
closed = 1;
nodes = (
"211 367 LINE",
"211 398 LINE",
"136 353 LINE",
"136 322 LINE"
);
}
);
width = 324;
},
{
components = (
{
name = l;
alignment = -1;
}
);
layerId = "670CA61E-2201-4EBA-9CF0-D57F8D98A45A";
paths = (
{
closed = 1;
nodes = (
"119 251 LINE",
"140 383 LINE",
"1 313 LINE",
"-20 181 LINE"
);
},
{
closed = 1;
nodes = (
"314 346 LINE",
"335 478 LINE",
"200 411 LINE",
"179 279 LINE"
);
}
);
width = 324;
},
{
components = (
{
name = l;
alignment = -1;
}
);
layerId = "A9BE7077-88A3-49D0-803C-7BC96B0B926B";
paths = (
{
closed = 1;
nodes = (
"105 281 LINE",
"116 353 LINE",
"8 296 LINE",
"-3 224 LINE"
);
},
{
closed = 1;
nodes = (
"273 366 LINE",
"285 438 LINE",
"177 381 LINE",
"165 309 LINE"
);
}
);
width = 286;
},
{
components = (
{
name = l;
alignment = -1;
}
);
layerId = "45FAA47D-3C03-4CCA-BDE3-DFC1510ED13C";
paths = (
{
closed = 1;
nodes = (
"107 310 LINE",
"112 341 LINE",
"27 294 LINE",
"22 263 LINE"
);
},
{
closed = 1;
nodes = (
"211 367 LINE",
"216 398 LINE",
"134 353 LINE",
"129 322 LINE"
);
}
);
width = 250;
}
);
leftKerningGroup = lc_lslash;
rightKerningGroup = lc_lslash;
unicode = 0142;
},
{
color = 7;
glyphname = m;
layers = (
{
layerId = "670CA61E-2201-4EBA-9CF0-D57F8D98A45A";
paths = (
{
closed = 1;
nodes = (
"202.86 0 LINE",
"253.068 317 LINE SMOOTH",
"261.872 372.582 OFFCURVE",
"293.731 408 OFFCURVE",
"348.481 408 CURVE SMOOTH",
"396.354 408 OFFCURVE",
"421.387 369.52 OFFCURVE",
"413.385 319 CURVE SMOOTH",
"362.86 0 LINE",
"544.86 0 LINE",
"595.068 317 LINE SMOOTH",
"603.872 372.582 OFFCURVE",
"635.731 408 OFFCURVE",
"690.481 408 CURVE SMOOTH",
"738.354 408 OFFCURVE",
"763.387 369.52 OFFCURVE",
"755.385 319 CURVE SMOOTH",
"704.86 0 LINE",
"886.86 0 LINE",
"936.593 314 LINE SMOOTH",
"959.051 455.79 OFFCURVE",
"909.959 570 OFFCURVE",
"785.14 570 CURVE SMOOTH",
"777.14 570 LINE SMOOTH",
"636.832 570 OFFCURVE",
"571.984 461.686 OFFCURVE",
"548.593 314 CURVE",
"590.593 314 LINE",
"612.994 455.431 OFFCURVE",
"566.678 570 OFFCURVE",
"443.14 570 CURVE SMOOTH",
"435.14 570 LINE SMOOTH",
"294.832 570 OFFCURVE",
"229.984 461.686 OFFCURVE",
"206.593 314 CURVE",
"214.593 314 LINE",
"252.289 552 LINE",
"108.289 552 LINE",
"20.86 0 LINE"
);
}
);
width = 988;
},
{
layerId = "A9BE7077-88A3-49D0-803C-7BC96B0B926B";
paths = (
{
closed = 1;
nodes = (
"144.444 0 LINE",
"195.127 320 LINE SMOOTH",
"209.033 407.797 OFFCURVE",
"261.485 462 OFFCURVE",
"348.618 462 CURVE SMOOTH",
"421.885 462 OFFCURVE",
"460.31 403.23 OFFCURVE",
"448.078 326 CURVE SMOOTH",
"396.444 0 LINE",
"492.444 0 LINE",
"543.127 320 LINE SMOOTH",
"557.033 407.797 OFFCURVE",
"609.485 462 OFFCURVE",
"696.618 462 CURVE SMOOTH",
"769.885 462 OFFCURVE",
"808.31 403.23 OFFCURVE",
"796.078 326 CURVE SMOOTH",
"744.444 0 LINE",
"840.444 0 LINE",
"888.752 305 LINE SMOOTH",
"910.305 441.087 OFFCURVE",
"860.42 550 OFFCURVE",
"739.556 550 CURVE SMOOTH",
"735.556 550 LINE SMOOTH",
"598.653 550 OFFCURVE",
"531.406 448.032 OFFCURVE",
"508.752 305 CURVE",
"536.752 305 LINE",
"558.276 440.903 OFFCURVE",
"509.752 550 OFFCURVE",
"389.556 550 CURVE SMOOTH",
"385.556 550 LINE SMOOTH",
"249.311 550 OFFCURVE",
"183.339 447.61 OFFCURVE",
"160.752 305 CURVE",
"172.752 305 LINE",
"209.022 534 LINE",
"133.022 534 LINE",
"48.444 0 LINE"
);
}
);
width = 968;
},
{
layerId = "45FAA47D-3C03-4CCA-BDE3-DFC1510ED13C";
paths = (
{
closed = 1;
nodes = (
"97.711 0 LINE",
"147.761 316 LINE SMOOTH",
"165.936 430.751 OFFCURVE",
"231.552 504 OFFCURVE",
"344.537 504 CURVE SMOOTH",
"440.266 504 OFFCURVE",
"486.795 423.551 OFFCURVE",
"470.394 320 CURVE SMOOTH",
"419.711 0 LINE",
"451.711 0 LINE",
"501.761 316 LINE SMOOTH",
"519.936 430.751 OFFCURVE",
"585.552 504 OFFCURVE",
"698.537 504 CURVE SMOOTH",
"794.266 504 OFFCURVE",
"840.795 423.551 OFFCURVE",
"824.394 320 CURVE SMOOTH",
"773.711 0 LINE",
"805.711 0 LINE",
"855.127 312 LINE SMOOTH",
"874.866 436.629 OFFCURVE",
"820.656 534 OFFCURVE",
"706.289 534 CURVE",
"704.289 534 LINE",
"574.889 534 OFFCURVE",
"504.19 444.987 OFFCURVE",
"483.127 312 CURVE",
"499.127 312 LINE",
"518.834 436.428 OFFCURVE",
"465.916 534 OFFCURVE",
"352.289 534 CURVE",
"350.289 534 LINE",
"220.889 534 OFFCURVE",
"150.19 444.987 OFFCURVE",
"129.127 312 CURVE",
"141.127 312 LINE",
"174.23 521 LINE",
"148.23 521 LINE",
"65.711 0 LINE"
);
}
);
width = 950;
},
{
layerId = "3423A7C6-8126-4A24-975D-243FD1A28608";
name = public.background;
paths = (
{
closed = 1;
nodes = (
"140 0 LINE",
"140 316 LINE SMOOTH",
"140 425 OFFCURVE",
"201 504 OFFCURVE",
"307 504 CURVE SMOOTH",
"411 504 OFFCURVE",
"462 426 OFFCURVE",
"462 320 CURVE SMOOTH",
"462 0 LINE",
"494 0 LINE",
"494 316 LINE SMOOTH",
"494 425 OFFCURVE",
"555 504 OFFCURVE",
"661 504 CURVE SMOOTH",
"765 504 OFFCURVE",
"816 426 OFFCURVE",
"816 320 CURVE SMOOTH",
"816 0 LINE",
"848 0 LINE",
"848 312 LINE SMOOTH",
"848 442 OFFCURVE",
"788 534 OFFCURVE",
"664 534 CURVE",
"662 534 LINE",
"536 534 OFFCURVE",
"476 437 OFFCURVE",
"476 312 CURVE",
"492 312 LINE",
"492 442 OFFCURVE",
"434 534 OFFCURVE",
"310 534 CURVE",
"308 534 LINE",
"182 534 OFFCURVE",
"122 437 OFFCURVE",
"122 312 CURVE",
"134 312 LINE",
"134 521 LINE",
"108 521 LINE",
"108 0 LINE"
);
}
);
width = 988;
}
);
leftKerningGroup = lc_ShortStem;
rightKerningGroup = lc_Shoulder;
unicode = 006D;
},
{
color = 7;
glyphname = n;
layers = (
{
anchors = (
{
name = bottom;
position = "{316, 0}";
},
{
name = top;
position = "{321, 520}";
}
);
layerId = "3423A7C6-8126-4A24-975D-243FD1A28608";
name = public.background;
paths = (
{
closed = 1;
nodes = (
"140 0 LINE",
"140 316 LINE SMOOTH",
"140 428 OFFCURVE",
"210 504 OFFCURVE",
"322 504 CURVE SMOOTH",
"432 504 OFFCURVE",
"492 429 OFFCURVE",
"492 320 CURVE SMOOTH",
"492 0 LINE",
"524 0 LINE",
"524 312 LINE SMOOTH",
"524 445 OFFCURVE",
"455 534 OFFCURVE",
"325 534 CURVE",
"323 534 LINE",
"191 534 OFFCURVE",
"122 440 OFFCURVE",
"122 312 CURVE",
"134 312 LINE",
"134 520 LINE",
"108 520 LINE",
"108 0 LINE"
);
}
);
width = 656;
},
{
anchors = (
{
name = bottom;
position = "{288, 0}";
},
{
name = top;
position = "{377, 552}";
}
);
layerId = "670CA61E-2201-4EBA-9CF0-D57F8D98A45A";
paths = (
{
closed = 1;
nodes = (
"203 0 LINE",
"253 319 LINE SMOOTH",
"262.473 374.784 OFFCURVE",
"297.139 408 OFFCURVE",
"353 408 CURVE SMOOTH",
"402.908 408 OFFCURVE",
"431.892 371.31 OFFCURVE",
"424 321 CURVE SMOOTH",
"373 0 LINE",
"555 0 LINE",
"605 316 LINE SMOOTH",
"627.182 457.309 OFFCURVE",
"574.043 570 OFFCURVE",
"448 570 CURVE SMOOTH",
"440 570 LINE SMOOTH",
"298.476 570 OFFCURVE",
"230.277 463.281 OFFCURVE",
"207 315 CURVE",
"215 315 LINE",
"252 552 LINE",
"108 552 LINE",
"21 0 LINE"
);
}
);
width = 656;
},
{
anchors = (
{
name = bottom;
position = "{280, 0}";
},
{
name = top;
position = "{369, 534}";
}
);
layerId = "A9BE7077-88A3-49D0-803C-7BC96B0B926B";
paths = (
{
closed = 1;
nodes = (
"144 0 LINE",
"195 319 LINE SMOOTH",
"209.745 409.579 OFFCURVE",
"267.797 462 OFFCURVE",
"359 462 CURVE SMOOTH",
"436.386 462 OFFCURVE",
"480.352 403.864 OFFCURVE",
"468 325 CURVE SMOOTH",
"416 0 LINE",
"512 0 LINE",
"561 305 LINE SMOOTH",
"582.68 442.019 OFFCURVE",
"526.282 550 OFFCURVE",
"402 550 CURVE SMOOTH",
"398 550 LINE SMOOTH",
"257.652 550 OFFCURVE",
"183.978 450.222 OFFCURVE",
"161 305 CURVE",
"173 305 LINE",
"209 534 LINE",
"133 534 LINE",
"48 0 LINE"
);
}
);
width = 640;
},
{
anchors = (
{
name = bottom;
position = "{274, 0}";
},
{
name = top;
position = "{361, 520}";
}
);
layerId = "45FAA47D-3C03-4CCA-BDE3-DFC1510ED13C";
paths = (
{
closed = 1;
nodes = (
"98 0 LINE",
"148 316 LINE SMOOTH",
"167.006 434.262 OFFCURVE",
"241.405 504 OFFCURVE",
"360 504 CURVE SMOOTH",
"461.607 504 OFFCURVE",
"517.345 425.035 OFFCURVE",
"500 320 CURVE SMOOTH",
"450 0 LINE",
"482 0 LINE",
"531 312 LINE SMOOTH",
"550.936 438.259 OFFCURVE",
"487.237 534 OFFCURVE",
"367 534 CURVE",
"365 534 LINE",
"230.17 534 OFFCURVE",
"150.313 448.406 OFFCURVE",
"129 312 CURVE",
"141 312 LINE",
"174 520 LINE",
"148 520 LINE",
"66 0 LINE"
);
}
);
width = 626;
}
);
leftKerningGroup = lc_ShortStem;
rightKerningGroup = lc_Shoulder;
unicode = 006E;
},
{
color = 7;
glyphname = eng;
layers = (
{
layerId = "3423A7C6-8126-4A24-975D-243FD1A28608";
name = public.background;
paths = (
{
closed = 1;
nodes = (
"180 -202 LINE SMOOTH",
"271 -202 OFFCURVE",
"307 -160 OFFCURVE",
"307 -56 CURVE SMOOTH",
"307 20 LINE",
"275 20 LINE",
"275 -70 LINE SMOOTH",
"275 -138 OFFCURVE",
"247 -172 OFFCURVE",
"192 -172 CURVE SMOOTH",
"108 -172 LINE",
"108 -202 LINE"
);
}
);
width = 439;
},
{
components = (
{
name = n;
alignment = -1;
}
);
layerId = "670CA61E-2201-4EBA-9CF0-D57F8D98A45A";
paths = (
{
closed = 1;
nodes = (
"277 -204 LINE SMOOTH",
"449 -204 OFFCURVE",
"532 -142 OFFCURVE",
"555 0 CURVE SMOOTH",
"560 33 LINE",
"378 33 LINE",
"373 0 LINE SMOOTH",
"368 -32 OFFCURVE",
"353 -52 OFFCURVE",
"305 -52 CURVE SMOOTH",
"259 -52 LINE",
"235 -204 LINE"
);
}
);
width = 656;
},
{
components = (
{
name = n;
alignment = -1;
}
);
layerId = "A9BE7077-88A3-49D0-803C-7BC96B0B926B";
paths = (
{
closed = 1;
nodes = (
"286 -200 LINE SMOOTH",
"417 -200 OFFCURVE",
"489 -146 OFFCURVE",
"510 -15 CURVE SMOOTH",
"516 20 LINE",
"420 20 LINE",
"412 -29 LINE SMOOTH",
"403 -83 OFFCURVE",
"367 -114 OFFCURVE",
"313 -114 CURVE SMOOTH",
"243 -114 LINE",
"230 -200 LINE"
);
}
);
width = 640;
},
{
components = (
{
name = n;
alignment = -1;
}
);
layerId = "45FAA47D-3C03-4CCA-BDE3-DFC1510ED13C";
paths = (
{
closed = 1;
nodes = (
"323 -202 LINE SMOOTH",
"414 -202 OFFCURVE",
"456 -160 OFFCURVE",
"473 -56 CURVE SMOOTH",
"485 20 LINE",
"453 20 LINE",
"439 -70 LINE SMOOTH",
"428 -138 OFFCURVE",
"394 -172 OFFCURVE",
"339 -172 CURVE SMOOTH",
"255 -172 LINE",
"251 -202 LINE"
);
}
);
width = 626;
}
);
leftKerningGroup = lc_ShortStem;
rightKerningGroup = lc_Shoulder;
unicode = 014B;
},
{
color = 7;
glyphname = o;
layers = (
{
anchors = (
{
name = bottom;
position = "{327, 0}";
},
{
name = center;
position = "{327, 260}";
},
{
name = ogonek;
position = "{440, 9}";
},
{
name = top;
position = "{327, 520}";
}
);
layerId = "3423A7C6-8126-4A24-975D-243FD1A28608";
name = public.background;
paths = (
{
closed = 1;
nodes = (
"498 -16 OFFCURVE",
"592 122 OFFCURVE",
"592 257 CURVE SMOOTH",
"592 263 LINE SMOOTH",
"592 402 OFFCURVE",
"494 536 OFFCURVE",
"327 536 CURVE SMOOTH",
"160 536 OFFCURVE",
"62 402 OFFCURVE",
"62 263 CURVE SMOOTH",
"62 257 LINE SMOOTH",
"62 122 OFFCURVE",
"156 -16 OFFCURVE",
"327 -16 CURVE SMOOTH"
);
},
{
closed = 1;
nodes = (
"176 14 OFFCURVE",
"94 132 OFFCURVE",
"94 260 CURVE SMOOTH",
"94 392 OFFCURVE",
"180 506 OFFCURVE",
"327 506 CURVE SMOOTH",
"474 506 OFFCURVE",
"560 392 OFFCURVE",
"560 260 CURVE SMOOTH",
"560 132 OFFCURVE",
"478 14 OFFCURVE",
"327 14 CURVE SMOOTH"
);
}
);
width = 682;
},
{
anchors = (
{
name = bottom;
position = "{296, 0}";
},
{
name = center;
position = "{338, 267}";
},
{
name = ogonek;
position = "{415, 12}";
},
{
name = top;
position = "{383, 552}";
}
);
layerId = "670CA61E-2201-4EBA-9CF0-D57F8D98A45A";
paths = (
{
closed = 1;
nodes = (
"484.083 -20 OFFCURVE",
"615.039 76.169 OFFCURVE",
"644 262 CURVE SMOOTH",
"648 286 LINE SMOOTH",
"675.352 455.374 OFFCURVE",
"563.112 572 OFFCURVE",
"386 572 CURVE SMOOTH",
"194.143 572 OFFCURVE",
"64.235 473.224 OFFCURVE",
"34 286 CURVE SMOOTH",
"30 262 LINE SMOOTH",
"3.834 94.099 OFFCURVE",
"116.692 -20 OFFCURVE",
"293 -20 CURVE SMOOTH"
);
},
{
closed = 1;
nodes = (
"240.889 132 OFFCURVE",
"201.383 193.444 OFFCURVE",
"214 274 CURVE SMOOTH",
"228.476 361.89 OFFCURVE",
"276.127 420 OFFCURVE",
"362 420 CURVE SMOOTH",
"438.949 420 OFFCURVE",
"477.563 356.345 OFFCURVE",
"464 274 CURVE SMOOTH",
"450.477 187.661 OFFCURVE",
"401.786 132 OFFCURVE",
"317 132 CURVE SMOOTH"
);
}
);
width = 682;
},
{
anchors = (
{
name = bottom;
position = "{294, 0}";
},
{
name = center;
position = "{337, 267}";
},
{
name = ogonek;
position = "{411, 10}";
},
{
name = top;
position = "{379, 534}";
}
);
layerId = "A9BE7077-88A3-49D0-803C-7BC96B0B926B";
paths = (
{
closed = 1;
nodes = (
"472.658 -18 OFFCURVE",
"593.244 79.568 OFFCURVE",
"621 258 CURVE SMOOTH",
"624 276 LINE SMOOTH",
"649.989 437.84 OFFCURVE",
"547.95 552 OFFCURVE",
"382 552 CURVE SMOOTH",
"200.625 552 OFFCURVE",
"80.623 454.246 OFFCURVE",
"52 276 CURVE SMOOTH",
"49 258 LINE SMOOTH",
"23.806 96.038 OFFCURVE",
"125.422 -18 OFFCURVE",
"291 -18 CURVE SMOOTH"
);
},
{
closed = 1;
nodes = (
"192.542 68 OFFCURVE",
"128.605 152.545 OFFCURVE",
"147 267 CURVE SMOOTH",
"166.649 391.444 OFFCURVE",
"243.659 466 OFFCURVE",
"368 466 CURVE SMOOTH",
"480.751 466 OFFCURVE",
"545.098 381.621 OFFCURVE",
"527 267 CURVE SMOOTH",
"506.974 142.395 OFFCURVE",
"429.62 68 OFFCURVE",
"305 68 CURVE SMOOTH"
);
}
);
width = 676;
},
{
anchors = (
{
name = bottom;
position = "{285, 0}";
},
{
name = center;
position = "{326, 260}";
},
{
name = ogonek;
position = "{399, 9}";
},
{
name = top;
position = "{367, 520}";
}
);
layerId = "45FAA47D-3C03-4CCA-BDE3-DFC1510ED13C";
paths = (
{
closed = 1;
nodes = (
"454.53 -16 OFFCURVE",
"563.251 85.039 OFFCURVE",
"590 257 CURVE SMOOTH",
"591 263 LINE SMOOTH",
"615.965 420.736 OFFCURVE",
"525.36 536 OFFCURVE",
"369 536 CURVE SMOOTH",
"196.607 536 OFFCURVE",
"88.201 434.86 OFFCURVE",
"61 263 CURVE SMOOTH",
"60 257 LINE SMOOTH",
"35.455 99.21 OFFCURVE",
"125.819 -16 OFFCURVE",
"282 -16 CURVE SMOOTH"
);
},
{
closed = 1;
nodes = (
"148.349 14 OFFCURVE",
"69.824 118.736 OFFCURVE",
"93 260 CURVE SMOOTH",
"117.422 413.51 OFFCURVE",
"211.796 506 OFFCURVE",
"365 506 CURVE SMOOTH",
"503.368 506 OFFCURVE",
"581.488 401.351 OFFCURVE",
"559 260 CURVE SMOOTH",
"533.843 106.662 OFFCURVE",
"439.991 14 OFFCURVE",
"287 14 CURVE SMOOTH"
);
}
);
width = 654;
}
);
leftKerningGroup = lc_Round;
rightKerningGroup = lc_Round;
unicode = 006F;
},
{
color = 6;
glyphname = oslash;
layers = (
{
layerId = "3423A7C6-8126-4A24-975D-243FD1A28608";
name = public.background;
paths = (
{
closed = 1;
nodes = (
"96 -36 LINE",
"526 572 LINE",
"492 572 LINE",
"62 -36 LINE"
);
}
);
width = 616;
},
{
components = (
{
name = o;
transform = "{1, 0, 0, 1, 16, 0}";
alignment = -1;
}
);
guideLines = (
{
position = "{0, 586}";
}
);
layerId = "670CA61E-2201-4EBA-9CF0-D57F8D98A45A";
paths = (
{
closed = 1;
nodes = (
"130 -66 LINE",
"678 600 LINE",
"574 600 LINE",
"26 -66 LINE"
);
}
);
width = 708;
},
{
components = (
{
name = o;
transform = "{1, 0, 0, 1, 26, 0}";
alignment = -1;
}
);
guideLines = (
{
position = "{0, 586}";
}
);
layerId = "A9BE7077-88A3-49D0-803C-7BC96B0B926B";
paths = (
{
closed = 1;
nodes = (
"127 -52 LINE",
"672 586 LINE",
"590 586 LINE",
"45 -52 LINE"
);
}
);
width = 721;
},
{
components = (
{
name = o;
transform = "{1, 0, 0, 1, 7, 0}";
alignment = -1;
}
);
layerId = "45FAA47D-3C03-4CCA-BDE3-DFC1510ED13C";
paths = (
{
closed = 1;
nodes = (
"90 -36 LINE",
"616 572 LINE",
"582 572 LINE",
"56 -36 LINE"
);
}
);
width = 676;
}
);
leftKerningGroup = lc_Round;
rightKerningGroup = lc_Round;
unicode = 00F8;
},
{
color = 7;
glyphname = oe;
layers = (
{
layerId = "670CA61E-2201-4EBA-9CF0-D57F8D98A45A";
paths = (
{
closed = 1;
nodes = (
"481.851 -18 OFFCURVE",
"582.283 111 OFFCURVE",
"610.674 265 CURVE",
"496.674 265 LINE",
"474.342 124 OFFCURVE",
"528.534 -20 OFFCURVE",
"714.534 -20 CURVE SMOOTH",
"855.534 -20 OFFCURVE",
"960.364 61 OFFCURVE",
"1002.261 174 CURVE",
"836.261 174 LINE",
"818.509 144 OFFCURVE",
"781.658 126 OFFCURVE",
"731.658 126 CURVE SMOOTH",
"645.658 126 OFFCURVE",
"617.845 184 OFFCURVE",
"632.258 275 CURVE SMOOTH",
"648.096 375 OFFCURVE",
"700.174 426 OFFCURVE",
"773.174 426 CURVE SMOOTH",
"846.174 426 OFFCURVE",
"876.096 375 OFFCURVE",
"861.366 282 CURVE",
"930.702 322 LINE",
"631.702 322 LINE",
"616.814 228 LINE",
"1020.814 228 LINE",
"1029.683 284 LINE SMOOTH",
"1053.758 436 OFFCURVE",
"979.298 572 OFFCURVE",
"802.298 572 CURVE SMOOTH",
"623.298 572 OFFCURVE",
"523.441 434 OFFCURVE",
"500.158 287 CURVE",
"614.158 287 LINE",
"639.342 446 OFFCURVE",
"568.298 572 OFFCURVE",
"380.298 572 CURVE SMOOTH",
"192.298 572 OFFCURVE",
"59.342 446 OFFCURVE",
"34.158 287 CURVE SMOOTH",
"30.357 263 LINE SMOOTH",
"6.283 111 OFFCURVE",
"91.851 -18 OFFCURVE",
"286.851 -18 CURVE SMOOTH"
);
},
{
closed = 1;
nodes = (
"233.926 134 OFFCURVE",
"201.429 194 OFFCURVE",
"214.258 275 CURVE SMOOTH",
"227.404 358 OFFCURVE",
"282.224 420 OFFCURVE",
"362.224 420 CURVE SMOOTH",
"442.224 420 OFFCURVE",
"477.404 358 OFFCURVE",
"464.258 275 CURVE SMOOTH",
"451.429 194 OFFCURVE",
"399.926 134 OFFCURVE",
"316.926 134 CURVE SMOOTH"
);
}
);
width = 1061;
},
{
layerId = "A9BE7077-88A3-49D0-803C-7BC96B0B926B";
paths = (
{
closed = 1;
nodes = (
"485.435 -18 OFFCURVE",
"581.876 130 OFFCURVE",
"601.991 257 CURVE",
"537.991 257 LINE",
"517.559 128 OFFCURVE",
"551.435 -18 OFFCURVE",
"744.435 -18 CURVE SMOOTH",
"870.435 -18 OFFCURVE",
"971.413 45 OFFCURVE",
"1011.994 156 CURVE",
"921.994 156 LINE",
"903.075 106 OFFCURVE",
"842.056 68 OFFCURVE",
"758.056 68 CURVE SMOOTH",
"637.056 68 OFFCURVE",
"596.519 153 OFFCURVE",
"614.575 267 CURVE SMOOTH",
"633.106 384 OFFCURVE",
"702.093 466 OFFCURVE",
"815.093 466 CURVE SMOOTH",
"922.093 466 OFFCURVE",
"966.848 395 OFFCURVE",
"948.95 282 CURVE",
"977.127 321 LINE",
"615.127 321 LINE",
"603.724 249 LINE",
"1035.724 249 LINE",
"1042.534 292 LINE SMOOTH",
"1063.916 427 OFFCURVE",
"999.714 552 OFFCURVE",
"828.714 552 CURVE SMOOTH",
"649.714 552 OFFCURVE",
"562.857 414 OFFCURVE",
"541.158 277 CURVE",
"605.158 277 LINE",
"626.382 411 OFFCURVE",
"568.714 552 OFFCURVE",
"380.714 552 CURVE SMOOTH",
"198.714 552 OFFCURVE",
"74.015 415 OFFCURVE",
"52 276 CURVE SMOOTH",
"49.149 258 LINE SMOOTH",
"27.45 121 OFFCURVE",
"103.435 -18 OFFCURVE",
"290.435 -18 CURVE SMOOTH"
);
},
{
closed = 1;
nodes = (
"185.056 68 OFFCURVE",
"128.519 153 OFFCURVE",
"146.575 267 CURVE SMOOTH",
"164.947 383 OFFCURVE",
"251.093 466 OFFCURVE",
"367.093 466 CURVE SMOOTH",
"483.093 466 OFFCURVE",
"542.63 381 OFFCURVE",
"524.575 267 CURVE SMOOTH",
"506.835 155 OFFCURVE",
"423.056 68 OFFCURVE",
"304.056 68 CURVE SMOOTH"
);
}
);
width = 1084;
},
{
layerId = "45FAA47D-3C03-4CCA-BDE3-DFC1510ED13C";
paths = (
{
closed = 1;
nodes = (
"453.019 -16 OFFCURVE",
"563.717 121 OFFCURVE",
"585.575 259 CURVE",
"561.575 259 LINE",
"539.717 121 OFFCURVE",
"595.019 -16 OFFCURVE",
"769.019 -16 CURVE SMOOTH",
"894.019 -16 OFFCURVE",
"984.789 52 OFFCURVE",
"1020.677 146 CURVE",
"988.677 146 LINE",
"961.115 73 OFFCURVE",
"882.77 14 OFFCURVE",
"773.77 14 CURVE SMOOTH",
"621.77 14 OFFCURVE",
"568.301 131 OFFCURVE",
"589.208 263 CURVE SMOOTH",
"609.64 392 OFFCURVE",
"702.695 506 OFFCURVE",
"845.695 506 CURVE SMOOTH",
"977.695 506 OFFCURVE",
"1040.015 407 OFFCURVE",
"1020.059 281 CURVE",
"1034.643 291 LINE",
"580.643 291 LINE",
"575.891 261 LINE",
"1046.891 261 LINE",
"1051.96 293 LINE SMOOTH",
"1071.599 417 OFFCURVE",
"1002.447 536 OFFCURVE",
"850.447 536 CURVE SMOOTH",
"686.447 536 OFFCURVE",
"584.382 403 OFFCURVE",
"562.525 265 CURVE",
"586.525 265 LINE",
"608.382 403 OFFCURVE",
"536.447 536 OFFCURVE",
"369.447 536 CURVE SMOOTH",
"202.447 536 OFFCURVE",
"83.224 402 OFFCURVE",
"61.208 263 CURVE SMOOTH",
"60.258 257 LINE SMOOTH",
"38.876 122 OFFCURVE",
"111.019 -16 OFFCURVE",
"282.019 -16 CURVE SMOOTH"
);
},
{
closed = 1;
nodes = (
"135.77 14 OFFCURVE",
"72.46 132 OFFCURVE",
"92.733 260 CURVE SMOOTH",
"113.64 392 OFFCURVE",
"217.695 506 OFFCURVE",
"364.695 506 CURVE SMOOTH",
"511.695 506 OFFCURVE",
"579.64 392 OFFCURVE",
"558.733 260 CURVE SMOOTH",
"538.46 132 OFFCURVE",
"437.77 14 OFFCURVE",
"286.77 14 CURVE SMOOTH"
);
}
);
width = 1100;
},
{
layerId = "3423A7C6-8126-4A24-975D-243FD1A28608";
name = public.background;
paths = (
{
closed = 1;
nodes = (
"498 -16 OFFCURVE",
"587 121 OFFCURVE",
"587 259 CURVE",
"563 259 LINE",
"563 121 OFFCURVE",
"640 -16 OFFCURVE",
"814 -16 CURVE SMOOTH",
"939 -16 OFFCURVE",
"1019 52 OFFCURVE",
"1040 146 CURVE",
"1008 146 LINE",
"992 73 OFFCURVE",
"923 14 OFFCURVE",
"814 14 CURVE SMOOTH",
"662 14 OFFCURVE",
"590 131 OFFCURVE",
"590 263 CURVE SMOOTH",
"590 392 OFFCURVE",
"665 506 OFFCURVE",
"808 506 CURVE SMOOTH",
"940 506 OFFCURVE",
"1018 407 OFFCURVE",
"1018 281 CURVE",
"1031 291 LINE",
"577 291 LINE",
"577 261 LINE",
"1048 261 LINE",
"1048 293 LINE SMOOTH",
"1048 417 OFFCURVE",
"960 536 OFFCURVE",
"808 536 CURVE SMOOTH",
"644 536 OFFCURVE",
"563 403 OFFCURVE",
"563 265 CURVE",
"587 265 LINE",
"587 403 OFFCURVE",
"494 536 OFFCURVE",
"327 536 CURVE SMOOTH",
"160 536 OFFCURVE",
"62 402 OFFCURVE",
"62 263 CURVE SMOOTH",
"62 257 LINE SMOOTH",
"62 122 OFFCURVE",
"156 -16 OFFCURVE",
"327 -16 CURVE SMOOTH"
);
},
{
closed = 1;
nodes = (
"176 14 OFFCURVE",
"94 132 OFFCURVE",
"94 260 CURVE SMOOTH",
"94 392 OFFCURVE",
"180 506 OFFCURVE",
"327 506 CURVE SMOOTH",
"474 506 OFFCURVE",
"560 392 OFFCURVE",
"560 260 CURVE SMOOTH",
"560 132 OFFCURVE",
"478 14 OFFCURVE",
"327 14 CURVE SMOOTH"
);
}
);
width = 1061;
}
);
leftKerningGroup = lc_Round;
rightKerningGroup = lc_e;
unicode = 0153;
},
{
color = 7;
glyphname = p;
layers = (
{
layerId = "670CA61E-2201-4EBA-9CF0-D57F8D98A45A";
paths = (
{
closed = 1;
nodes = (
"202.342 -200 LINE",
"259.36 160 LINE",
"223.913 214 LINE",
"206.147 80.164 OFFCURVE",
"278.509 -18 OFFCURVE",
"408.168 -18 CURVE SMOOTH",
"577.377 -18 OFFCURVE",
"674.717 92.807 OFFCURVE",
"701.991 265 CURVE SMOOTH",
"705.792 289 LINE SMOOTH",
"730.917 447.636 OFFCURVE",
"650.997 568 OFFCURVE",
"499.981 568 CURVE SMOOTH",
"347.157 568 OFFCURVE",
"259.961 468.587 OFFCURVE",
"229.752 314 CURVE",
"245.752 314 LINE",
"283.447 552 LINE",
"139.447 552 LINE",
"20.342 -200 LINE"
);
},
{
closed = 1;
nodes = (
"303.635 132 OFFCURVE",
"259.01 183.044 OFFCURVE",
"270.407 255 CURVE SMOOTH",
"275.792 289 LINE SMOOTH",
"288.688 370.422 OFFCURVE",
"340.424 418 OFFCURVE",
"422.224 418 CURVE SMOOTH",
"496.821 418 OFFCURVE",
"534.513 356.691 OFFCURVE",
"521.891 277 CURVE SMOOTH",
"508.116 190.025 OFFCURVE",
"461.625 132 OFFCURVE",
"376.926 132 CURVE SMOOTH"
);
}
);
width = 741;
},
{
layerId = "A9BE7077-88A3-49D0-803C-7BC96B0B926B";
paths = (
{
closed = 1;
nodes = (
"144.609 -200 LINE",
"200.835 155 LINE",
"169.506 235 LINE",
"153.645 89.757 OFFCURVE",
"226.083 -18 OFFCURVE",
"363.435 -18 CURVE SMOOTH",
"534.431 -18 OFFCURVE",
"638.958 86.324 OFFCURVE",
"666.149 258 CURVE SMOOTH",
"669 276 LINE SMOOTH",
"694.035 434.066 OFFCURVE",
"609.078 552 OFFCURVE",
"455.714 552 CURVE SMOOTH",
"305.384 552 OFFCURVE",
"218.491 456.164 OFFCURVE",
"186.593 305 CURVE",
"204.276 303 LINE",
"240.863 534 LINE",
"164.863 534 LINE",
"48.609 -200 LINE"
);
},
{
closed = 1;
nodes = (
"257.582 66 OFFCURVE",
"194.248 138.663 OFFCURVE",
"210.457 241 CURVE SMOOTH",
"217.742 287 LINE SMOOTH",
"235.922 401.78 OFFCURVE",
"309.788 468 OFFCURVE",
"425.41 468 CURVE SMOOTH",
"533.362 468 OFFCURVE",
"589.638 381.049 OFFCURVE",
"571.575 267 CURVE SMOOTH",
"552.163 144.438 OFFCURVE",
"482.337 66 OFFCURVE",
"361.739 66 CURVE SMOOTH"
);
}
);
width = 722;
},
{
layerId = "45FAA47D-3C03-4CCA-BDE3-DFC1510ED13C";
paths = (
{
closed = 1;
nodes = (
"97.876 -200 LINE",
"155.845 166 LINE",
"146.14 231 LINE",
"123.515 88.155 OFFCURVE",
"206.104 -16 OFFCURVE",
"348.019 -16 CURVE SMOOTH",
"515.218 -16 OFFCURVE",
"615.555 88.406 OFFCURVE",
"642.258 257 CURVE SMOOTH",
"643.208 263 LINE SMOOTH",
"667.91 418.964 OFFCURVE",
"585.816 536 OFFCURVE",
"435.447 536 CURVE SMOOTH",
"278.154 536 OFFCURVE",
"178.085 445.324 OFFCURVE",
"153.326 289 CURVE",
"171.068 300 LINE",
"205.913 520 LINE",
"179.913 520 LINE",
"65.876 -200 LINE"
);
},
{
closed = 1;
nodes = (
"221.754 14 OFFCURVE",
"144.24 105.357 OFFCURVE",
"164.457 233 CURVE SMOOTH",
"173.009 287 LINE SMOOTH",
"195.177 426.963 OFFCURVE",
"287.089 506 OFFCURVE",
"428.695 506 CURVE SMOOTH",
"562.08 506 OFFCURVE",
"632.897 399.937 OFFCURVE",
"610.733 260 CURVE SMOOTH",
"586.861 109.278 OFFCURVE",
"499.519 14 OFFCURVE",
"350.77 14 CURVE SMOOTH"
);
}
);
width = 707;
},
{
layerId = "3423A7C6-8126-4A24-975D-243FD1A28608";
name = public.background;
paths = (
{
closed = 1;
nodes = (
"140 -200 LINE",
"140 166 LINE",
"120 231 LINE",
"120 104 OFFCURVE",
"208 -16 OFFCURVE",
"361 -16 CURVE SMOOTH",
"526 -16 OFFCURVE",
"612 127 OFFCURVE",
"612 257 CURVE SMOOTH",
"612 263 LINE SMOOTH",
"612 401 OFFCURVE",
"522 536 OFFCURVE",
"361 536 CURVE SMOOTH",
"211 536 OFFCURVE",
"118 424 OFFCURVE",
"118 289 CURVE",
"134 300 LINE",
"134 520 LINE",
"108 520 LINE",
"108 -200 LINE"
);
},
{
closed = 1;
nodes = (
"223 14 OFFCURVE",
"138 117 OFFCURVE",
"138 233 CURVE SMOOTH",
"138 287 LINE SMOOTH",
"138 411 OFFCURVE",
"227 506 OFFCURVE",
"359 506 CURVE SMOOTH",
"499 506 OFFCURVE",
"580 392 OFFCURVE",
"580 260 CURVE SMOOTH",
"580 136 OFFCURVE",
"503 14 OFFCURVE",
"359 14 CURVE SMOOTH"
);
}
);
width = 741;
}
);
leftKerningGroup = lc_p;
rightKerningGroup = lc_Round;
unicode = 0070;
},
{
color = 7;
glyphname = thorn;
layers = (
{
layerId = "670CA61E-2201-4EBA-9CF0-D57F8D98A45A";
paths = (
{
closed = 1;
nodes = (
"202.513 -200 LINE",
"259.214 158 LINE",
"223.767 212 LINE",
"206.121 79.064 OFFCURVE",
"279.01 -18 OFFCURVE",
"408.339 -18 CURVE SMOOTH",
"576.992 -18 OFFCURVE",
"674.702 91.623 OFFCURVE",
"701.845 263 CURVE SMOOTH",
"705.646 287 LINE SMOOTH",
"730.364 443.061 OFFCURVE",
"659.263 564 OFFCURVE",
"514.519 564 CURVE SMOOTH",
"376.166 564 OFFCURVE",
"292.514 480.131 OFFCURVE",
"264.357 342 CURVE",
"288.357 342 LINE",
"349.81 730 LINE",
"167.81 730 LINE",
"20.513 -200 LINE"
);
},
{
closed = 1;
nodes = (
"304.083 132 OFFCURVE",
"259.002 181.916 OFFCURVE",
"270.261 253 CURVE SMOOTH",
"275.646 287 LINE SMOOTH",
"288.418 367.635 OFFCURVE",
"340.479 414 OFFCURVE",
"421.761 414 CURVE SMOOTH",
"495.979 414 OFFCURVE",
"534.218 353.749 OFFCURVE",
"521.745 275 CURVE SMOOTH",
"508.101 188.851 OFFCURVE",
"461.224 132 OFFCURVE",
"377.096 132 CURVE SMOOTH"
);
}
);
width = 742;
},
{
layerId = "A9BE7077-88A3-49D0-803C-7BC96B0B926B";
paths = (
{
closed = 1;
nodes = (
"144.513 -200 LINE",
"201.056 157 LINE",
"169.727 237 LINE",
"153.836 91.491 OFFCURVE",
"227.519 -16 OFFCURVE",
"365.656 -16 CURVE SMOOTH",
"535.1 -16 OFFCURVE",
"638.969 86.997 OFFCURVE",
"665.894 257 CURVE SMOOTH",
"669.062 277 LINE SMOOTH",
"694.058 434.819 OFFCURVE",
"613. 554 OFFCURVE",
"461.935 554 CURVE SMOOTH",
"310.911 554 OFFCURVE",
"222.902 458.614 OFFCURVE",
"190.814 307 CURVE",
"232.416 355 LINE",
"291.81 730 LINE",
"195.81 730 LINE",
"48.513 -200 LINE"
);
},
{
closed = 1;
nodes = (
"257.803 68 OFFCURVE",
"194.469 140.662 OFFCURVE",
"210.677 243 CURVE SMOOTH",
"217.963 289 LINE SMOOTH",
"236.142 403.78 OFFCURVE",
"310.008 470 OFFCURVE",
"425.63 470 CURVE SMOOTH",
"533.217 470 OFFCURVE",
"590.028 384.113 OFFCURVE",
"572.112 271 CURVE SMOOTH",
"552.571 147.622 OFFCURVE",
"483.114 68 OFFCURVE",
"361.96 68 CURVE SMOOTH"
);
}
);
width = 722;
},
{
layerId = "45FAA47D-3C03-4CCA-BDE3-DFC1510ED13C";
paths = (
{
closed = 1;
nodes = (
"97.513 -200 LINE",
"155.481 166 LINE",
"145.776 231 LINE",
"123.152 88.155 OFFCURVE",
"205.741 -16 OFFCURVE",
"347.656 -16 CURVE SMOOTH",
"514.855 -16 OFFCURVE",
"615.193 88.406 OFFCURVE",
"641.894 257 CURVE SMOOTH",
"642.845 263 LINE SMOOTH",
"667.547 418.964 OFFCURVE",
"585.453 536 OFFCURVE",
"435.084 536 CURVE SMOOTH",
"278.82 536 OFFCURVE",
"178.107 447.755 OFFCURVE",
"153.596 293 CURVE",
"186.208 360 LINE",
"244.81 730 LINE",
"212.81 730 LINE",
"65.513 -200 LINE"
);
},
{
closed = 1;
nodes = (
"221.391 14 OFFCURVE",
"143.877 105.356 OFFCURVE",
"164.093 233 CURVE SMOOTH",
"172.646 287 LINE SMOOTH",
"194.814 426.963 OFFCURVE",
"286.726 506 OFFCURVE",
"428.332 506 CURVE SMOOTH",
"561.716 506 OFFCURVE",
"632.533 399.937 OFFCURVE",
"610.37 260 CURVE SMOOTH",
"586.498 109.278 OFFCURVE",
"499.156 14 OFFCURVE",
"350.407 14 CURVE SMOOTH"
);
}
);
width = 706;
},
{
layerId = "3423A7C6-8126-4A24-975D-243FD1A28608";
name = public.background;
paths = (
{
closed = 1;
nodes = (
"140 -200 LINE",
"140 166 LINE",
"120 231 LINE",
"120 104 OFFCURVE",
"208 -16 OFFCURVE",
"361 -16 CURVE SMOOTH",
"526 -16 OFFCURVE",
"612 127 OFFCURVE",
"612 257 CURVE SMOOTH",
"612 263 LINE SMOOTH",
"612 401 OFFCURVE",
"522 536 OFFCURVE",
"361 536 CURVE SMOOTH",
"214 536 OFFCURVE",
"118 426 OFFCURVE",
"118 293 CURVE",
"140 360 LINE",
"140 730 LINE",
"108 730 LINE",
"108 -200 LINE"
);
},
{
closed = 1;
nodes = (
"223 14 OFFCURVE",
"138 117 OFFCURVE",
"138 233 CURVE SMOOTH",
"138 287 LINE SMOOTH",
"138 411 OFFCURVE",
"229 506 OFFCURVE",
"359 506 CURVE SMOOTH",
"499 506 OFFCURVE",
"580 392 OFFCURVE",
"580 260 CURVE SMOOTH",
"580 136 OFFCURVE",
"503 14 OFFCURVE",
"359 14 CURVE SMOOTH"
);
}
);
width = 742;
}
);
leftKerningGroup = lc_LongStem;
rightKerningGroup = lc_Round;
unicode = 00FE;
},
{
color = 7;
glyphname = q;
layers = (
{
layerId = "670CA61E-2201-4EBA-9CF0-D57F8D98A45A";
paths = (
{
closed = 1;
nodes = (
"566.342 -200 LINE",
"685.447 552 LINE",
"541.447 552 LINE",
"504.227 317 LINE",
"520.227 317 LINE",
"539.239 459.536 OFFCURVE",
"472.076 568 OFFCURVE",
"338.981 568 CURVE SMOOTH",
"166.101 568 OFFCURVE",
"62.795 459.492 OFFCURVE",
"35.158 285 CURVE SMOOTH",
"31.357 261 LINE SMOOTH",
"6.195 102.136 OFFCURVE",
"87.342 -18 OFFCURVE",
"239.168 -18 CURVE SMOOTH",
"382.193 -18 OFFCURVE",
"467.218 71.211 OFFCURVE",
"494.071 215 CURVE",
"441.835 163 LINE",
"384.342 -200 LINE"
);
},
{
closed = 1;
nodes = (
"242.744 132 OFFCURVE",
"202.566 192.868 OFFCURVE",
"215.258 273 CURVE SMOOTH",
"229.175 360.869 OFFCURVE",
"278.098 418 OFFCURVE",
"364.224 418 CURVE SMOOTH",
"435.755 418 OFFCURVE",
"478.051 366.398 OFFCURVE",
"466.742 295 CURVE SMOOTH",
"461.357 261 LINE SMOOTH",
"448.613 180.536 OFFCURVE",
"399.204 132 OFFCURVE",
"318.926 132 CURVE SMOOTH"
);
}
);
width = 759;
},
{
layerId = "A9BE7077-88A3-49D0-803C-7BC96B0B926B";
paths = (
{
closed = 1;
nodes = (
"521.609 -200 LINE",
"637.863 534 LINE",
"561.863 534 LINE",
"525.593 305 LINE",
"553.593 305 LINE",
"570.746 447.452 OFFCURVE",
"495.575 552 OFFCURVE",
"358.714 552 CURVE SMOOTH",
"187.26 552 OFFCURVE",
"79.723 451.036 OFFCURVE",
"52.634 280 CURVE SMOOTH",
"49.783 262 LINE SMOOTH",
"24.417 101.851 OFFCURVE",
"109.564 -18 OFFCURVE",
"264.435 -18 CURVE SMOOTH",
"416.155 -18 OFFCURVE",
"502.001 81.413 OFFCURVE",
"532.506 235 CURVE",
"482.469 159 LINE",
"425.609 -200 LINE"
);
},
{
closed = 1;
nodes = (
"186.62 70 OFFCURVE",
"129.109 156.726 OFFCURVE",
"147.208 271 CURVE SMOOTH",
"166.692 394.019 OFFCURVE",
"237.714 472 OFFCURVE",
"359.043 472 CURVE SMOOTH",
"462.03 472 OFFCURVE",
"524.667 400.175 OFFCURVE",
"508.643 299 CURVE SMOOTH",
"501.357 253 LINE SMOOTH",
"483.13 137.915 OFFCURVE",
"410.747 70 OFFCURVE",
"295.373 70 CURVE SMOOTH"
);
}
);
width = 690;
},
{
layerId = "45FAA47D-3C03-4CCA-BDE3-DFC1510ED13C";
paths = (
{
closed = 1;
nodes = (
"491.876 -200 LINE",
"605.913 520 LINE",
"579.913 520 LINE",
"546.494 309 LINE",
"559.326 289 LINE",
"581.993 432.11 OFFCURVE",
"498.226 536 OFFCURVE",
"355.447 536 CURVE SMOOTH",
"188.248 536 OFFCURVE",
"87.911 431.594 OFFCURVE",
"61.208 263 CURVE SMOOTH",
"60.258 257 LINE SMOOTH",
"35.556 101.036 OFFCURVE",
"117.65 -16 OFFCURVE",
"268.019 -16 CURVE SMOOTH",
"424.545 -16 OFFCURVE",
"523.457 75.161 OFFCURVE",
"548.14 231 CURVE",
"516.894 160 LINE",
"459.876 -200 LINE"
);
},
{
closed = 1;
nodes = (
"141.386 14 OFFCURVE",
"70.569 120.063 OFFCURVE",
"92.733 260 CURVE SMOOTH",
"116.605 410.721 OFFCURVE",
"203.946 506 OFFCURVE",
"352.695 506 CURVE SMOOTH",
"481.712 506 OFFCURVE",
"559.226 414.643 OFFCURVE",
"539.009 287 CURVE SMOOTH",
"530.457 233 LINE SMOOTH",
"508.289 93.037 OFFCURVE",
"416.377 14 OFFCURVE",
"274.77 14 CURVE SMOOTH"
);
}
);
width = 673;
},
{
layerId = "3423A7C6-8126-4A24-975D-243FD1A28608";
name = public.background;
paths = (
{
closed = 1;
nodes = (
"566 -200 LINE",
"566 520 LINE",
"540 520 LINE",
"540 309 LINE",
"556 289 LINE",
"556 416 OFFCURVE",
"466 536 OFFCURVE",
"313 536 CURVE SMOOTH",
"148 536 OFFCURVE",
"62 393 OFFCURVE",
"62 263 CURVE SMOOTH",
"62 257 LINE SMOOTH",
"62 119 OFFCURVE",
"152 -16 OFFCURVE",
"313 -16 CURVE SMOOTH",
"463 -16 OFFCURVE",
"554 96 OFFCURVE",
"554 231 CURVE",
"534 160 LINE",
"534 -200 LINE"
);
},
{
closed = 1;
nodes = (
"175 14 OFFCURVE",
"94 128 OFFCURVE",
"94 260 CURVE SMOOTH",
"94 384 OFFCURVE",
"171 506 OFFCURVE",
"315 506 CURVE SMOOTH",
"451 506 OFFCURVE",
"536 403 OFFCURVE",
"536 287 CURVE SMOOTH",
"536 233 LINE SMOOTH",
"536 109 OFFCURVE",
"447 14 OFFCURVE",
"315 14 CURVE SMOOTH"
);
}
);
width = 759;
}
);
leftKerningGroup = lc_Round;
unicode = 0071;
},
